<svg width="380" height="81" viewBox="0 0 380 81" fill="none" xmlns="http://www.w3.org/2000/svg">
<g clip-path="url(#clip0_31_522)">
<path d="M379.632 5.78026C378.507 8.65357 376.165 10.9036 373.551 12.4695C372.228 13.26 370.814 13.8985 369.37 14.461C368.047 14.9779 366.512 15.4644 365.083 15.282C361.601 18.2921 357.892 21.059 354.03 23.5522C354.061 23.5522 354.076 23.5522 354.106 23.537C355.763 23.1265 357.481 22.8985 359.184 22.9441C360.659 22.9897 362.316 23.1418 363.608 23.9171C364.809 24.6468 365.676 25.9695 365.493 27.4137C365.311 28.8276 364.262 29.8461 363.197 30.6671C362.027 31.5793 360.75 32.2786 359.366 32.7955C356.508 33.8597 353.301 33.9357 350.397 33.0083C348.968 32.5522 347.615 31.8681 346.368 31.0472C345.654 30.5607 344.605 29.9678 344.377 29.1164C340.409 31.1232 336.304 32.8715 332.093 34.3309C333.081 34.4982 334.069 34.7566 334.996 35.1063C337.581 36.0945 340.211 38.3293 339.968 41.385C339.725 44.3647 336.532 46.113 333.826 46.3563C330.846 46.6147 327.699 45.1249 325.434 43.2853C324.294 42.358 323.412 41.1874 322.728 39.8951C322.378 39.2262 322.059 38.5117 321.816 37.7972C321.77 37.6451 321.709 37.4779 321.679 37.3259C321.496 37.3715 321.314 37.4171 321.132 37.4475C316.191 38.5421 311.204 39.287 306.187 39.8039C306.218 39.8039 306.233 39.8343 306.263 39.8495C307.647 40.7617 308.772 41.9931 309.851 43.2245C311.812 45.4441 314.214 48.135 313.576 51.3276C313.287 52.7414 312.39 54.0641 310.9 54.3377C309.41 54.6114 307.89 54.1097 306.567 53.456C303.922 52.1485 301.353 50.233 299.985 47.5725C299.331 46.3107 298.86 44.9272 298.495 43.5438C298.282 42.7837 298.1 41.9931 298.069 41.2026C298.069 41.0049 298.069 40.7465 298.115 40.4728C293.934 40.7465 289.753 40.9289 285.588 41.0962C282.395 41.2178 279.187 41.3394 275.995 41.4914C276.436 41.7651 276.877 42.0691 277.302 42.4036C278.822 43.559 280.267 44.7904 281.498 46.2499C282.593 47.5725 283.49 48.9864 284.143 50.5826C284.736 52.0573 285.192 53.7448 284.964 55.3259C284.721 56.983 283.475 58.0624 281.802 58.1688C280.267 58.26 278.64 57.6367 277.317 56.907C274.429 55.2803 272.437 52.4982 271.16 49.488C270.431 47.7853 269.974 46.0674 270.127 44.2127C270.187 43.5134 270.248 42.5404 270.583 41.7803C269.61 41.8411 268.637 41.9019 267.664 41.9627C262.084 42.3428 256.459 42.8141 250.956 43.8326C250.591 43.8935 250.226 43.9695 249.861 44.0455C250.515 44.3191 251.169 44.6384 251.777 45.0033C253.616 46.0674 255.38 47.3445 257.007 48.7279C259.697 51.0235 261.871 54.1097 262.753 57.5607C263.179 59.233 263.012 61.1941 261.263 62.0151C259.454 62.8664 257.432 62.1063 255.73 61.3766C254.088 60.6772 252.446 59.9475 251.047 58.8073C249.618 57.6367 248.569 55.9948 247.52 54.4897C246.426 52.9391 245.422 51.3124 244.753 49.5185C244.328 48.363 243.856 46.8276 243.978 45.4593C241.591 46.1435 239.265 46.9948 237.015 48.0134C234.856 49.0016 232.773 50.1722 230.843 51.5556C228.882 52.9695 227.072 54.4897 225.279 56.1012C225.096 56.2685 224.792 56.0556 224.929 55.8276C225.522 54.8394 226.191 53.9728 226.981 53.1367C231.679 48.1502 238.034 45.2617 244.647 43.4222C244.86 43.2853 245.118 43.1941 245.392 43.1789C245.453 43.1789 245.498 43.1789 245.544 43.1789C247.991 42.5404 250.454 42.0235 252.871 41.5978C255.167 41.2026 257.478 40.8681 259.789 40.5945C259.728 40.3968 259.682 40.2144 259.682 40.0016C259.682 39.4999 259.789 38.9678 259.91 38.4661C260.093 37.6755 260.351 36.9154 260.67 36.1705C261.309 34.6654 262.191 33.2972 263.24 32.0353C265.14 29.7549 267.709 27.9002 270.461 26.8056C272.072 26.1671 273.973 25.8934 275.417 27.0489C276.74 28.113 277.15 29.8157 276.877 31.4272C276.375 34.483 273.851 37.0674 271.388 38.7245C270.871 39.0742 270.339 39.3782 269.792 39.6671C275.615 39.2566 281.453 39.0438 287.275 38.7549C287.29 38.3445 287.382 37.9492 287.442 37.5539C287.594 36.7178 287.777 35.8664 288.035 35.0607C288.552 33.3884 289.343 31.9593 290.513 30.6519C291.532 29.5269 292.672 28.4627 293.843 27.5049C295.029 26.532 296.306 25.6654 297.78 25.1789C299.179 24.7228 300.821 24.7228 302.098 25.5286C303.39 26.3343 304.074 27.733 303.922 29.2532C303.664 31.9289 302.052 34.5438 300.228 36.4441C299.65 37.0522 299.012 37.5995 298.343 38.1012C302.843 37.7668 307.343 37.3107 311.797 36.6266C311.387 35.2735 311.417 33.8141 311.493 32.4002C311.584 30.4391 311.828 28.4171 312.375 26.532C313.272 23.3698 315.659 21.0438 318.426 19.4019C319.763 18.6113 321.542 17.8664 323.123 18.2921C324.735 18.733 325.312 20.3597 325.388 21.8647C325.54 25.0877 324.37 28.4019 322.637 31.0776C321.785 32.4002 320.767 33.6164 319.657 34.711C319.459 34.9086 319.246 35.1063 319.034 35.3039C320.417 34.9999 321.801 34.6806 323.184 34.3309C328.353 32.9931 333.385 31.2296 338.25 29.086C337.885 28.3715 337.703 27.4441 337.596 26.8512C337.307 25.2093 337.429 23.4914 337.779 21.8799C338.098 20.4205 338.6 19.0218 339.192 17.6536C339.74 16.3917 340.439 15.1755 341.442 14.2026C343.221 12.4847 346.733 11.4053 348.01 14.2786C348.527 15.4644 348.557 16.8934 348.496 18.1705C348.42 19.6451 348.132 21.1198 347.584 22.5032C347.189 23.4914 346.657 24.4036 346.018 25.2397C347.691 24.3124 349.348 23.3394 350.975 22.3208C355.246 19.6299 359.321 16.635 363.122 13.3208C363.137 13.3056 363.152 13.2904 363.167 13.2752C363.198 13.1536 363.228 13.0472 363.258 12.9255C363.41 12.4542 363.547 11.983 363.714 11.5117C363.988 10.7363 364.323 9.97621 364.687 9.24648C365.432 7.75661 366.39 6.37316 367.454 5.09614C369.279 2.90695 371.863 0.428905 374.812 0.0184315C376.333 -0.194406 378.081 0.124851 379.16 1.31066C380.27 2.52688 380.27 4.29039 379.692 5.74985L379.632 5.78026Z" fill="#E3ACAC"/>
<path d="M250.788 18.4565C248.112 17.8332 245.786 19.8856 244.311 21.8771C244.311 21.3146 244.281 20.7521 244.266 20.2048C244.205 18.5933 244.053 16.9666 243.369 15.4768C242.669 13.9109 241.149 13.1204 239.477 13.5764C238.109 13.9565 236.984 14.9751 236.284 16.1913C234.749 18.867 235.235 22.4092 235.859 25.2825C236.041 26.1339 236.269 26.9852 236.558 27.8062C236.862 29.2656 237.394 30.6491 238.23 31.8653C238.245 31.8957 238.261 31.9413 238.276 31.9717C238.565 32.6558 238.99 33.2335 239.568 33.5224C239.918 34.0089 240.526 34.3129 241.21 34.1153C243.749 33.3704 246.196 32.2758 248.401 30.8315C250.499 29.4633 252.992 27.715 253.783 25.2065C254.558 22.7589 253.585 19.1102 250.803 18.4565H250.788Z" fill="#E3ACAC"/>
<path d="M225.605 24.9965C222.716 20.4205 218.292 17.0759 213.108 15.5405C211.953 15.206 210.767 14.9475 209.581 14.7803C209.429 14.6891 209.262 14.6283 209.095 14.5827C208.426 14.4002 207.711 14.3394 207.027 14.2482C205.765 14.0962 204.519 14.0658 203.257 14.2026C200.612 14.5067 198.088 15.1908 195.671 16.2854C195.26 16.4678 194.85 16.6655 194.439 16.8783C193.953 17.0911 193.466 17.3344 192.995 17.5928C192.813 17.684 192.676 17.8209 192.569 17.9729C189.225 20.1773 186.443 23.2482 184.694 26.8665C182.368 31.6857 181.669 37.1739 182.764 42.4188C183.341 45.2161 184.527 47.8462 186.032 50.2634C187.598 52.7871 189.392 55.2347 191.764 57.0438C196.188 60.4493 202.117 61.4982 207.59 61.3614C212.759 61.2398 218.186 59.8868 222.047 56.2685C224.176 54.277 225.544 51.6773 226.563 48.9712C227.612 46.1587 228.463 43.179 228.889 40.1992C229.649 34.9087 228.478 29.4813 225.62 24.9661L225.605 24.9965ZM224.86 43.9543C224.161 46.478 223.4 49.032 222.047 51.2972C219.615 55.3868 215.282 57.3327 210.721 58.0168C206.206 58.6857 200.87 58.3057 196.628 56.3597C194.287 55.2803 192.372 53.7297 190.775 51.6925C189.179 49.6553 187.689 47.3293 186.747 44.9273C185.029 40.5337 184.922 35.7144 186.306 31.2144C187.644 26.8665 190.456 23.0658 194.257 20.5877C194.88 20.1773 195.519 19.8124 196.172 19.478C197.86 18.8698 199.563 18.353 201.326 18.0337C203.759 17.5928 206.282 17.5168 208.73 17.7905C213.397 18.3225 217.775 20.4661 220.922 23.9323C223.933 27.2465 225.787 31.7009 225.985 36.1097C226.107 38.7854 225.559 41.3699 224.86 43.9391V43.9543Z" fill="#E3ACAC"/>
<path d="M325.121 61.4877C324.376 59.2985 322.582 57.5654 320.499 56.638C317.96 55.513 315.148 55.437 312.411 55.589C309.568 55.7562 306.725 56.0907 303.898 56.5468C292.648 58.3255 281.869 62.0958 271.09 65.6228C260.524 69.089 249.715 72.4488 238.572 73.3762C233.585 73.7867 228.492 73.7563 223.521 73.0417C218.595 72.3272 213.624 71.0198 209.063 69.013C207.923 68.5113 206.798 67.9488 205.703 67.3407C205.475 67.2191 205.308 67.5383 205.506 67.6752C209.504 70.4725 213.898 72.5856 218.61 73.8323C223.354 75.0941 228.325 75.7174 233.235 75.7326C243.968 75.7934 254.534 73.3306 264.766 70.2444C275.347 67.0519 285.746 63.2056 296.524 60.6819C301.815 59.4353 307.212 58.5079 312.654 58.2191C315.087 58.0975 317.747 58.0671 319.936 59.3137C321.7 60.3019 322.977 61.9894 322.795 64.0873C322.612 66.2765 321.077 68.2529 319.602 69.7731C318.143 71.2782 316.47 72.5096 314.646 73.5434C310.815 75.7174 306.573 76.888 302.362 78.0738C301.313 78.3779 300.249 78.6667 299.2 78.9708C298.09 79.3052 298.577 80.8255 299.671 80.6735C304.232 79.9894 308.747 78.8948 312.989 77.0856C317.139 75.3221 321.046 72.6769 323.615 68.9066C325.06 66.7782 325.987 64.0265 325.121 61.5029V61.4877Z" fill="#E3ACAC"/>
<path d="M0.384719 5.7825C1.50972 8.65581 3.85094 10.9058 6.4658 12.4717C7.78844 13.2622 9.20229 13.9007 10.6465 14.4632C11.9692 14.9801 13.5047 15.4666 14.9337 15.2842C18.4151 18.2943 22.1246 21.0612 25.9861 23.5545C25.9557 23.5545 25.9405 23.5545 25.9101 23.5393C24.253 23.1288 22.5351 22.9008 20.8324 22.9464C19.3577 22.992 17.7006 23.144 16.4084 23.9193C15.2074 24.6491 14.3408 25.9717 14.5232 27.416C14.7057 28.8298 15.7547 29.8484 16.8188 30.6693C17.9895 31.5815 19.2665 32.2808 20.6499 32.7977C23.508 33.8619 26.7158 33.9379 29.6195 33.0106C31.0486 32.5545 32.4016 31.8703 33.6482 31.0494C34.3628 30.5629 35.4118 29.97 35.6398 29.1187C39.6077 31.1254 43.7124 32.8737 47.9236 34.3332C46.9354 34.5004 45.9472 34.7589 45.0199 35.1085C42.4354 36.0967 39.8053 38.3315 40.0486 41.3872C40.2918 44.367 43.4844 46.1153 46.1905 46.3585C49.1702 46.617 52.3172 45.1271 54.5824 43.2876C55.7226 42.3602 56.6043 41.1896 57.2885 39.8974C57.6381 39.2285 57.9574 38.5139 58.2006 37.7994C58.2462 37.6474 58.307 37.4801 58.3374 37.3281C58.5199 37.3737 58.7023 37.4193 58.8847 37.4497C63.8256 38.5443 68.8121 39.2893 73.829 39.8062C73.7986 39.8062 73.7834 39.8366 73.753 39.8518C72.3695 40.7639 71.2445 41.9954 70.1652 43.2268C68.204 45.4464 65.802 48.1372 66.4405 51.3298C66.7293 52.7437 67.6263 54.0663 69.1162 54.34C70.606 54.6136 72.1263 54.1119 73.4489 53.4582C76.0942 52.1508 78.6635 50.2352 80.0317 47.5747C80.6854 46.3129 81.1567 44.9295 81.5216 43.546C81.7344 42.7859 81.9168 41.9954 81.9473 41.2048C81.9473 41.0072 81.9473 40.7487 81.9016 40.4751C86.0824 40.7487 90.2631 40.9312 94.4287 41.0984C97.6212 41.22 100.829 41.3416 104.022 41.4937C103.581 41.7673 103.14 42.0714 102.714 42.4058C101.194 43.5612 99.7496 44.7926 98.5182 46.2521C97.4236 47.5747 96.5267 48.9886 95.8729 50.5849C95.28 52.0595 94.824 53.747 95.052 55.3281C95.2952 56.9852 96.5419 58.0646 98.2142 58.171C99.7496 58.2622 101.376 57.6389 102.699 56.9092C105.587 55.2825 107.579 52.5004 108.856 49.4903C109.586 47.7876 110.042 46.0697 109.89 44.2149C109.829 43.5156 109.768 42.5426 109.434 41.7825C110.407 41.8433 111.38 41.9041 112.353 41.9649C117.932 42.345 123.557 42.8163 129.06 43.8349C129.425 43.8957 129.79 43.9717 130.155 44.0477C129.501 44.3214 128.848 44.6406 128.24 45.0055C126.4 46.0697 124.636 47.3467 123.01 48.7302C120.319 51.0258 118.145 54.1119 117.263 57.5629C116.837 59.2352 117.005 61.1964 118.753 62.0173C120.562 62.8687 122.584 62.1085 124.287 61.3788C125.929 60.6795 127.571 59.9498 128.969 58.8096C130.398 57.6389 131.447 55.997 132.496 54.492C133.591 52.9413 134.594 51.3146 135.263 49.5207C135.689 48.3653 136.16 46.8298 136.038 45.4616C138.425 46.1457 140.751 46.997 143.001 48.0156C145.16 49.0038 147.243 50.1744 149.174 51.5579C151.135 52.9717 152.944 54.492 154.738 56.1035C154.92 56.2707 155.224 56.0579 155.087 55.8298C154.495 54.8416 153.826 53.9751 153.035 53.1389C148.337 48.1525 141.983 45.2639 135.37 43.4244C135.157 43.2876 134.898 43.1964 134.625 43.1812C134.564 43.1812 134.518 43.1812 134.473 43.1812C132.025 42.5426 129.562 42.0258 127.145 41.6001C124.849 41.2048 122.538 40.8704 120.228 40.5967C120.288 40.3991 120.334 40.2166 120.334 40.0038C120.334 39.5021 120.228 38.97 120.106 38.4683C119.924 37.6778 119.665 36.9176 119.346 36.1727C118.707 34.6676 117.826 33.2994 116.777 32.0376C114.876 29.7572 112.307 27.9024 109.555 26.8078C107.944 26.1693 106.044 25.8957 104.599 27.0511C103.277 28.1153 102.866 29.818 103.14 31.4295C103.642 34.4852 106.165 37.0697 108.628 38.7268C109.145 39.0764 109.677 39.3805 110.224 39.6693C104.402 39.2589 98.5638 39.046 92.7412 38.7572C92.726 38.3467 92.6348 37.9514 92.5739 37.5562C92.4219 36.72 92.2395 35.8687 91.981 35.0629C91.4641 33.3906 90.6736 31.9616 89.503 30.6541C88.4844 29.5291 87.3442 28.4649 86.1736 27.5072C84.9878 26.5342 83.7108 25.6676 82.2361 25.1812C80.8375 24.7251 79.1956 24.7251 77.9185 25.5308C76.6263 26.3366 75.9422 27.7352 76.0942 29.2555C76.3527 31.9312 77.9641 34.546 79.7885 36.4464C80.3662 37.0545 81.0047 37.6018 81.6736 38.1035C77.1736 37.769 72.6736 37.3129 68.2192 36.6288C68.6297 35.2758 68.5993 33.8163 68.5233 32.4024C68.432 30.4413 68.1888 28.4193 67.6415 26.5342C66.7445 23.372 64.3577 21.046 61.5908 19.4041C60.253 18.6136 58.4743 17.8687 56.8932 18.2943C55.2817 18.7352 54.704 20.3619 54.628 21.867C54.476 25.0899 55.6466 28.4041 57.3797 31.0798C58.231 32.4024 59.2496 33.6187 60.3594 34.7133C60.557 34.9109 60.7699 35.1085 60.9827 35.3062C59.5993 35.0021 58.2158 34.6828 56.8324 34.3332C51.6635 32.9953 46.6314 31.2318 41.7665 29.0883C42.1314 28.3737 42.3138 27.4464 42.4202 26.8535C42.7091 25.2116 42.5874 23.4937 42.2378 21.8822C41.9185 20.4227 41.4168 19.0241 40.8239 17.6558C40.2766 16.394 39.5773 15.1778 38.5739 14.2048C36.7952 12.4869 33.2834 11.4075 32.0064 14.2808C31.4895 15.4666 31.4591 16.8957 31.5199 18.1727C31.5959 19.6474 31.8847 21.122 32.432 22.5055C32.8273 23.4937 33.3594 24.4058 33.9979 25.242C32.3256 24.3146 30.6685 23.3416 29.0418 22.323C24.7699 19.6322 20.6955 16.6372 16.8949 13.323C16.8797 13.3078 16.8645 13.2926 16.8493 13.2774C16.8188 13.1558 16.7884 13.0494 16.758 12.9278C16.606 12.4565 16.4692 11.9852 16.302 11.5139C16.0283 10.7386 15.6938 9.97845 15.329 9.24872C14.584 7.75885 13.6263 6.37541 12.5621 5.09838C10.7834 2.93959 8.21411 0.461553 5.26479 0.0662831C3.74452 -0.146555 1.981 0.172702 0.916813 1.35851C-0.192984 2.57473 -0.192984 4.32304 0.384719 5.7825Z" fill="#E3ACAC"/>
<path d="M129.221 18.4565C131.897 17.8332 134.223 19.8856 135.697 21.8771C135.697 21.3146 135.728 20.7521 135.743 20.2048C135.804 18.5933 135.956 16.9666 136.64 15.4768C137.339 13.9109 138.859 13.1204 140.532 13.5764C141.9 13.9565 143.025 14.9751 143.724 16.1913C145.26 18.867 144.773 22.4092 144.15 25.2825C143.968 26.1339 143.739 26.9852 143.451 27.8062C143.147 29.2656 142.614 30.6491 141.778 31.8653C141.763 31.8957 141.748 31.9413 141.733 31.9717C141.444 32.6558 141.018 33.2335 140.441 33.5224C140.091 34.0089 139.483 34.3129 138.799 34.1153C136.26 33.3704 133.812 32.2758 131.608 30.8315C129.51 29.4633 127.017 27.715 126.226 25.2065C125.451 22.7589 126.424 19.1102 129.206 18.4565H129.221Z" fill="#E3ACAC"/>
<path d="M154.422 24.9965C157.311 20.4205 161.735 17.0759 166.919 15.5405C168.074 15.206 169.26 14.9475 170.446 14.7803C170.598 14.6891 170.765 14.6283 170.932 14.5827C171.601 14.4002 172.316 14.3394 173 14.2482C174.262 14.0962 175.508 14.0658 176.77 14.2026C179.415 14.5067 181.939 15.1908 184.356 16.2854C184.767 16.4678 185.177 16.6655 185.588 16.8783C186.074 17.0911 186.561 17.3344 187.032 17.5928C187.214 17.684 187.351 17.8209 187.458 17.9729C190.802 20.1773 193.584 23.2482 195.333 26.8665C197.659 31.6857 198.358 37.1739 197.263 42.4188C196.686 45.2161 195.5 47.8462 193.995 50.2634C192.429 52.7871 190.635 55.2347 188.263 57.0438C183.839 60.4493 177.91 61.4982 172.437 61.3614C167.269 61.2398 161.841 59.8868 157.98 56.2685C155.851 54.277 154.483 51.6773 153.464 48.9712C152.415 46.1587 151.564 43.179 151.138 40.1992C150.378 34.9087 151.549 29.4813 154.407 24.9661L154.422 24.9965ZM155.167 43.9543C155.866 46.478 156.627 49.032 157.98 51.2972C160.412 55.3868 164.745 57.3327 169.306 58.0168C173.821 58.6857 179.157 58.3057 183.399 56.3597C185.74 55.2803 187.655 53.7297 189.252 51.6925C190.848 49.6553 192.338 47.3293 193.28 44.9273C194.998 40.5337 195.105 35.7144 193.721 31.2144C192.383 26.8665 189.571 23.0658 185.77 20.5877C185.147 20.1773 184.508 19.8124 183.855 19.478C182.167 18.8698 180.464 18.353 178.701 18.0337C176.269 17.5928 173.745 17.5168 171.297 17.7905C166.63 18.3225 162.252 20.4661 159.105 23.9323C156.095 27.2465 154.24 31.7009 154.042 36.1097C153.921 38.7854 154.468 41.3699 155.167 43.9391V43.9543Z" fill="#E3ACAC"/>
<path d="M54.909 61.4877C55.6539 59.2985 57.4478 57.5654 59.5306 56.638C62.0695 55.513 64.882 55.437 67.6184 55.589C70.4613 55.7562 73.3043 56.0907 76.132 56.5468C87.382 58.3255 98.1607 62.0958 108.939 65.6228C119.505 69.089 130.314 72.4488 141.458 73.3762C146.444 73.7867 151.537 73.7563 156.509 73.0417C161.434 72.3272 166.406 71.0198 170.966 69.013C172.107 68.5113 173.232 67.9488 174.326 67.3407C174.554 67.2191 174.722 67.5383 174.524 67.6752C170.526 70.4725 166.132 72.5856 161.419 73.8323C156.676 75.0941 151.705 75.7174 146.794 75.7326C136.061 75.7934 125.495 73.3306 115.264 70.2444C104.683 67.0519 94.284 63.2056 83.5053 60.6819C78.2147 59.4353 72.8178 58.5079 67.3752 58.2191C64.9428 58.0975 62.2823 58.0671 60.0931 59.3137C58.3296 60.3019 57.0526 61.9894 57.235 64.0873C57.4174 66.2765 58.9529 68.2529 60.4276 69.7731C61.887 71.2782 63.5593 72.5096 65.3836 73.5434C69.2147 75.7174 73.4563 76.888 77.6674 78.0738C78.7164 78.3779 79.7806 78.6667 80.8296 78.9708C81.9394 79.3052 81.4529 80.8255 80.3583 80.6735C75.7975 79.9894 71.2823 78.8948 67.0407 77.0856C62.8904 75.3221 58.9833 72.6769 56.414 68.9066C54.9698 66.7782 54.0424 64.0265 54.909 61.5029V61.4877Z" fill="#E3ACAC"/>
</g>
<defs>
<clipPath id="clip0_31_522">
<rect width="380.007" height="80.6504" fill="white"/>
</clipPath>
</defs>
</svg>
