<svg width="117" height="297" viewBox="0 0 117 297" fill="none" xmlns="http://www.w3.org/2000/svg">
<path opacity="0.2" d="M38.2107 0.404492C37.3044 1.27228 36.6689 2.55712 36.0518 3.71564C35.4347 4.87416 34.8568 6.07559 34.287 7.29455C32.3684 11.4543 30.7374 15.86 29.6857 20.435C29.1872 22.636 28.8031 24.8764 28.5713 27.1543C28.4521 28.3068 28.3787 29.475 28.3348 30.6239C28.3236 31.18 28.3205 31.7535 28.3469 32.3077C28.3546 32.5313 28.4614 33.01 28.441 33.2977C28.2878 33.6724 28.1427 34.0646 27.9975 34.4568C27.8891 34.5964 27.7954 34.7264 27.718 34.8914C27.5897 35.1125 27.5596 35.338 27.5968 35.5422C27.196 36.6277 26.8182 37.7209 26.4567 38.8493C24.3266 45.6621 22.7789 52.7338 21.7795 59.9493C21.3886 57.7819 20.8109 55.6684 20.2266 53.582C19.5044 50.9916 18.7379 48.4302 17.9042 45.8899C16.2026 40.6946 14.2352 35.6732 11.3016 31.3075C11.0715 30.9781 10.7604 30.9304 10.4931 31.0597C10.2885 31.0337 10.0721 31.1068 9.90612 31.3298C9.15154 32.4411 9.0496 33.8795 8.94615 35.2732C8.84779 36.595 8.85585 37.9385 8.94587 39.2512C9.32884 44.5099 10.8706 49.4441 12.6042 54.2527C13.5296 56.8244 14.4041 59.4523 15.9348 61.6276C16.6169 62.5983 17.4157 63.4469 18.2571 64.2218C19.0528 64.981 19.8841 65.8997 20.8891 66.1561C20.913 66.4148 20.9451 66.691 20.969 66.9496C20.4228 73.0682 20.2711 79.2485 20.4947 85.366C19.0389 81.4042 17.2339 77.6025 15.0989 74.0855C12.6346 69.9839 9.72793 65.9664 6.34565 62.8317C6.40524 62.587 6.45668 62.3247 6.44754 62.0563C6.45369 61.5722 6.32238 61.041 6.08924 60.6221C5.95493 59.3384 5.08646 58.2154 4.06064 57.7898C1.9255 56.9248 0.0431445 59.7119 0.0012291 62.0255C-0.0570236 64.9669 2.72414 66.1862 4.7072 65.0248C4.84009 64.9378 4.97296 64.8508 5.09108 64.7735C6.5465 66.2894 7.98056 67.8422 9.30615 69.5345C12.7851 73.9547 15.6515 79.0045 17.9044 84.4332C19.0553 87.2002 20.0356 90.0559 20.8225 92.9926C20.8907 93.2223 20.9523 93.4792 21.0057 93.7185C21.6721 100.872 22.8925 107.891 24.5817 114.718C24.065 113.73 23.504 112.772 22.9283 111.823C21.3788 109.317 19.5762 107.137 17.547 105.173C15.58 103.261 13.4765 101.552 11.3597 99.8979C9.2119 98.2181 7.10025 96.4918 4.88982 94.9673C4.04779 94.3985 3.07685 95.583 3.49222 96.4769C3.52265 98.0344 4.15891 99.6523 4.65163 101.044C5.1703 102.533 5.77908 104.009 6.47493 105.383C8.96003 110.316 12.3708 114.507 16.1089 118.117C17.9812 119.909 19.9178 121.59 21.897 123.197C22.8908 124.009 23.914 124.802 24.9291 125.578C25.4718 126 26.0063 126.404 26.5638 126.816C27.0673 127.195 27.5662 127.44 28.119 127.718C28.2646 127.783 28.3939 127.813 28.5217 127.797C30.3104 132.89 32.3892 137.861 34.7124 142.695C36.4019 146.207 38.2013 149.624 40.0893 152.982C38.636 151.305 37.1464 149.674 35.6289 148.108C33.1737 145.6 30.5886 143.27 27.9047 141.141C26.0349 139.645 24.109 138.277 22.0992 137.101C22.0921 136.671 22.0244 136.236 21.8371 135.833C21.7953 135.494 21.7389 135.165 21.6299 134.848C21.0222 132.96 19.3448 131.795 17.6438 132.154C15.9953 132.502 14.8181 134.279 14.8246 136.241C14.8443 138.148 15.8726 140.195 17.4681 140.728C18.7657 141.159 20.2819 140.692 21.2167 139.554C23.4582 141.103 25.7078 142.671 27.8424 144.405C33.1755 148.754 38.007 153.889 42.5479 159.351C44.9089 162.194 47.1829 165.14 49.4207 168.132C51.7196 171.588 54.0694 174.987 56.4635 178.357C52.6454 175.279 48.4026 173.028 44.0046 171.313C41.1903 170.23 38.3002 169.356 35.4146 168.617C32.6354 167.899 29.8186 167.183 26.9763 166.827C26.118 166.223 24.5743 167.211 25.0049 168.552C26.256 172.488 29.2015 175.429 31.9072 177.978C36.5637 182.404 41.8505 185.617 47.6374 187.337C50.5881 188.217 53.6 188.897 56.6357 189.172C58.1045 189.308 59.5835 189.299 61.0319 189.059C61.7299 188.945 62.4803 188.82 63.1264 188.511C63.297 188.422 63.4512 188.298 63.5826 188.166C64.7936 189.82 66.0113 191.445 67.2142 193.081C70.2518 197.173 73.2745 201.274 76.2612 205.423C72.1646 202.367 67.5069 200.342 62.9154 198.708C59.9897 197.675 57.0028 196.842 53.9711 196.244C52.4815 195.939 50.9786 195.688 49.4854 195.5C49.1743 195.452 48.8485 195.414 48.5374 195.367C48.4051 195.248 48.2809 195.146 48.1271 195.064C48.1108 195.029 48.0864 194.976 48.0701 194.941C46.993 192.126 43.0506 191.598 41.7379 194.493C41.051 196.04 41.5493 197.817 42.5256 199.006C43.4155 200.092 44.5843 200.95 45.9019 200.636C47.0245 200.358 48.4633 199.393 48.9237 198.063C49.166 198.087 49.4083 198.111 49.644 198.163C51.2518 198.39 52.861 198.662 54.4652 199.006C60.2058 200.254 65.9545 202.181 71.2913 205.088C73.9212 206.52 76.4524 208.155 78.7712 210.203C79.9543 211.257 81.0585 212.431 82.0904 213.699C85.4338 218.573 88.6821 223.533 91.7465 228.636C91.3642 228.269 90.9753 227.93 90.5716 227.6C86.7586 224.45 82.275 223.545 77.7235 223.531C75.4667 223.523 73.2027 223.748 70.9727 224.088C69.8389 224.259 68.7148 224.492 67.5759 224.735C66.4223 224.988 65.3129 225.211 64.2875 225.905C63.6231 226.34 63.8103 227.407 64.4386 227.681C65.978 229.668 68.1064 231.223 70.1112 232.471C77.7526 237.228 86.9872 237.582 95.293 235.481C95.4126 235.449 95.5241 235.398 95.6046 235.323C96.9235 237.705 98.1915 240.144 99.4152 242.612C101.126 246.087 102.758 249.682 104.272 253.354C103.063 251.997 101.761 250.769 100.359 249.698C97.3835 247.44 94.0642 245.933 90.6339 244.933C90.522 243.863 90.0003 242.948 89.1598 242.424C88.1034 241.767 86.9014 241.708 86.0094 242.772C84.3256 244.743 84.977 248.135 87.2038 249.031C88.1757 249.423 89.2998 249.19 90.0243 248.304C90.3069 247.959 90.5243 247.474 90.5977 246.969C93.5397 248.037 96.3993 249.342 99.0379 251.249C101.994 253.383 104.654 256.167 106.647 259.503C110.908 271.366 113.678 284 113.792 296.843C113.796 296.977 113.955 296.987 113.965 296.843C114.007 294.53 113.988 292.21 113.886 289.877C113.448 280.562 112.025 271.366 109.43 262.55C108.961 260.959 108.462 259.389 107.949 257.827C108.904 256.859 109.52 255.655 110.124 254.345C110.686 253.109 111.24 251.855 111.747 250.585C113.621 245.997 115.156 241.22 116.027 236.215C116.469 233.685 116.736 231.11 116.799 228.508C116.842 227.109 116.817 225.73 116.785 224.334C116.744 222.92 116.797 221.377 116.501 219.993C116.32 219.106 115.642 218.933 115.117 219.253C113.985 219.469 112.917 220.694 112.176 221.545C111.255 222.628 110.421 223.86 109.68 225.123C107.033 229.622 105.435 235.012 104.911 240.431C104.63 243.267 104.606 246.117 104.801 248.939C104.813 249.09 104.818 249.224 104.831 249.376C103.141 245.202 101.281 241.116 99.2669 237.154C99.1611 236.926 99.0323 236.69 98.9117 236.472C98.7605 236.022 98.6093 235.573 98.4647 235.096C97.9206 233.303 97.5471 231.422 97.2637 229.527C96.3665 223.576 96.0793 217.363 96.4779 211.341C96.6721 208.402 97.0414 205.509 97.6612 202.657C97.9281 201.408 98.257 200.209 98.6237 199.009C98.7678 199.029 98.9118 199.049 99.0625 199.042C100.646 199.01 102.058 197.697 102.335 195.847C102.378 195.567 102.39 195.262 102.373 194.976C102.433 192.742 100.95 191.085 99.089 191.183C97.2512 191.289 95.6408 192.755 95.6055 195.041C95.5809 196.315 96.1251 197.444 96.9274 198.176C96.412 199.886 96.0423 201.659 95.7235 203.377C94.5943 209.443 94.3999 215.697 94.8068 221.877C95.0056 224.833 95.3042 227.838 95.8259 230.743C91.3896 222.812 86.4691 215.289 81.3663 207.955C82.4452 206.837 83.181 205.395 83.8383 203.867C84.5731 202.174 85.2228 200.423 85.8807 198.689C87.0432 195.596 88.1126 192.427 88.7009 189.093C89.2693 185.84 89.4579 182.516 89.3451 179.206C89.2308 175.852 88.9118 172.472 88.3241 169.176C88.0157 167.435 87.6024 165.716 87.0629 164.058C86.5167 162.427 85.8743 160.63 84.7982 159.391C84.225 158.738 83.4755 159.114 83.2576 159.806C81.2072 162.314 80.0253 165.946 79.0491 169.191C77.2286 175.344 76.4584 181.975 76.2649 188.48C76.1725 191.97 76.2848 195.485 76.8313 198.9C77.041 200.18 77.2883 201.458 77.6324 202.696C75.4536 199.665 73.2683 196.661 71.06 193.649C70.5499 192.634 70.0842 191.59 69.6693 190.49C68.5648 187.533 67.8685 184.377 67.241 181.244C66.6507 178.316 66.1342 175.339 65.7536 172.365C65.1481 167.664 64.9488 162.925 64.9838 158.193C66.4882 157.825 67.6339 156.229 67.6075 154.349C67.6081 154.142 67.5857 153.929 67.5485 153.724C67.4335 152.565 66.8894 151.435 66.2103 150.554C65.0578 149.068 63.2306 148.825 61.9104 150.169C59.9054 152.237 60.684 156.482 62.8654 157.82C62.6942 160.103 62.6818 162.398 62.7758 164.714C63.0661 171.016 63.9886 177.27 65.3358 183.361C65.6127 184.62 65.9353 185.894 66.2794 187.132C59.4962 177.88 52.7543 168.51 46.6804 158.588C48.5174 156.242 50.1437 153.691 51.5215 150.937C54.0995 145.751 55.7667 139.973 56.4158 133.993C56.7311 131.066 56.8026 128.07 56.6038 125.114C56.4034 122.113 56.0427 119.057 55.1244 116.252C54.9066 115.618 54.3858 115.616 54.0115 115.93C53.8542 115.964 53.6903 116.026 53.5442 116.167C52.3294 117.283 51.4378 118.804 50.5366 120.263C49.6501 121.712 48.8258 123.212 48.0635 124.763C45.375 130.249 43.5907 136.356 43.0129 142.655C42.7265 145.769 42.7971 148.946 43.197 152.045C43.2291 152.321 43.2693 152.615 43.3161 152.881C40.3957 147.798 37.6805 142.535 35.2229 137.08C34.8804 135.887 34.5755 134.692 34.315 133.468C33.6193 130.106 33.199 126.632 33.4731 123.161C33.7254 119.932 34.6145 116.789 35.6752 113.809C36.7491 110.774 38.0129 107.774 39.5104 104.988C40.2559 103.608 41.0486 102.289 41.9264 101.028C41.9264 101.028 41.956 101.009 41.9626 100.982C42.8698 101.691 44.0188 101.967 45.1205 101.52C46.319 101.032 47.2411 99.7426 47.2646 98.2184C47.2682 98.1017 47.257 97.9947 47.2606 97.8781C47.3171 97.5439 47.3426 97.1843 47.3156 96.8362C47.2231 95.2279 46.375 93.8172 45.1023 93.2333C42.8251 92.1869 40.3355 94.2058 40.2217 97.0693C40.1972 97.6797 40.2924 98.2575 40.4695 98.8045C39.132 100.526 38.0149 102.515 37.0469 104.452C35.5143 107.536 34.2301 110.823 33.1587 114.154C32.0939 117.457 31.3432 120.898 31.3129 124.438C31.297 125.523 31.3417 126.614 31.4389 127.693C27.2233 116.051 24.5244 103.736 23.5576 91.0873C24.2367 90.6426 24.8803 90.0383 25.476 89.5796C26.6002 88.6835 27.7243 87.7873 28.8403 86.8736C32.7745 83.6116 36.5391 80.0262 39.6276 75.6491C41.0889 73.572 42.4326 71.3662 43.6063 69.0431C44.1791 67.9136 44.698 66.7508 45.1858 65.5627C45.6456 64.4386 46.3253 63.1247 46.2893 61.8453C46.2801 61.5769 46.189 61.3394 46.0551 61.1756C45.9238 60.6444 45.4188 60.2206 44.817 60.5004C42.0785 61.8593 39.4585 63.5979 36.9886 65.5352C34.806 67.2617 32.775 69.2317 31.051 71.5723C29.3845 73.8295 27.914 76.3012 26.5433 78.8219C25.3717 80.9836 24.1772 83.1375 23.2377 85.4672C23.2204 85.1814 23.2179 84.8858 23.2088 84.6175C22.9868 77.2187 23.33 69.7928 24.2576 62.4643C27.049 55.7899 32.174 51.1537 37.0191 46.4951C38.0728 47.5196 39.5844 47.5814 40.7279 46.8097C41.3032 46.6387 41.8495 46.281 42.2782 45.7945C43.6335 44.1526 43.1664 41.7381 41.7827 40.3352C40.337 38.8815 38.3636 38.7792 37.0246 40.4562C36.1341 41.5651 35.7058 43.1715 36.0117 44.6172C34.7378 45.7714 33.4573 46.9528 32.2389 48.185C29.597 50.8295 27.0757 53.6921 25.069 57.0407C26.3393 49.5793 28.2821 42.3633 30.4376 35.1908C30.9941 34.6892 31.5099 34.1 31.932 33.6407C32.878 32.6098 33.7211 31.4404 34.4874 30.2299C35.9065 28.0205 37.015 25.5572 37.9779 23.0292C38.9062 20.5924 39.7494 18.0971 40.3407 15.5152C40.9253 12.9606 41.3104 10.3081 41.3335 7.66394C41.3484 6.32828 41.265 4.98837 41.0833 3.64423C40.9836 2.93227 40.8299 2.18706 40.5138 1.5482C40.2776 1.0399 39.9884 0.749168 39.6255 0.506777C39.3353 -0.0347705 38.6282 -0.188957 38.1307 0.273942L38.2107 0.404492ZM106.963 248.62C106.73 243.309 107.233 237.927 108.798 232.924C109.554 230.532 110.571 228.243 111.821 226.167C112.449 225.116 113.162 224.123 113.908 223.2C114.104 222.958 114.314 222.706 114.524 222.454C114.576 223.311 114.643 224.159 114.679 224.982C114.714 226.467 114.735 227.962 114.672 229.444C114.489 234.273 113.533 238.969 112.155 243.505C111.463 245.787 110.671 248.021 109.78 250.205C109.341 251.292 108.886 252.344 108.417 253.406C108.172 253.955 107.913 254.559 107.653 255.118C107.596 254.332 107.426 253.552 107.368 252.972C107.175 251.521 107.043 250.076 106.978 248.61L106.963 248.62ZM90.4584 230.257C91.3671 231.011 92.2249 231.821 93.0974 232.621C93.4405 232.945 93.7852 233.314 94.1446 233.673C92.0862 234.175 89.9922 234.517 87.8906 234.636C83.7627 234.87 79.7027 234.214 75.7658 232.746C73.8776 232.039 72.0276 231.124 70.2697 230.035C69.0744 229.286 67.958 228.417 66.8563 227.538C67.3955 227.414 67.9265 227.272 68.4738 227.165C69.6799 226.901 70.8794 226.664 72.0885 226.489C76.2337 225.878 80.666 225.719 84.7459 226.957C86.8505 227.59 88.6883 228.81 90.4665 230.275L90.4584 230.257ZM79.649 202.518C79.2408 200.728 78.9375 198.915 78.7391 197.079C78.0869 190.785 78.4738 184.199 79.4543 177.979C79.9254 174.973 80.5717 172.012 81.4781 169.155C82.193 166.881 83.2155 164.771 84.1234 162.622C84.5891 163.666 85.0468 164.692 85.3649 165.833C85.8794 167.645 86.2301 169.518 86.4825 171.388C87.3205 177.377 87.5369 183.728 86.2296 189.659C85.5487 192.711 84.4865 195.647 83.3688 198.505C82.828 199.911 82.302 201.307 81.6991 202.662C81.3004 203.586 80.8167 204.451 80.333 205.317C80.2923 205.229 80.2811 205.122 80.2551 205.025C80.0231 204.194 79.8434 203.351 79.6408 202.501L79.649 202.518ZM58.7526 183.077C59.9306 184.203 61.0444 185.439 62.2076 186.575C62.2468 186.618 62.3089 186.669 62.3481 186.712C61.67 186.744 60.9985 186.75 60.327 186.755C58.8022 186.747 57.2647 186.588 55.7471 186.348C50.2004 185.476 44.5576 183.776 39.6408 180.572C37.3174 179.053 35.0978 177.26 33.0885 175.215C31.4239 173.539 29.6645 171.742 28.4352 169.552C30.9328 170.203 33.4539 170.655 35.9449 171.333C41.4212 172.799 46.8212 174.681 51.8235 177.738C54.2747 179.242 56.6287 180.992 58.7673 183.067L58.7526 183.077ZM45.6364 155.637C45.354 153.993 45.1469 152.345 45.0447 150.675C44.6668 144.681 45.465 138.649 47.2514 133.044C48.1446 130.242 49.2979 127.543 50.6146 124.989C51.273 123.712 51.9853 122.469 52.7221 121.278C53.1447 120.612 53.5755 119.964 53.9833 119.309C54.3441 121.701 54.682 124.086 54.751 126.556C55.0756 137.408 51.786 148.066 45.6827 156.109C45.6471 155.95 45.6343 155.798 45.5987 155.638L45.6364 155.637ZM26.3263 122.948C26.367 123.036 26.4159 123.141 26.4566 123.229C26.2784 123.094 26.1002 122.959 25.9221 122.824C24.8367 121.981 23.7595 121.154 22.6955 120.274C18.8841 117.169 15.2503 113.741 12.1899 109.642C10.6866 107.608 9.35241 105.442 8.22338 103.095C7.6777 101.92 7.16969 100.744 6.73551 99.5196L6.71922 99.4846C8.02348 100.551 9.39342 101.551 10.7191 102.581C14.9755 105.897 18.9854 109.512 21.9338 114.531C23.5205 117.242 24.9168 120.122 26.3197 122.976L26.3263 122.948ZM25.2747 85.6651C26.3516 83.3825 27.6296 81.2425 28.8536 79.0693C30.2208 76.6653 31.65 74.312 33.3603 72.2319C35.0771 70.1246 37.0404 68.3818 39.139 66.8475C40.6338 65.7544 42.1791 64.8111 43.7146 63.8056C43.5481 64.2347 43.3882 64.6366 43.2202 65.0209C42.6371 66.2943 42.0083 67.5519 41.355 68.757C39.0118 73.0804 36.1015 76.9294 32.8109 80.2501C31.0375 82.0286 29.1613 83.6686 27.2526 85.2386C26.3351 85.9994 25.4324 86.7505 24.4986 87.4763C24.7344 86.8647 25.0012 86.2785 25.2828 85.6826L25.2747 85.6651ZM20.3278 62.0886C20.3731 62.3104 20.4037 62.5419 20.4408 62.7462C20.06 62.424 19.6645 62.1115 19.359 61.7857C18.5063 60.9038 17.6964 59.9482 17.0769 58.8222C15.9178 56.7008 15.1411 54.2832 14.315 51.9665C13.497 49.6674 12.7463 47.3472 12.1742 44.9556C11.6622 42.7762 11.2846 40.5545 11.1692 38.2754C11.1097 37.1941 11.0961 36.1286 11.1577 35.0595C11.1613 34.9428 11.1649 34.8262 11.1914 34.7174C12.13 36.5717 13.003 38.4919 13.8088 40.4332C15.7507 45.1512 17.2563 50.132 18.6636 55.1085C19.3079 57.407 19.8851 59.7267 20.3278 62.0886ZM38.832 4.02113C38.9124 4.60859 38.9551 5.19786 39.0045 5.75993C39.0863 7.05511 39.0781 8.36357 38.9864 9.65813C38.65 14.4048 37.2379 19.033 35.4878 23.2652C34.5468 25.5503 33.4536 27.7978 32.1252 29.7879C31.7092 30.4261 31.254 31.0213 30.7759 31.6087C30.8101 30.3976 30.8672 29.1942 30.9849 27.997C31.4094 23.3984 32.5541 18.8995 34.0701 14.6606C34.8767 12.4179 35.8059 10.232 36.8202 8.10467C37.334 7.01383 37.8641 5.95804 38.4007 4.87506C38.5489 4.57229 38.6905 4.2967 38.8386 3.99393L38.832 4.02113Z" fill="#E3ACAC"/>
</svg>
