<svg width="202" height="202" viewBox="0 0 202 202" fill="none" xmlns="http://www.w3.org/2000/svg">
<g clip-path="url(#clip0_31_368)">
<path d="M28.3203 200.98C29.0003 200.14 29.1303 198.96 29.2403 197.92C29.3603 196.81 29.3403 195.68 29.3303 194.56C29.3103 193.31 29.2403 192.06 28.9703 190.83C28.8403 190.23 28.6403 189.67 28.4003 189.1C28.2803 188.82 28.1603 188.56 28.0103 188.32C28.0103 188.32 28.0103 188.32 28.0103 188.31C28.3203 187.36 28.5303 186.39 28.6603 185.42C28.8203 185.95 29.0103 186.48 29.2103 187C29.5703 187.91 29.9903 188.79 30.5103 189.62C31.0203 190.44 31.6103 191.25 32.4003 191.81C33.1403 192.34 34.2303 192.62 34.9903 191.98C35.7503 191.34 35.6703 190.24 35.5003 189.36C35.1403 187.55 34.1303 185.78 32.9803 184.36C32.3603 183.59 31.6403 182.9 30.8703 182.29C30.4903 181.99 30.0903 181.72 29.6703 181.48C29.3603 181.3 29.0603 181.17 28.7403 181.05C28.7403 181.03 28.7303 181.01 28.7203 181C28.3603 177.21 27.0503 173.45 25.5303 170.07C25.1403 169.2 24.7303 168.35 24.3103 167.5C24.9303 167.99 25.5903 168.41 26.2103 168.82C27.7103 169.8 29.4103 170.96 31.2503 171.1C32.0903 171.16 33.2103 170.99 33.5603 170.11C33.9003 169.28 33.5003 168.37 32.9503 167.74C32.3803 167.09 31.5803 166.59 30.8503 166.13C30.1003 165.66 29.3103 165.25 28.4803 164.91C27.5103 164.52 26.4903 164.22 25.4603 164.08C24.9103 164.01 24.3603 163.98 23.8103 163.98C23.5403 163.98 23.2603 164 23.0003 164.07C22.8803 164.1 22.7603 164.15 22.6403 164.2C20.7003 160.45 18.7403 156.72 17.3903 152.69C16.8703 151.14 16.4303 149.57 16.0603 147.99C16.1403 148.08 16.2203 148.16 16.3003 148.25C17.0903 149.07 17.9403 149.83 18.8103 150.56C20.5703 152.04 22.5603 153.49 24.7803 154.2C25.7903 154.52 27.4203 154.82 28.1103 153.76C28.7003 152.85 28.2603 151.6 27.7503 150.77C26.6303 148.91 24.5403 147.65 22.6103 146.76C21.4303 146.22 20.1903 145.81 18.9203 145.54C17.8203 145.31 16.6203 145.14 15.4803 145.19C14.4003 139.23 14.3003 133.09 15.1803 127.09C15.6203 128.55 16.1503 129.98 16.8003 131.35C17.6403 133.13 18.7703 135.03 20.3903 136.22C21.2003 136.82 22.3103 137.25 23.2803 136.74C24.2203 136.24 24.3203 135.18 24.0903 134.25C23.6003 132.24 22.4003 130.43 21.0203 128.92C20.2203 128.05 19.3503 127.25 18.4403 126.5C18.0003 126.14 17.5403 125.79 17.0603 125.48C16.8003 125.31 16.5403 125.16 16.2703 125.03C16.0303 124.91 15.8003 124.89 15.5503 124.85C15.9903 122.48 16.5903 120.14 17.3503 117.84C18.8203 113.34 20.9803 109.21 23.3903 105.19C23.1703 107.84 23.1203 110.51 23.4203 113.15C23.5903 114.68 23.8803 116.19 24.3203 117.66C24.7503 119.1 25.2803 120.58 26.1103 121.84C26.9203 123.07 28.1903 124.36 29.7803 123.63C31.1703 122.99 31.6203 121.21 31.8503 119.84C32.3503 116.77 31.6403 113.65 30.3703 110.85C29.7103 109.39 28.8903 107.98 27.9103 106.7C27.4103 106.05 26.8903 105.42 26.3303 104.82C26.0503 104.52 25.7503 104.23 25.4403 103.96C25.1603 103.72 24.8503 103.53 24.5503 103.31C24.7503 102.98 24.9603 102.66 25.1603 102.33C27.4503 98.7001 29.8303 95.0801 31.7203 91.2201C31.7203 91.2501 31.7203 91.2801 31.7203 91.3001C31.7003 92.8501 31.8103 94.4001 32.0603 95.9301C32.5203 98.7001 33.5603 101.38 35.2903 103.6C36.0903 104.63 37.2403 105.97 38.7103 105.6C40.1103 105.24 40.6203 103.61 40.7703 102.35C40.9503 100.85 40.6803 99.2801 40.2803 97.8301C39.9103 96.4901 39.3903 95.1801 38.7903 93.9301C38.1303 92.5601 37.3303 91.2801 36.4103 90.0701C35.9603 89.4801 35.4903 88.8901 34.9703 88.3501C34.7003 88.0701 34.4203 87.8001 34.1403 87.5401C33.9503 87.3601 33.7203 87.2301 33.4903 87.1001C34.4803 84.3801 35.0703 81.5901 35.2303 78.7601C35.3103 78.6001 35.3203 78.3901 35.2603 78.2101C35.3403 76.0701 35.1803 73.9201 34.7603 71.7701C34.6303 71.0801 34.4703 70.3901 34.3003 69.7101C34.8303 70.4501 35.3803 71.1601 35.9703 71.8501C37.7903 73.9901 40.1003 76.0101 43.0203 76.2701C44.3603 76.3901 45.7603 76.0801 46.4103 74.7801C46.9803 73.6501 46.9003 72.3101 46.4403 71.1601C45.4203 68.6401 43.0803 66.8301 40.7303 65.6101C39.3603 64.8901 37.9103 64.2601 36.4303 63.8301C35.6203 63.5901 34.8003 63.4201 33.9603 63.3701C33.5603 63.3501 33.1603 63.3601 32.7703 63.4001C32.5903 63.4201 32.4103 63.4601 32.2403 63.5001C31.3303 61.2301 30.3103 59.0001 29.2803 56.8001C27.1003 52.1201 24.8203 47.4301 23.4303 42.4501C23.6003 42.6501 23.7803 42.8601 23.9603 43.0501C24.9003 44.0701 25.9803 44.9601 27.1103 45.7601C28.2503 46.5701 29.4803 47.2601 30.7503 47.8501C32.1503 48.5001 33.6303 49.1501 35.1803 49.3001C36.6303 49.4501 38.1803 48.9601 39.0303 47.7201C39.8603 46.5201 39.7503 44.8701 39.2303 43.5701C38.1003 40.7601 35.2803 38.9501 32.5203 38.0101C30.7203 37.3901 28.7903 37.1801 26.8903 37.2301C25.4803 37.2701 23.8203 37.3601 22.4803 37.9901C21.9103 34.0801 22.1003 30.0201 23.9503 26.4801C24.5803 25.2701 25.4003 24.2601 26.5003 23.4501C26.5703 23.4001 26.5003 23.2701 26.4303 23.3201C24.4703 24.6001 22.9703 26.3801 22.0903 28.5501C21.1403 30.8901 20.8203 33.4701 20.9303 35.9701C21.1303 40.4601 22.5003 44.8101 24.1803 48.9601C24.1703 48.9601 24.1503 48.9601 24.1403 48.9601C23.7903 49.0301 23.6203 49.1401 23.3503 49.3601C23.1003 49.5701 22.8503 49.7801 22.6303 50.0301C22.1703 50.5401 21.7503 51.0801 21.3703 51.6501C20.6403 52.7501 20.0503 53.9401 19.6303 55.1901C18.7303 57.8301 18.6803 60.8601 19.6303 63.4901C20.0503 64.6401 20.6703 65.9201 21.8503 66.4601C23.1303 67.0501 24.5903 66.5301 25.4503 65.4701C26.2303 64.5001 26.5603 63.2901 26.7803 62.0901C27.0303 60.7401 27.1803 59.3601 27.1903 57.9901C27.1903 57.1901 27.1703 56.3901 27.0903 55.5901C30.3603 62.6501 33.8303 69.9401 33.7303 77.6701C31.0503 77.5501 28.3503 77.8701 25.7803 78.6001C23.1403 79.3501 20.2203 80.4801 18.6903 82.9201C17.9903 84.0401 17.5303 85.6501 17.9703 86.9501C18.4503 88.3501 19.8703 88.9101 21.2303 89.0001C22.7203 89.1001 24.2803 88.7001 25.6503 88.1601C27.0003 87.6201 28.2403 86.9001 29.3803 85.9901C30.5803 85.0301 31.6403 83.8301 32.5003 82.5601C32.8303 82.0701 33.1603 81.5601 33.4503 81.0301C33.3803 81.4601 33.3003 81.9001 33.2103 82.3401C32.1003 87.5801 29.4803 92.3101 26.6903 96.8301C26.4303 96.7801 26.1803 96.6901 25.9003 96.6701C25.5403 96.6401 25.1803 96.6001 24.8203 96.5701C24.1303 96.5001 23.4303 96.4601 22.7303 96.4201C21.3603 96.3401 19.9803 96.3301 18.6203 96.5001C17.2803 96.6701 15.9603 96.9501 14.6803 97.3701C13.5503 97.7401 12.4403 98.2201 11.5203 98.9901C10.6103 99.7501 9.89031 100.91 10.0503 102.13C10.2203 103.42 11.2003 104.14 12.4403 104.27C13.7603 104.41 15.1203 104.11 16.3803 103.73C17.7003 103.33 18.9703 102.81 20.2403 102.28C21.6603 101.69 23.1903 101.06 24.5503 100.23C22.0003 104.25 19.4403 108.27 17.5503 112.65C17.2903 113.24 17.0503 113.84 16.8103 114.45C15.6603 114.15 14.3403 114.23 13.1903 114.32C11.8203 114.43 10.4603 114.64 9.14031 115.02C6.84031 115.68 4.61031 116.86 2.96031 118.62C2.12031 119.51 1.28031 120.8 1.63031 122.08C1.96031 123.3 3.28031 123.72 4.41031 123.8C5.75031 123.89 7.10031 123.51 8.35031 123.08C9.58031 122.66 10.7703 122.13 11.9103 121.5C13.0903 120.84 14.2403 120.06 15.2203 119.12C13.8703 123.72 13.1103 128.49 12.9503 133.28C12.0303 133.4 11.2103 134.14 10.4803 134.66C9.64031 135.27 8.84031 135.93 8.11031 136.67C6.63031 138.17 5.50031 140.04 5.31031 142.17C5.22031 143.18 5.34031 144.34 5.99031 145.16C6.61031 145.93 7.70031 146.23 8.57031 145.71C9.40031 145.22 10.0803 144.4 10.6603 143.65C11.2803 142.84 11.7903 141.97 12.2003 141.04C12.5203 140.31 12.7903 139.56 13.0103 138.8C13.1903 141.74 13.5903 144.67 14.2103 147.55C14.6203 149.46 15.1603 151.31 15.7803 153.13C15.3203 153.26 15.0303 153.49 14.7303 153.89C14.4403 154.28 14.2303 154.71 14.0403 155.16C13.5903 156.22 13.2803 157.35 13.0503 158.48C12.6003 160.74 12.4203 163.16 12.7803 165.45C12.9403 166.47 13.2703 167.51 13.8803 168.36C14.2003 168.8 14.6403 169.22 15.2103 169.23C15.7903 169.23 16.1903 168.82 16.4903 168.37C17.1103 167.42 17.2303 166.18 17.3503 165.09C17.4803 163.88 17.5003 162.66 17.4603 161.44C17.4103 160.07 17.3003 158.7 17.1603 157.34C17.1403 157.1 17.1103 156.85 17.0903 156.61C18.2303 159.37 19.5503 162.07 20.9503 164.76C22.2403 167.23 23.5503 169.75 24.6203 172.36C23.8603 172.93 23.2603 173.79 22.7403 174.57C22.2003 175.38 21.7203 176.23 21.3303 177.12C20.4903 179.06 20.0103 181.2 20.4603 183.31C20.6703 184.27 21.0803 185.4 21.8903 186.01C22.7403 186.65 23.8203 186.5 24.5103 185.7C25.1403 184.96 25.3603 183.94 25.5803 183.01C25.8303 181.97 26.0103 180.91 26.1403 179.85C26.2303 179.07 26.2903 178.28 26.3203 177.5C26.7703 179.34 27.0303 181.23 27.0303 183.17C27.0303 184.76 26.8203 186.34 26.4703 187.89C26.4203 188.12 26.4503 188.31 26.5403 188.47C26.4703 188.55 26.4003 188.64 26.3303 188.72C26.1703 188.93 26.0003 189.14 25.8503 189.35C25.5303 189.78 25.2403 190.23 24.9803 190.69C24.4803 191.57 24.0903 192.52 23.8603 193.5C23.6403 194.42 23.5203 195.38 23.5003 196.32C23.4803 197.26 23.7403 198.24 24.1003 199.1C24.4603 199.96 24.9603 200.95 25.7703 201.47C26.6303 202.02 27.7103 201.75 28.3403 200.98H28.3203ZM23.6603 40.8601C23.4503 40.5901 23.2503 40.3101 23.0603 40.0301C22.9603 39.8801 22.8403 39.7401 22.7203 39.6101C22.6903 39.4501 22.6603 39.2801 22.6303 39.1201C23.1003 38.9801 23.5803 38.8501 24.0803 38.7701C24.7703 38.6501 25.4703 38.6101 26.1703 38.5901C27.7003 38.5301 29.2603 38.5901 30.7503 38.9301C33.2603 39.5001 35.9703 40.8301 37.4403 43.0301C38.1003 44.0201 38.5603 45.2901 38.2103 46.4701C37.8603 47.6601 36.6403 48.1401 35.4903 48.1001C34.1403 48.0601 32.7803 47.4501 31.5703 46.9001C30.4203 46.3801 29.3003 45.7701 28.2503 45.0701C27.0803 44.3001 26.0103 43.4101 25.0303 42.4101C24.5503 41.9201 24.0903 41.4101 23.6703 40.8601H23.6603ZM25.7203 56.5301C25.7903 57.7601 25.7403 58.9901 25.6103 60.2101C25.4903 61.3201 25.3303 62.4701 24.9603 63.5201C24.6503 64.3901 23.9703 65.4301 22.9203 65.4101C21.9403 65.3901 21.3603 64.2701 21.0303 63.4801C20.0803 61.1801 20.0303 58.5801 20.6903 56.2001C21.0403 54.9301 21.5703 53.7401 22.2603 52.6201C22.6003 52.0701 22.9703 51.5201 23.3603 51.0001C23.5703 50.7301 23.7603 50.4401 23.9603 50.1601C24.0103 50.0901 24.0703 50.0101 24.1203 49.9401C24.5003 50.9501 24.9103 51.9401 25.1803 52.9901C25.4703 54.1501 25.6503 55.3401 25.7103 56.5401L25.7203 56.5301ZM32.5603 64.4101C32.8803 64.4401 33.2103 64.4801 33.5203 64.5201C34.1603 64.6101 34.7903 64.7601 35.4103 64.9401C36.6303 65.3001 37.8103 65.8201 38.9503 66.3701C40.9803 67.3601 43.0703 68.6301 44.3703 70.5401C44.9403 71.3801 45.4403 72.4401 45.3003 73.4901C45.2503 73.8901 45.0903 74.3301 44.7803 74.6001C44.3903 74.9401 43.8303 74.9601 43.3403 74.9601C40.8203 74.9201 38.7403 73.0101 37.1603 71.2301C35.4403 69.3001 34.1303 67.0801 32.7503 64.9101C32.6903 64.7401 32.6203 64.5701 32.5603 64.4101ZM31.7103 81.2801C31.0003 82.2501 30.2203 83.1701 29.3403 83.9901C27.5303 85.6901 25.3503 86.8601 22.9103 87.3401C21.9303 87.5301 20.5103 87.6701 19.6903 86.9501C18.8603 86.2201 19.2403 84.7401 19.6803 83.9101C20.8503 81.7101 23.4703 80.7201 25.7203 80.0401C28.1603 79.3001 30.7103 78.9601 33.2503 79.0201C33.1103 79.2401 32.9603 79.4501 32.8203 79.6701C32.4603 80.2101 32.0903 80.7601 31.7103 81.2901V81.2801ZM33.2203 88.1501C33.4003 88.3901 33.6203 88.6101 33.8103 88.8401C34.1903 89.3001 34.5703 89.7701 34.9303 90.2601C35.6503 91.2301 36.2903 92.2501 36.8603 93.3101C38.0403 95.4701 39.0203 97.9301 39.2803 100.39C39.3903 101.48 39.4603 102.95 38.7503 103.88C38.0303 104.82 37.0003 103.44 36.5403 102.89C34.9903 101.03 34.0503 98.7101 33.5603 96.3501C33.2403 94.8201 33.1103 93.2501 33.0803 91.6901C33.0603 90.5401 33.0203 89.3201 33.2103 88.1601L33.2203 88.1501ZM20.8503 100.65C19.7903 101.12 18.7203 101.56 17.6403 101.97C16.5103 102.4 15.3403 102.8 14.1403 102.98C13.3503 103.1 11.8403 103.28 11.4503 102.35C11.0803 101.47 11.7903 100.55 12.4203 100.01C13.1803 99.3601 14.1603 98.9801 15.1003 98.6801C16.2403 98.3101 17.4303 98.0301 18.6203 97.8801C20.0103 97.7101 21.4103 97.7001 22.8103 97.7701C23.5103 97.8001 24.2003 97.8601 24.9003 97.8601C25.1203 97.8601 25.3403 97.8601 25.5603 97.8501C24.9903 98.3501 24.3903 98.8101 23.7303 99.2101C22.8203 99.7601 21.8503 100.23 20.8803 100.66L20.8503 100.65ZM25.2103 105.42C25.6403 105.91 26.0503 106.41 26.4403 106.93C27.2203 107.99 27.9303 109.12 28.5403 110.29C29.7603 112.66 30.6203 115.31 30.5803 117.99C30.5603 119.25 30.3903 120.72 29.7303 121.82C29.5003 122.2 29.0503 122.59 28.5703 122.4C28.0303 122.19 27.6003 121.56 27.3003 121.1C26.5703 119.99 26.0803 118.71 25.6903 117.44C25.2703 116.1 24.9803 114.71 24.7703 113.32C24.3403 110.43 24.3603 107.49 24.5503 104.58C24.7703 104.86 25.0003 105.15 25.2403 105.42H25.2103ZM12.2603 119.84C10.3603 121.07 8.19031 122.05 5.95031 122.47C5.38031 122.58 4.78031 122.63 4.20031 122.55C3.81031 122.5 3.33031 122.39 3.06031 122.08C2.46031 121.38 3.48031 120.16 3.94031 119.67C5.37031 118.15 7.27031 117.12 9.25031 116.5C10.5003 116.11 11.7903 115.87 13.0903 115.75C13.7703 115.69 14.4603 115.64 15.1503 115.62C15.5103 115.61 15.8803 115.59 16.2503 115.56C15.5003 117.39 13.8903 118.79 12.2603 119.84ZM17.2103 127.01C17.9103 127.6 18.6003 128.21 19.2503 128.86C20.5203 130.12 21.6603 131.56 22.3803 133.21C22.5403 133.59 22.6803 133.98 22.7903 134.37C22.8803 134.69 23.0303 135.15 22.8503 135.46C22.4603 136.14 21.3303 135.39 20.9503 135.08C19.6203 134 18.6903 132.36 17.9403 130.84C17.2003 129.34 16.6703 127.76 16.1403 126.18C16.5103 126.44 16.8603 126.71 17.2003 127L17.2103 127.01ZM8.81031 143.96C8.35031 144.42 7.72031 145.17 7.07031 144.57C6.51031 144.05 6.53031 143.03 6.59031 142.34C6.73031 140.63 7.70031 139.06 8.85031 137.83C9.97031 136.64 11.3003 135.71 12.5903 134.71C12.2603 138.03 11.2103 141.57 8.82031 143.95L8.81031 143.96ZM17.3703 147.56C17.0003 147.19 16.6703 146.81 16.3503 146.42C16.9103 146.48 17.4603 146.55 18.0203 146.66C19.0303 146.87 20.0103 147.16 20.9703 147.53C22.7203 148.22 24.5103 149.17 25.8203 150.53C26.3703 151.09 26.9503 151.88 27.0303 152.69C27.0603 153.01 26.9903 153.16 26.6603 153.2C26.1403 153.26 25.6103 153.14 25.1203 152.99C23.1803 152.38 21.4003 151.09 19.8503 149.81C18.9903 149.1 18.1503 148.35 17.3703 147.56ZM15.9503 156.64C16.0503 157.7 16.1603 158.75 16.2303 159.81C16.3703 161.94 16.4003 164.11 16.0103 166.22C15.9303 166.65 15.8303 167.09 15.6403 167.49C15.5703 167.64 15.4703 167.87 15.3303 167.98C15.3803 167.94 15.2403 168.07 15.2503 168.07C15.1903 168.07 15.0503 167.91 15.0203 167.88C14.4403 167.21 14.2003 166.24 14.0603 165.39C13.7603 163.49 13.8703 161.45 14.1803 159.56C14.3703 158.41 14.6403 157.28 14.9903 156.17C15.1403 155.7 15.2903 155.23 15.5103 154.79C15.5703 154.67 15.6403 154.55 15.7203 154.44C15.7603 155.18 15.8803 155.93 15.9503 156.65V156.64ZM23.3403 164.99C23.3403 164.99 23.4103 165 23.4503 165.01C23.8803 165.06 24.3103 165.08 24.7503 165.16C25.5203 165.3 26.2903 165.49 27.0303 165.75C28.4603 166.25 29.8103 167 31.0403 167.89C31.5403 168.25 32.1303 168.68 32.3303 169.29C32.3903 169.48 32.4203 169.65 32.2203 169.74C31.9003 169.89 31.4703 169.89 31.1203 169.84C30.3503 169.74 29.6303 169.39 28.9603 169.03C28.2903 168.67 27.6303 168.27 26.9903 167.86C26.2903 167.42 25.6003 166.96 24.9603 166.43C24.4003 165.97 23.8903 165.47 23.3503 164.99H23.3403ZM25.0903 178.34C24.9703 180.17 24.6603 181.99 24.1303 183.74C23.9803 184.25 23.6003 185.44 22.8503 185.13C22.1603 184.84 21.9003 183.75 21.7503 183.1C21.3703 181.37 21.7803 179.55 22.4603 177.95C22.8403 177.06 23.3203 176.2 23.8603 175.39C24.1203 175 24.3903 174.62 24.6603 174.24C24.7703 174.08 24.8903 173.93 25.0103 173.78C25.0403 174.35 25.1103 174.93 25.1303 175.5C25.1603 176.45 25.1503 177.4 25.0903 178.34ZM29.0703 182.32C29.3203 182.5 29.5603 182.69 29.8003 182.89C30.3903 183.37 30.9503 183.88 31.4603 184.45C32.4603 185.57 33.3003 186.87 33.8503 188.28C34.1303 188.99 34.4503 189.88 34.3403 190.66C34.2203 191.45 33.4203 191.06 33.0003 190.74C32.3603 190.25 31.8903 189.54 31.4803 188.87C31.0403 188.14 30.6603 187.38 30.3503 186.59C29.8103 185.21 29.4503 183.77 29.0803 182.34L29.0703 182.32ZM26.5603 200.35C26.2903 200.24 26.0803 199.93 25.9203 199.7C25.6803 199.35 25.4603 198.97 25.3003 198.58C24.9803 197.84 24.8503 197.06 24.7203 196.26C24.6003 195.5 24.5903 194.73 24.7403 193.97C24.9203 193.02 25.2503 192.09 25.7003 191.24C25.9503 190.77 26.2503 190.33 26.5703 189.9C26.7303 189.68 26.9203 189.4 27.1203 189.15C27.1203 189.16 27.1203 189.17 27.1303 189.18C27.2903 189.66 27.4403 190.15 27.5603 190.64C27.7803 191.54 27.8503 192.45 27.8903 193.37C27.9703 195.24 28.0203 197.23 27.6403 199.07C27.5503 199.51 27.2603 200.61 26.5803 200.33L26.5603 200.35Z" fill="#E3ACAC"/>
<path d="M25.7996 131.83C25.5596 131.18 25.5196 130.53 25.5396 129.85C25.5396 129.49 25.5596 129.13 25.5796 128.77C25.5996 128.44 25.6096 128.06 25.7396 127.76C26.0196 127.08 27.0296 127.16 27.6096 127.28C28.2596 127.41 28.9096 127.62 29.5296 127.87C30.1796 128.13 30.7596 128.52 31.0996 129.15C31.4496 129.78 31.5096 130.53 30.9496 131.07C30.5296 131.48 29.9196 131.65 29.3396 131.58C29.3396 131.63 29.3496 131.69 29.3496 131.74C29.3496 132.14 29.2196 132.5 29.0096 132.83C28.5796 133.48 27.7796 133.87 27.0396 133.51C26.3996 133.2 26.0296 132.49 25.7896 131.85L25.7996 131.83Z" fill="#E3ACAC"/>
<path d="M43.0712 87.38C42.5212 86.96 42.1412 86.43 41.7912 85.84C41.6012 85.53 41.4212 85.22 41.2512 84.91C41.1012 84.62 40.9012 84.29 40.8412 83.97C40.7212 83.25 41.6012 82.77 42.1612 82.56C42.7812 82.32 43.4412 82.15 44.0912 82.03C44.7812 81.9 45.4712 81.92 46.1012 82.27C46.7312 82.62 47.1812 83.21 47.0012 83.97C46.8712 84.54 46.4412 85.02 45.9212 85.26C45.9612 85.3 45.9912 85.35 46.0212 85.39C46.2412 85.72 46.3212 86.1 46.3112 86.49C46.2912 87.27 45.8312 88.03 45.0112 88.12C44.3012 88.2 43.6112 87.8 43.0612 87.38H43.0712Z" fill="#E3ACAC"/>
<path d="M32.6008 162.38C31.9108 162.45 31.2708 162.32 30.6208 162.13C30.2708 162.03 29.9308 161.93 29.5908 161.81C29.2808 161.7 28.9108 161.6 28.6508 161.4C28.0708 160.96 28.4008 160 28.6508 159.47C28.9408 158.87 29.3108 158.3 29.7108 157.77C30.1308 157.21 30.6508 156.75 31.3508 156.58C32.0508 156.41 32.7808 156.54 33.1708 157.21C33.4608 157.72 33.4708 158.36 33.2508 158.89C33.3008 158.89 33.3608 158.91 33.4108 158.92C33.8008 159.01 34.1108 159.24 34.3708 159.53C34.8908 160.11 35.0708 160.98 34.5308 161.61C34.0608 162.15 33.2908 162.33 32.6008 162.39V162.38Z" fill="#E3ACAC"/>
<path d="M13.3998 173C13.9898 172.63 14.6198 172.47 15.2898 172.34C15.6398 172.27 15.9998 172.21 16.3498 172.16C16.6698 172.12 17.0498 172.05 17.3798 172.11C18.0998 172.25 18.2298 173.25 18.2398 173.84C18.2398 174.5 18.1698 175.18 18.0498 175.84C17.9198 176.53 17.6698 177.17 17.1198 177.64C16.5698 178.11 15.8598 178.32 15.2098 177.89C14.7198 177.56 14.4298 177 14.3898 176.42C14.3398 176.44 14.2898 176.46 14.2298 176.47C13.8398 176.56 13.4598 176.5 13.0998 176.35C12.3798 176.06 11.8298 175.36 12.0298 174.56C12.2098 173.87 12.8198 173.36 13.4098 173H13.3998Z" fill="#E3ACAC"/>
<path d="M2.39025 129.99C3.08025 129.99 3.71025 130.17 4.35025 130.41C4.69025 130.54 5.02025 130.67 5.35025 130.81C5.65025 130.94 6.01025 131.08 6.25025 131.3C6.79025 131.79 6.39025 132.71 6.08025 133.23C5.74025 133.8 5.32025 134.34 4.88025 134.84C4.41025 135.36 3.86025 135.78 3.15025 135.89C2.44025 136 1.72025 135.81 1.39025 135.11C1.15025 134.58 1.18025 133.94 1.45025 133.43C1.40025 133.42 1.34025 133.41 1.29025 133.39C0.910251 133.26 0.620251 133.02 0.380251 132.7C-0.0897486 132.08 -0.189749 131.2 0.400251 130.62C0.910251 130.12 1.70025 130.01 2.39025 130V129.99Z" fill="#E3ACAC"/>
<path d="M19.3903 70.97C20.0803 70.97 20.7103 71.15 21.3503 71.39C21.6903 71.52 22.0203 71.65 22.3503 71.79C22.6503 71.92 23.0103 72.06 23.2503 72.28C23.7903 72.77 23.3903 73.69 23.0803 74.21C22.7403 74.78 22.3203 75.32 21.8803 75.82C21.4103 76.34 20.8603 76.76 20.1503 76.87C19.4403 76.98 18.7203 76.79 18.3903 76.09C18.1503 75.56 18.1803 74.92 18.4503 74.41C18.4003 74.4 18.3403 74.39 18.2903 74.37C17.9103 74.24 17.6203 74 17.3803 73.68C16.9103 73.06 16.8103 72.18 17.4003 71.6C17.9103 71.1 18.7003 70.99 19.3903 70.98V70.97Z" fill="#E3ACAC"/>
<path d="M201.57 25.75C201.05 24.94 200.06 24.43 199.2 24.08C198.34 23.72 197.36 23.47 196.42 23.48C195.47 23.5 194.52 23.62 193.6 23.84C192.62 24.07 191.66 24.46 190.79 24.96C190.33 25.22 189.88 25.52 189.45 25.83C189.24 25.99 189.03 26.15 188.82 26.31C188.74 26.38 188.65 26.45 188.57 26.52C188.41 26.43 188.22 26.4 187.99 26.45C186.44 26.8 184.86 27.01 183.27 27.01C181.33 27.01 179.45 26.75 177.6 26.3C178.39 26.28 179.17 26.22 179.95 26.12C181.01 25.99 182.07 25.81 183.11 25.56C184.03 25.34 185.05 25.12 185.8 24.49C186.6 23.81 186.75 22.72 186.11 21.87C185.5 21.06 184.37 20.64 183.41 20.44C181.3 19.99 179.16 20.46 177.22 21.31C176.33 21.7 175.48 22.18 174.67 22.72C173.9 23.24 173.03 23.84 172.46 24.6C169.85 23.53 167.33 22.21 164.86 20.93C162.17 19.53 159.48 18.21 156.71 17.07C156.95 17.09 157.2 17.12 157.44 17.14C158.8 17.27 160.17 17.39 161.54 17.44C162.76 17.48 163.98 17.46 165.19 17.33C166.29 17.21 167.53 17.09 168.47 16.47C168.92 16.18 169.34 15.77 169.33 15.19C169.33 14.61 168.9 14.17 168.46 13.86C167.62 13.25 166.58 12.92 165.55 12.76C163.26 12.4 160.85 12.58 158.58 13.03C157.45 13.25 156.32 13.57 155.26 14.02C154.81 14.21 154.38 14.42 153.99 14.71C153.59 15.01 153.36 15.3 153.23 15.76C151.41 15.14 149.56 14.61 147.65 14.19C144.77 13.56 141.84 13.16 138.9 12.99C139.66 12.77 140.41 12.5 141.14 12.18C142.07 11.77 142.95 11.26 143.75 10.64C144.5 10.06 145.32 9.37005 145.81 8.55005C146.33 7.67005 146.03 6.59005 145.26 5.97005C144.44 5.31005 143.29 5.19005 142.27 5.29005C140.14 5.48005 138.27 6.62005 136.77 8.09005C136.03 8.82005 135.37 9.62005 134.76 10.46C134.24 11.18 133.5 12.01 133.38 12.93C128.59 13.1 123.82 13.86 119.22 15.2C120.16 14.21 120.94 13.07 121.6 11.89C122.23 10.76 122.76 9.56005 123.18 8.33005C123.61 7.08005 123.99 5.73005 123.9 4.39005C123.82 3.26005 123.41 1.94005 122.18 1.61005C120.89 1.26005 119.61 2.10005 118.72 2.94005C116.96 4.59005 115.78 6.82005 115.12 9.12005C114.74 10.44 114.53 11.81 114.42 13.17C114.33 14.33 114.25 15.64 114.55 16.79C113.95 17.03 113.35 17.27 112.75 17.53C108.37 19.42 104.35 21.98 100.33 24.53C101.16 23.16 101.79 21.64 102.38 20.22C102.91 18.95 103.43 17.67 103.83 16.36C104.21 15.11 104.52 13.74 104.37 12.42C104.23 11.18 103.52 10.2 102.23 10.03C101.01 9.87005 99.8496 10.6 99.0896 11.5C98.3196 12.42 97.8396 13.53 97.4696 14.66C97.0496 15.94 96.7696 17.26 96.5996 18.6C96.4296 19.97 96.4396 21.34 96.5196 22.71C96.5596 23.41 96.5996 24.1 96.6696 24.8C96.6996 25.16 96.7396 25.52 96.7696 25.88C96.7896 26.16 96.8796 26.41 96.9296 26.67C92.4096 29.46 87.6796 32.08 82.4496 33.19C82.0096 33.28 81.5796 33.36 81.1396 33.43C81.6596 33.14 82.1696 32.82 82.6696 32.48C83.9396 31.62 85.1396 30.56 86.0996 29.36C87.0096 28.22 87.7296 26.98 88.2696 25.63C88.8196 24.25 89.2196 22.7 89.1096 21.21C89.0096 19.85 88.4496 18.42 87.0596 17.95C85.7596 17.51 84.1596 17.97 83.0296 18.67C80.5996 20.2 79.4696 23.11 78.7096 25.76C77.9796 28.34 77.6596 31.04 77.7796 33.71C70.0496 33.82 62.7596 30.34 55.6996 27.07C56.4996 27.15 57.2996 27.18 58.0996 27.17C59.4796 27.15 60.8496 27.01 62.1996 26.76C63.3996 26.54 64.6196 26.21 65.5796 25.43C66.6396 24.57 67.1696 23.11 66.5796 21.83C66.0396 20.66 64.7596 20.03 63.6096 19.61C60.9796 18.65 57.9496 18.7 55.3096 19.61C54.0596 20.03 52.8696 20.62 51.7696 21.35C51.1996 21.73 50.6596 22.15 50.1496 22.61C49.9096 22.83 49.6896 23.08 49.4796 23.33C49.2496 23.6 49.1496 23.78 49.0796 24.12C49.0796 24.13 49.0796 24.15 49.0796 24.16C44.9196 22.48 40.5796 21.11 36.0896 20.91C33.5796 20.8 30.9996 21.12 28.6696 22.07C26.5096 22.95 24.7196 24.45 23.4396 26.41C23.3896 26.49 23.5096 26.56 23.5696 26.48C24.3896 25.38 25.3896 24.56 26.5996 23.93C30.1396 22.08 34.1996 21.88 38.1096 22.46C37.4796 23.8 37.3896 25.46 37.3496 26.87C37.2896 28.77 37.5096 30.69 38.1296 32.5C39.0696 35.26 40.8796 38.08 43.6896 39.21C44.9896 39.73 46.6396 39.84 47.8396 39.01C49.0796 38.16 49.5596 36.61 49.4196 35.16C49.2696 33.61 48.6096 32.13 47.9696 30.73C47.3796 29.46 46.6796 28.24 45.8796 27.09C45.0796 25.96 44.1896 24.88 43.1696 23.94C42.9696 23.76 42.7696 23.58 42.5696 23.41C47.5596 24.8 52.2396 27.08 56.9196 29.26C59.1196 30.29 61.3496 31.31 63.6196 32.22C63.5796 32.39 63.5396 32.56 63.5196 32.75C63.4796 33.15 63.4596 33.54 63.4896 33.94C63.5396 34.78 63.7096 35.6 63.9496 36.41C64.3896 37.89 65.0196 39.34 65.7296 40.71C66.9496 43.06 68.7696 45.39 71.2796 46.42C72.4296 46.89 73.7696 46.97 74.8996 46.39C76.1896 45.74 76.5096 44.34 76.3896 43C76.1296 40.08 74.1096 37.77 71.9696 35.95C71.2796 35.36 70.5696 34.81 69.8296 34.28C70.5096 34.45 71.1996 34.61 71.8896 34.74C74.0396 35.15 76.1996 35.32 78.3296 35.24C78.5096 35.3 78.7196 35.29 78.8796 35.21C81.7096 35.05 84.4996 34.46 87.2196 33.47C87.3496 33.7001 87.4796 33.92 87.6596 34.12C87.9196 34.4 88.1996 34.68 88.4696 34.95C89.0096 35.47 89.5996 35.94 90.1896 36.39C91.3996 37.31 92.6796 38.11 94.0496 38.77C95.2996 39.38 96.6096 39.89 97.9496 40.26C99.3996 40.66 100.97 40.93 102.47 40.75C103.73 40.6 105.37 40.1 105.72 38.69C106.09 37.22 104.75 36.07 103.72 35.27C101.5 33.54 98.8096 32.5 96.0496 32.04C94.5196 31.79 92.9696 31.68 91.4196 31.7C91.3896 31.7 91.3596 31.7 91.3396 31.7C95.1996 29.81 98.8196 27.44 102.45 25.14C102.78 24.93 103.1 24.73 103.43 24.53C103.65 24.83 103.84 25.14 104.08 25.42C104.35 25.73 104.64 26.03 104.94 26.31C105.54 26.87 106.17 27.39 106.82 27.89C108.1 28.87 109.51 29.68 110.97 30.35C113.77 31.62 116.89 32.33 119.96 31.83C121.34 31.61 123.11 31.15 123.75 29.76C124.48 28.18 123.19 26.9 121.96 26.09C120.7 25.26 119.22 24.72 117.78 24.3C116.31 23.86 114.8 23.57 113.27 23.4C110.63 23.1 107.96 23.15 105.31 23.37C109.33 20.96 113.46 18.8 117.96 17.33C120.25 16.58 122.6 15.98 124.97 15.53C125.01 15.78 125.04 16.01 125.15 16.25C125.28 16.53 125.44 16.79 125.6 17.04C125.91 17.52 126.25 17.98 126.62 18.42C127.37 19.33 128.17 20.2 129.04 21C130.55 22.38 132.36 23.58 134.37 24.07C135.3 24.3 136.37 24.19 136.86 23.26C137.37 22.29 136.94 21.18 136.34 20.37C135.15 18.76 133.26 17.62 131.47 16.78C130.1 16.13 128.66 15.6 127.21 15.16C133.21 14.28 139.34 14.38 145.31 15.46C145.26 16.6 145.43 17.8 145.66 18.9C145.92 20.17 146.33 21.41 146.88 22.59C147.77 24.52 149.03 26.61 150.89 27.73C151.73 28.24 152.98 28.68 153.88 28.09C154.94 27.4 154.64 25.77 154.32 24.76C153.61 22.54 152.16 20.55 150.68 18.79C149.95 17.92 149.19 17.07 148.37 16.28C148.29 16.2 148.2 16.12 148.11 16.04C149.7 16.41 151.27 16.86 152.81 17.37C156.84 18.71 160.57 20.68 164.32 22.62C164.27 22.74 164.22 22.85 164.19 22.98C164.12 23.24 164.1 23.52 164.1 23.79C164.1 24.34 164.13 24.89 164.2 25.44C164.33 26.48 164.64 27.5 165.03 28.46C165.36 29.28 165.78 30.07 166.25 30.83C166.71 31.56 167.21 32.35 167.86 32.93C168.49 33.48 169.4 33.89 170.23 33.55C171.1 33.19 171.28 32.07 171.22 31.24C171.08 29.4 169.91 27.71 168.94 26.2C168.54 25.58 168.11 24.91 167.62 24.3C168.47 24.72 169.33 25.13 170.19 25.52C173.57 27.04 177.33 28.35 181.12 28.71C181.14 28.71 181.16 28.73 181.17 28.73C181.28 29.05 181.42 29.35 181.6 29.66C181.85 30.08 182.11 30.48 182.41 30.86C183.02 31.64 183.71 32.35 184.48 32.97C185.9 34.1301 187.67 35.14 189.48 35.49C190.36 35.66 191.46 35.74 192.1 34.98C192.75 34.22 192.46 33.13 191.93 32.39C191.36 31.6 190.56 31.01 189.74 30.5C188.91 29.98 188.02 29.56 187.12 29.2C186.6 28.99 186.07 28.81 185.54 28.65C186.51 28.52 187.48 28.31 188.43 28C188.43 28 188.43 28 188.44 28C188.68 28.15 188.95 28.27 189.22 28.39C189.78 28.64 190.35 28.83 190.95 28.96C192.17 29.23 193.43 29.31 194.68 29.32C195.8 29.34 196.92 29.35 198.04 29.23C199.08 29.12 200.26 28.99 201.1 28.31C201.87 27.68 202.14 26.6 201.59 25.74L201.57 25.75ZM42.5096 25.02C43.5096 26 44.3996 27.08 45.1696 28.24C45.8696 29.3 46.4796 30.41 46.9996 31.56C47.5496 32.78 48.1496 34.13 48.1996 35.48C48.2396 36.63 47.7596 37.85 46.5696 38.2C45.3796 38.54 44.1196 38.08 43.1296 37.43C40.9196 35.96 39.5896 33.25 39.0296 30.74C38.6896 29.24 38.6296 27.69 38.6896 26.16C38.7196 25.46 38.7596 24.76 38.8696 24.07C38.9496 23.58 39.0796 23.1 39.2196 22.62C39.3796 22.65 39.5496 22.68 39.7096 22.71C39.8396 22.83 39.9796 22.94 40.1296 23.05C40.4096 23.24 40.6896 23.44 40.9596 23.65C41.4996 24.07 42.0096 24.53 42.5096 25.01V25.02ZM53.0796 25.19C52.0296 24.92 51.0396 24.51 50.0296 24.13C50.0996 24.08 50.1796 24.02 50.2496 23.97C50.5296 23.77 50.8096 23.58 51.0896 23.37C51.6096 22.98 52.1496 22.61 52.7096 22.27C53.8296 21.58 55.0296 21.05 56.2896 20.7C58.6696 20.04 61.2796 20.09 63.5696 21.04C64.3596 21.36 65.4796 21.94 65.4996 22.93C65.5296 23.98 64.4896 24.66 63.6096 24.97C62.5496 25.34 61.4096 25.5 60.2996 25.62C59.0796 25.75 57.8496 25.8 56.6196 25.73C55.4196 25.67 54.2296 25.49 53.0696 25.2L53.0796 25.19ZM65.0096 32.75C67.1796 34.13 69.3996 35.44 71.3296 37.16C73.1096 38.74 75.0096 40.81 75.0596 43.34C75.0596 43.83 75.0396 44.39 74.6996 44.78C74.4296 45.09 73.9896 45.25 73.5896 45.3C72.5396 45.44 71.4896 44.94 70.6396 44.37C68.7396 43.07 67.4696 40.99 66.4696 38.95C65.9096 37.81 65.3996 36.63 65.0396 35.41C64.8596 34.79 64.7096 34.16 64.6196 33.52C64.5696 33.21 64.5296 32.88 64.5096 32.56C64.6796 32.62 64.8496 32.69 65.0096 32.75ZM79.7696 32.82C79.5496 32.96 79.3396 33.11 79.1196 33.25C79.0596 30.7 79.3996 28.16 80.1396 25.72C80.8196 23.47 81.7996 20.85 84.0096 19.68C84.8396 19.24 86.3296 18.86 87.0496 19.69C87.7696 20.51 87.6296 21.93 87.4396 22.91C86.9596 25.35 85.7896 27.53 84.0896 29.34C83.2696 30.21 82.3496 31 81.3796 31.71C80.8496 32.1 80.3096 32.46 79.7596 32.82H79.7696ZM91.7796 33.09C93.3396 33.12 94.9096 33.24 96.4396 33.57C98.7896 34.06 101.11 35 102.98 36.55C103.54 37.01 104.92 38.04 103.97 38.76C103.04 39.47 101.58 39.4 100.48 39.29C98.0196 39.04 95.5596 38.05 93.3996 36.87C92.3396 36.29 91.3196 35.65 90.3496 34.94C89.8696 34.58 89.3996 34.2 88.9296 33.82C88.6996 33.63 88.4796 33.41 88.2396 33.23C89.3996 33.04 90.6296 33.08 91.7696 33.1L91.7796 33.09ZM99.3096 23.7C98.9096 24.36 98.4496 24.96 97.9496 25.53C97.9496 25.31 97.9596 25.09 97.9596 24.87C97.9596 24.17 97.9096 23.48 97.8696 22.78C97.7996 21.38 97.8096 19.99 97.9796 18.59C98.1296 17.4 98.3996 16.21 98.7796 15.07C99.0896 14.13 99.4596 13.15 100.11 12.39C100.65 11.76 101.57 11.05 102.45 11.42C103.37 11.81 103.2 13.33 103.08 14.11C102.9 15.31 102.49 16.48 102.07 17.61C101.66 18.69 101.22 19.77 100.75 20.82C100.32 21.8 99.8596 22.76 99.2996 23.67L99.3096 23.7ZM104.68 24.53C107.59 24.34 110.53 24.32 113.42 24.75C114.81 24.96 116.19 25.25 117.54 25.67C118.81 26.07 120.09 26.55 121.2 27.28C121.67 27.59 122.29 28.01 122.5 28.55C122.69 29.02 122.3 29.48 121.92 29.71C120.82 30.37 119.35 30.55 118.09 30.57C115.4 30.61 112.75 29.75 110.39 28.53C109.22 27.93 108.09 27.22 107.03 26.43C106.51 26.05 106 25.63 105.52 25.2C105.25 24.96 104.97 24.74 104.68 24.51V24.53ZM115.66 16.25C115.7 15.89 115.71 15.52 115.72 15.15C115.74 14.46 115.79 13.78 115.85 13.09C115.97 11.79 116.21 10.5 116.6 9.25005C117.22 7.27005 118.25 5.37005 119.77 3.94005C120.26 3.48005 121.49 2.46005 122.18 3.06005C122.49 3.33005 122.6 3.81005 122.65 4.20005C122.72 4.78005 122.67 5.38005 122.57 5.95005C122.15 8.19005 121.17 10.35 119.94 12.26C118.89 13.89 117.49 15.5 115.66 16.25ZM126.29 16.15C127.87 16.68 129.45 17.21 130.95 17.95C132.47 18.7 134.11 19.63 135.19 20.96C135.5 21.34 136.25 22.47 135.57 22.86C135.26 23.04 134.8 22.89 134.48 22.8C134.08 22.69 133.69 22.55 133.32 22.39C131.67 21.67 130.23 20.53 128.97 19.26C128.32 18.61 127.72 17.92 127.12 17.22C126.83 16.88 126.56 16.52 126.3 16.16L126.29 16.15ZM134.82 12.58C135.81 11.3 136.74 9.96005 137.94 8.84005C139.16 7.69005 140.74 6.72005 142.45 6.58005C143.14 6.52005 144.16 6.50005 144.68 7.06005C145.28 7.71005 144.53 8.34005 144.07 8.80005C141.68 11.19 138.15 12.24 134.83 12.57L134.82 12.58ZM149.91 19.85C151.19 21.4 152.48 23.18 153.09 25.12C153.25 25.61 153.36 26.14 153.3 26.66C153.26 27 153.11 27.07 152.79 27.03C151.98 26.95 151.2 26.37 150.63 25.82C149.27 24.5 148.32 22.71 147.63 20.96C147.25 20 146.97 19.02 146.76 18.01C146.64 17.45 146.57 16.9 146.52 16.34C146.92 16.66 147.3 16.99 147.66 17.36C148.45 18.15 149.2 18.98 149.91 19.84V19.85ZM154.53 15.72C154.64 15.65 154.76 15.58 154.88 15.51C155.32 15.29 155.79 15.13 156.26 14.99C157.37 14.64 158.5 14.37 159.65 14.18C161.54 13.87 163.58 13.76 165.48 14.06C166.33 14.2 167.3 14.44 167.97 15.02C168.01 15.05 168.17 15.19 168.16 15.25C168.16 15.25 168.03 15.38 168.07 15.33C167.97 15.47 167.74 15.56 167.58 15.64C167.18 15.83 166.74 15.93 166.31 16.01C164.2 16.41 162.03 16.38 159.9 16.23C158.84 16.16 157.79 16.05 156.73 15.95C156.01 15.88 155.26 15.76 154.52 15.72H154.53ZM166.54 24.96C167.06 25.6 167.52 26.29 167.97 26.99C168.38 27.63 168.78 28.29 169.14 28.96C169.5 29.63 169.85 30.36 169.95 31.12C170 31.47 170 31.9 169.85 32.22C169.76 32.42 169.6 32.39 169.4 32.33C168.79 32.14 168.36 31.54 168 31.04C167.11 29.81 166.36 28.46 165.86 27.03C165.6 26.29 165.41 25.52 165.27 24.75C165.19 24.32 165.17 23.89 165.12 23.45C165.12 23.41 165.11 23.37 165.1 23.34C165.58 23.88 166.09 24.39 166.54 24.95V24.96ZM175.6 25.13C175.03 25.11 174.46 25.04 173.88 25.01C174.03 24.89 174.19 24.78 174.34 24.66C174.72 24.39 175.1 24.12 175.49 23.86C176.3 23.32 177.15 22.85 178.05 22.46C179.65 21.77 181.47 21.37 183.2 21.75C183.85 21.89 184.94 22.15 185.23 22.85C185.54 23.59 184.35 23.98 183.84 24.13C182.08 24.66 180.26 24.97 178.44 25.09C177.49 25.15 176.55 25.16 175.6 25.13ZM186.67 30.34C187.46 30.65 188.23 31.03 188.95 31.47C189.63 31.88 190.34 32.35 190.82 32.99C191.14 33.41 191.53 34.22 190.74 34.33C189.96 34.44 189.08 34.12 188.36 33.84C186.96 33.29 185.65 32.45 184.53 31.45C183.96 30.94 183.45 30.38 182.97 29.79C182.77 29.55 182.58 29.31 182.4 29.06C183.83 29.43 185.27 29.79 186.65 30.33L186.67 30.34ZM199.2 27.62C197.36 28.01 195.37 27.95 193.5 27.87C192.58 27.83 191.67 27.76 190.77 27.54C190.28 27.42 189.79 27.27 189.31 27.11C189.3 27.11 189.29 27.11 189.28 27.1C189.53 26.9 189.81 26.72 190.03 26.55C190.46 26.23 190.9 25.93 191.37 25.69C192.22 25.24 193.15 24.91 194.1 24.73C194.86 24.59 195.63 24.59 196.39 24.71C197.18 24.84 197.96 24.97 198.71 25.29C199.1 25.46 199.48 25.67 199.83 25.91C200.06 26.07 200.37 26.28 200.48 26.55C200.76 27.23 199.66 27.52 199.22 27.61L199.2 27.62Z" fill="#E3ACAC"/>
<path d="M131.939 25.7999C131.289 25.5599 130.639 25.5199 129.959 25.5399C129.599 25.5399 129.239 25.5599 128.879 25.5799C128.549 25.5999 128.169 25.6099 127.869 25.7399C127.189 26.0199 127.269 27.0299 127.389 27.6099C127.519 28.2599 127.729 28.9099 127.979 29.5299C128.239 30.1799 128.629 30.7599 129.259 31.0999C129.889 31.4499 130.639 31.5099 131.179 30.9499C131.589 30.5299 131.759 29.9199 131.689 29.3399C131.739 29.3399 131.799 29.3499 131.849 29.3499C132.249 29.3499 132.609 29.2199 132.939 29.0099C133.589 28.5799 133.979 27.7799 133.619 27.0399C133.309 26.3999 132.599 26.0299 131.959 25.7899L131.939 25.7999Z" fill="#E3ACAC"/>
<path d="M87.4803 43.07C87.0603 42.52 86.5303 42.14 85.9403 41.79C85.6303 41.6 85.3203 41.42 85.0103 41.25C84.7203 41.1 84.3903 40.9 84.0703 40.84C83.3503 40.72 82.8703 41.6 82.6603 42.16C82.4203 42.78 82.2503 43.44 82.1303 44.09C82.0003 44.78 82.0203 45.47 82.3703 46.1C82.7203 46.73 83.3103 47.18 84.0703 47C84.6403 46.87 85.1203 46.44 85.3603 45.92C85.4003 45.96 85.4503 45.99 85.4903 46.02C85.8203 46.24 86.2003 46.32 86.5903 46.31C87.3703 46.29 88.1303 45.83 88.2203 45.01C88.3003 44.3 87.9003 43.61 87.4803 43.06V43.07Z" fill="#E3ACAC"/>
<path d="M162.479 32.6001C162.549 31.9101 162.419 31.2701 162.229 30.6201C162.129 30.2701 162.029 29.9301 161.909 29.5901C161.799 29.2801 161.699 28.9101 161.499 28.6501C161.059 28.0701 160.099 28.4001 159.569 28.6501C158.969 28.9401 158.399 29.3101 157.869 29.7101C157.309 30.1301 156.849 30.6501 156.679 31.3501C156.509 32.0501 156.639 32.7801 157.309 33.1701C157.819 33.4601 158.459 33.4701 158.989 33.2501C158.989 33.3001 158.999 33.3601 159.019 33.4101C159.109 33.8001 159.339 34.1101 159.629 34.3701C160.209 34.8901 161.079 35.0701 161.709 34.5301C162.249 34.0601 162.429 33.2901 162.489 32.6001H162.479Z" fill="#E3ACAC"/>
<path d="M173.099 13.4C172.729 13.99 172.569 14.62 172.439 15.29C172.369 15.64 172.309 16 172.259 16.35C172.219 16.67 172.149 17.05 172.209 17.38C172.349 18.1 173.349 18.23 173.939 18.24C174.599 18.24 175.279 18.17 175.939 18.05C176.629 17.92 177.269 17.67 177.739 17.12C178.209 16.57 178.419 15.86 177.989 15.21C177.659 14.72 177.099 14.43 176.519 14.39C176.539 14.34 176.559 14.29 176.569 14.23C176.659 13.84 176.599 13.46 176.449 13.1C176.159 12.38 175.459 11.83 174.659 12.03C173.969 12.21 173.459 12.82 173.099 13.41V13.4Z" fill="#E3ACAC"/>
<path d="M130.09 2.39001C130.09 3.08001 130.27 3.71001 130.51 4.35001C130.64 4.69001 130.77 5.02001 130.91 5.35001C131.04 5.65001 131.18 6.01001 131.4 6.25001C131.89 6.79001 132.81 6.39001 133.33 6.08001C133.9 5.74001 134.44 5.32001 134.94 4.88001C135.46 4.41001 135.88 3.86001 135.99 3.15001C136.1 2.44001 135.91 1.72001 135.21 1.39001C134.68 1.15001 134.04 1.18001 133.53 1.45001C133.52 1.40001 133.51 1.34001 133.49 1.29001C133.36 0.910007 133.12 0.620007 132.8 0.380007C132.18 -0.0899928 131.3 -0.189993 130.72 0.400007C130.22 0.910007 130.11 1.70001 130.1 2.39001H130.09Z" fill="#E3ACAC"/>
<path d="M71.0703 19.39C71.0703 20.08 71.2503 20.71 71.4903 21.35C71.6203 21.69 71.7503 22.02 71.8903 22.35C72.0203 22.65 72.1603 23.01 72.3803 23.25C72.8703 23.79 73.7903 23.39 74.3103 23.08C74.8803 22.74 75.4203 22.32 75.9203 21.88C76.4403 21.41 76.8603 20.86 76.9703 20.15C77.0803 19.44 76.8903 18.72 76.1903 18.39C75.6603 18.15 75.0203 18.18 74.5103 18.45C74.5003 18.4 74.4903 18.34 74.4703 18.29C74.3403 17.91 74.1003 17.62 73.7803 17.38C73.1603 16.91 72.2803 16.81 71.7003 17.4C71.2003 17.91 71.0903 18.7 71.0803 19.39H71.0703Z" fill="#E3ACAC"/>
</g>
<defs>
<clipPath id="clip0_31_368">
<rect width="201.86" height="201.76" fill="white"/>
</clipPath>
</defs>
</svg>
