<svg width="79" height="43" viewBox="0 0 79 43" fill="none" xmlns="http://www.w3.org/2000/svg">
<g clip-path="url(#clip0_31_391)">
<path d="M76.8283 17.2901C75.3683 14.8101 73.0483 13.2801 70.3783 12.3301C67.6083 11.3501 64.6083 10.9701 61.6883 11.2201C56.1883 11.6901 51.1183 14.2501 46.9883 17.8201C42.8083 21.4401 39.5083 25.9401 35.4183 29.6601C33.4783 31.4201 31.2783 33.0201 28.7783 33.8901C26.3683 34.7201 23.5883 34.8601 21.3183 33.5401C19.3983 32.4201 18.4083 30.3301 18.6683 28.1301C18.9283 25.8701 20.5983 23.9901 22.8783 23.6301C25.0083 23.2901 27.4083 24.8001 27.5483 27.0801C27.6883 29.2701 25.4283 31.2501 23.3283 30.2301C22.4283 29.7901 21.6383 28.9601 21.4083 27.9701C21.3283 27.6401 20.8783 27.7402 20.8583 28.0401C20.7683 29.1602 21.2283 30.1001 22.0683 30.8201C22.8583 31.5101 23.9783 31.8701 25.0283 31.7701C27.3583 31.5401 29.1083 29.2301 28.9883 26.9401C28.8683 24.5201 26.8883 22.4701 24.5183 22.0801C22.0183 21.6701 19.4483 22.9001 18.0983 25.0101C16.9083 26.8701 16.6783 29.3801 17.4683 31.4401C18.3783 33.8201 20.5483 35.3801 23.0083 35.9201C28.4683 37.1101 33.5583 33.7001 37.3183 30.1101C41.2683 26.3401 44.5083 21.8501 48.7383 18.3601C52.8583 14.9701 58.0583 12.6701 63.4583 12.6801C66.2883 12.6801 69.2583 13.2701 71.7883 14.5801C74.1483 15.8101 75.7183 17.8601 76.5283 20.3701C77.3383 22.8701 77.3583 25.5901 76.6383 28.1201C75.9583 30.4902 74.5783 32.8501 72.4783 34.2201C70.4983 35.5102 67.6583 35.8501 65.7283 34.2601C64.0683 32.9001 63.3983 30.6001 63.4983 28.5201C63.5983 26.3501 64.5883 23.6701 66.8283 22.9101C67.8083 22.5801 68.9383 22.5901 69.8383 23.1601C70.7683 23.7501 71.1883 24.9601 70.9683 26.0201C70.7483 27.0801 69.8983 28.0101 68.8783 28.3601C68.0883 28.6301 68.4283 29.8902 69.2283 29.6101C71.6583 28.7601 73.0983 26.1501 72.0083 23.6901C71.0283 21.4901 68.3483 20.8301 66.2183 21.6601C63.8383 22.5901 62.5483 25.0801 62.1983 27.4901C61.8783 29.7001 62.2383 32.1201 63.4983 33.9902C64.9683 36.1602 67.4583 37.1901 70.0383 36.8201C72.6583 36.4401 74.7983 34.7201 76.2683 32.6001C79.3183 28.1701 79.5783 21.8701 76.8483 17.2301L76.8283 17.2901Z" fill="#E3ACAC"/>
<path d="M1.88917 17.2901C3.34917 14.8101 5.66917 13.2801 8.33917 12.3301C11.1092 11.3501 14.1092 10.9701 17.0292 11.2201C22.5292 11.6901 27.5992 14.2501 31.7292 17.8201C35.9092 21.4401 39.2092 25.9401 43.2992 29.6601C45.2392 31.4201 47.4392 33.0201 49.9392 33.8901C52.3492 34.7201 55.1292 34.8601 57.3992 33.5401C59.3192 32.4201 60.3092 30.3301 60.0492 28.1301C59.7892 25.8701 58.1192 23.9901 55.8392 23.6301C53.7092 23.2901 51.3092 24.8001 51.1692 27.0801C51.0292 29.2701 53.2892 31.2501 55.3892 30.2301C56.2892 29.7901 57.0792 28.9601 57.3092 27.9701C57.3892 27.6401 57.8392 27.7402 57.8592 28.0401C57.9492 29.1602 57.4892 30.1001 56.6492 30.8201C55.8592 31.5101 54.7392 31.8701 53.6892 31.7701C51.3592 31.5401 49.6092 29.2301 49.7292 26.9401C49.8492 24.5201 51.8292 22.4701 54.1992 22.0801C56.6992 21.6701 59.2692 22.9001 60.6192 25.0101C61.8092 26.8701 62.0392 29.3801 61.2492 31.4401C60.3392 33.8201 58.1692 35.3801 55.7092 35.9201C50.2492 37.1101 45.1592 33.7001 41.3992 30.1101C37.4492 26.3401 34.2092 21.8501 29.9792 18.3601C25.8592 14.9701 20.6592 12.6701 15.2592 12.6801C12.4292 12.6801 9.45917 13.2701 6.92917 14.5801C4.56917 15.8101 2.99917 17.8601 2.18917 20.3701C1.37917 22.8701 1.35917 25.5901 2.07917 28.1201C2.75917 30.4902 4.13917 32.8501 6.23917 34.2201C8.21917 35.5102 11.0592 35.8501 12.9892 34.2601C14.6492 32.9001 15.3192 30.6001 15.2192 28.5201C15.1192 26.3501 14.1292 23.6701 11.8892 22.9101C10.9092 22.5801 9.77917 22.5901 8.87917 23.1601C7.94917 23.7501 7.52917 24.9601 7.74917 26.0201C7.96917 27.0801 8.81917 28.0101 9.83917 28.3601C10.6292 28.6301 10.2892 29.8902 9.48917 29.6101C7.05917 28.7601 5.61917 26.1501 6.71917 23.6901C7.69917 21.4901 10.3792 20.8301 12.5092 21.6601C14.8892 22.5901 16.1792 25.0801 16.5292 27.4901C16.8492 29.7001 16.4892 32.1201 15.2292 33.9902C13.7592 36.1602 11.2692 37.1901 8.68917 36.8201C6.06917 36.4401 3.92917 34.7201 2.45917 32.6001C-0.590831 28.1701 -0.850831 21.8701 1.87917 17.2301L1.88917 17.2901Z" fill="#E3ACAC"/>
<path d="M39.4692 31.8001C39.5192 31.5601 39.3892 31.3101 39.1092 31.3101C38.3092 31.3301 37.5692 32.0901 37.0292 32.6201C36.4292 33.2201 35.8992 33.8801 35.4092 34.5701C34.3992 36.0101 33.4292 37.6601 32.9892 39.3701C32.7992 40.1201 32.5292 41.3101 32.9392 42.0201C33.4092 42.8401 34.4892 42.6801 35.1592 42.2301C36.6192 41.2401 37.9092 39.6201 38.5992 38.0101C39.0092 37.0501 39.2892 36.0401 39.4792 35.0101C39.6992 33.9001 39.7492 32.9001 39.4592 31.8001H39.4692ZM38.5492 33.9801C38.3092 34.7501 38.0592 35.5101 37.7992 36.2701C37.3092 37.7001 36.5492 38.9101 35.5292 40.0301C35.2892 40.2901 35.0392 40.5501 34.7692 40.7801C34.6492 40.8901 34.5192 40.9901 34.3892 41.0801C34.3192 41.1201 34.2492 41.1701 34.1792 41.2001C34.1592 41.2001 34.0992 41.2201 34.0492 41.2401C34.0392 41.2101 34.0192 41.1701 34.0192 41.1301C34.0192 41.0501 34.0192 40.9701 34.0192 40.8901C34.0192 40.7201 34.0292 40.5501 34.0492 40.3801C34.0992 39.9801 34.1992 39.5901 34.3292 39.2101C34.7692 37.8501 35.5292 36.5601 36.3292 35.3901C36.7792 34.7301 37.2792 34.1101 37.8392 33.5401C38.0992 33.2801 38.3792 33.0401 38.6492 32.7901C38.7792 32.6701 38.9292 32.5401 39.0592 32.4101C38.9192 32.9401 38.7192 33.4501 38.5592 33.9801H38.5492Z" fill="#E3ACAC"/>
<path d="M39.25 31.8001C39.2 31.5601 39.33 31.3101 39.61 31.3101C40.41 31.3301 41.15 32.0901 41.69 32.6201C42.29 33.2201 42.82 33.8801 43.31 34.5701C44.32 36.0101 45.29 37.6601 45.73 39.3701C45.92 40.1201 46.19 41.3101 45.78 42.0201C45.31 42.8401 44.23 42.6801 43.56 42.2301C42.1 41.2401 40.81 39.6201 40.12 38.0101C39.71 37.0501 39.43 36.0401 39.24 35.0101C39.02 33.9001 38.97 32.9001 39.26 31.8001H39.25ZM40.17 33.9801C40.41 34.7501 40.66 35.5101 40.92 36.2701C41.41 37.7001 42.16 38.9101 43.19 40.0301C43.43 40.2901 43.68 40.5501 43.95 40.7801C44.07 40.8901 44.2 40.9901 44.33 41.0801C44.4 41.1201 44.47 41.1701 44.54 41.2001C44.56 41.2001 44.62 41.2201 44.67 41.2401C44.68 41.2101 44.7 41.1701 44.7 41.1301C44.7 41.0501 44.7 40.9701 44.7 40.8901C44.7 40.7201 44.69 40.5501 44.67 40.3801C44.62 39.9801 44.52 39.5901 44.39 39.2101C43.95 37.8501 43.19 36.5601 42.39 35.3901C41.94 34.7301 41.44 34.1101 40.88 33.5401C40.62 33.2801 40.34 33.0401 40.07 32.7901C39.94 32.6701 39.79 32.5401 39.66 32.4101C39.8 32.9401 40 33.4501 40.16 33.9801H40.17Z" fill="#E3ACAC"/>
<path d="M41.5399 20.3499C41.5499 20.0499 41.5099 19.7499 41.3999 19.4799C41.1899 18.9999 40.7899 18.6299 40.2899 18.4999C39.3999 18.0799 38.2499 18.2199 37.5699 19.1799C37.0499 19.9099 37.0599 20.9199 37.5699 21.6499C37.7599 21.9199 38.0199 22.1399 38.3099 22.2899C38.7799 22.5999 39.3999 22.6799 39.9799 22.5399C40.9199 22.2999 41.5599 21.4699 41.5599 20.4999C41.5599 20.4499 41.5599 20.4099 41.5599 20.3599L41.5399 20.3499Z" fill="#E3ACAC"/>
<path d="M50.2108 10.25C48.2308 9.18 46.0208 10.33 44.4008 11.54C44.6808 10.91 44.9308 10.28 45.1908 9.64C45.6708 8.43 46.2308 7.25 46.7208 6.04C47.2008 4.85 47.6008 3.59 47.5708 2.29C47.5408 1.12 46.8708 0 45.5608 0C44.3808 0 43.2708 0.87 42.5608 1.73C41.7908 2.66 41.3008 3.75 40.8808 4.87C40.4208 6.1 40.0208 7.35 39.8608 8.65C39.6808 10.12 39.8408 11.61 40.0008 13.08C40.1608 14.51 40.4108 15.99 41.0708 17.28C41.2008 17.53 41.4308 17.6 41.6408 17.55C42.1408 17.74 42.8008 17.55 43.2708 17.39C43.8708 17.18 44.4908 17.02 45.0708 16.78C45.5508 16.59 46.0108 16.35 46.4708 16.09C47.0608 15.8 47.6408 15.49 48.1908 15.13C49.0808 14.55 50.0108 13.81 50.5008 12.84C50.9208 12.02 51.1908 10.78 50.2108 10.25ZM41.9508 6.84C42.2708 5.8 42.6408 4.75 43.1708 3.8C43.6108 3 44.2408 2.19 45.1008 1.81C45.3608 1.7 45.6308 1.59 45.8108 1.85C46.0508 2.2 46.0208 2.78 45.9708 3.17C45.8308 4.28 45.3308 5.33 45.0008 6.4C44.6608 7.49 44.3408 8.59 43.9408 9.66C43.5108 10.81 43.0308 11.94 42.4808 13.03C42.3108 13.37 42.1108 13.73 41.9408 14.11C41.9008 14.17 41.8608 14.23 41.8308 14.3C41.7908 14.37 41.7508 14.44 41.7008 14.52C41.5008 13.06 41.4308 11.58 41.4308 10.13C41.4308 8.99 41.6208 7.91 41.9608 6.83L41.9508 6.84ZM49.6008 11.78C49.4208 12.14 49.1908 12.49 48.9308 12.79C48.4008 13.41 47.7308 13.87 47.0308 14.28C46.1808 14.78 45.3008 15.22 44.4108 15.62C44.3408 15.65 44.2708 15.68 44.2008 15.71C43.8308 15.83 43.4608 15.94 43.0908 16.07C42.9108 16.14 42.7208 16.21 42.5308 16.24C42.6908 15.89 42.7908 15.51 42.9808 15.17C43.4108 14.39 44.0008 13.75 44.6608 13.17C45.8608 12.1 47.5608 10.81 49.2708 11.08C49.4008 11.1 49.7208 11.13 49.7808 11.27C49.8308 11.39 49.6708 11.67 49.6208 11.78H49.6008Z" fill="#E3ACAC"/>
<path d="M28.5099 10.25C30.4899 9.18 32.6999 10.33 34.3199 11.54C34.0399 10.91 33.7899 10.28 33.5299 9.64C33.0499 8.43 32.4899 7.25 31.9999 6.04C31.5199 4.85 31.1199 3.59 31.1499 2.29C31.1799 1.12 31.8499 0 33.1599 0C34.3399 0 35.4499 0.87 36.1599 1.73C36.9299 2.66 37.4199 3.75 37.8399 4.87C38.2999 6.1 38.6999 7.35 38.8599 8.65C39.0399 10.12 38.8799 11.61 38.7199 13.08C38.5599 14.51 38.3099 15.99 37.6499 17.28C37.5199 17.53 37.2899 17.6 37.0799 17.55C36.5799 17.74 35.9199 17.55 35.4499 17.39C34.8499 17.18 34.2299 17.02 33.6499 16.78C33.1699 16.59 32.7099 16.35 32.2499 16.09C31.6599 15.8 31.0799 15.49 30.5299 15.13C29.6399 14.55 28.7099 13.81 28.2199 12.84C27.7999 12.02 27.5299 10.78 28.5099 10.25ZM36.7699 6.84C36.4499 5.8 36.0799 4.75 35.5499 3.8C35.1099 3 34.4799 2.19 33.6199 1.81C33.3599 1.7 33.0899 1.59 32.9099 1.85C32.6699 2.2 32.6999 2.78 32.7499 3.17C32.8899 4.28 33.3899 5.33 33.7199 6.4C34.0599 7.49 34.3799 8.59 34.7799 9.66C35.2099 10.81 35.6899 11.94 36.2399 13.03C36.4099 13.37 36.6099 13.73 36.7799 14.11C36.8199 14.17 36.8599 14.23 36.8899 14.3C36.9299 14.37 36.9699 14.44 37.0199 14.52C37.2199 13.06 37.2899 11.58 37.2899 10.13C37.2899 8.99 37.0999 7.91 36.7599 6.83L36.7699 6.84ZM29.1199 11.78C29.2999 12.14 29.5299 12.49 29.7899 12.79C30.3199 13.41 30.9899 13.87 31.6899 14.28C32.5399 14.78 33.4199 15.22 34.3099 15.62C34.3799 15.65 34.4499 15.68 34.5199 15.71C34.8899 15.83 35.2599 15.94 35.6299 16.07C35.8099 16.14 35.9999 16.21 36.1899 16.24C36.0299 15.89 35.9299 15.51 35.7399 15.17C35.3099 14.39 34.7199 13.75 34.0599 13.17C32.8599 12.1 31.1599 10.81 29.4499 11.08C29.3199 11.1 28.9999 11.13 28.9399 11.27C28.8899 11.39 29.0499 11.67 29.0999 11.78H29.1199Z" fill="#E3ACAC"/>
</g>
<defs>
<clipPath id="clip0_31_391">
<rect width="78.72" height="42.6" fill="white"/>
</clipPath>
</defs>
</svg>
