<svg width="113" height="251" viewBox="0 0 113 251" fill="none" xmlns="http://www.w3.org/2000/svg">
<path d="M31.0368 8.31649C30.5649 10.2787 30.5152 12.2906 30.5649 14.2777C30.6145 16.389 30.7884 18.5002 31.1858 20.5618C31.6329 22.8469 32.3781 25.0824 33.1232 27.293C33.4709 28.3362 33.8435 29.3546 34.1913 30.3978C34.3651 30.9691 34.5887 31.4907 34.8122 32.0371C34.9116 32.2606 34.9612 32.4842 35.1103 32.6829C35.1848 32.7822 35.2593 32.8816 35.3587 32.9561C33.1232 37.4022 31.31 42.0718 29.8942 46.8656C29.8942 46.0956 29.8445 45.3256 29.7949 44.5556C29.6707 42.6182 29.4223 40.656 29.0497 38.7434C28.6771 36.7067 28.2301 34.5706 27.3359 32.7077C26.5162 31.0187 24.8769 28.7088 22.7159 29.131C20.6295 29.5284 19.5863 31.9377 19.1889 33.7758C18.3692 37.7002 19.1889 41.8979 20.4557 45.6237C21.2256 47.884 22.2689 50.0201 23.4363 52.0816C24.0821 53.2242 24.8024 54.3171 25.5475 55.3851C25.8953 55.8819 26.243 56.3787 26.6156 56.8754C26.8391 57.1735 27.0875 57.397 27.3607 57.5709C26.4169 62.7373 25.8207 67.9285 25.5227 73.07C25.324 76.2493 25.2743 79.4038 25.2991 82.5831C25.0011 82.0118 24.703 81.4157 24.405 80.8196C23.3369 78.7332 22.1695 76.6964 20.7537 74.8087C19.3876 72.9707 17.798 71.2817 16.109 69.7417C14.4696 68.2762 12.7061 66.6369 10.6942 65.6434C9.65099 65.1218 8.48358 64.9479 7.36586 65.3453C6.2233 65.7427 5.42847 66.7859 5.10557 67.9285C4.53429 69.9156 4.95654 72.002 5.9004 73.7903C6.89393 75.7029 8.33455 77.3671 9.84969 78.8822C11.5139 80.5712 13.3519 82.136 15.2148 83.5766C17.1273 85.0669 19.0647 86.5821 21.1015 87.8985C22.3931 88.7182 23.9827 89.6124 25.5972 89.9104C25.9698 95.6481 26.6652 101.361 27.6339 107.049C27.4352 106.825 27.2365 106.627 27.0627 106.403C25.2991 104.491 23.2624 102.777 21.0766 101.336C16.9783 98.6038 12.2093 96.4677 7.41554 95.3252C5.20493 94.7787 1.97594 94.2323 0.485642 96.4926C-1.0295 98.7777 1.35498 101.435 2.79561 103.05C6.19846 106.875 10.6445 109.558 15.3638 111.445C18.0463 112.538 20.8034 113.383 23.6101 114.153C24.9266 114.5 26.243 114.873 27.6091 114.972C28.1307 115.022 28.6771 115.022 29.1988 114.972C29.77 117.63 30.391 120.288 31.0865 122.921C31.8813 126.025 32.7506 129.105 33.6697 132.185C33.2971 131.838 32.8997 131.49 32.5023 131.142C30.242 129.13 27.8575 127.292 25.2495 125.727C22.716 124.237 20.0334 122.945 17.326 121.803C14.7428 120.685 11.8616 119.493 9.03003 119.294C7.53973 119.195 5.9004 119.543 4.80751 120.611C3.78914 121.629 3.4414 122.995 3.59043 124.386C3.73946 125.653 4.33558 126.845 5.00622 127.888C5.80104 129.105 6.72006 130.223 7.78811 131.217C9.80002 133.104 12.11 134.669 14.5193 136.06C16.7299 137.352 19.0399 138.469 21.4492 139.339C26.1188 141.053 31.5087 142.071 36.4267 140.879C38.7118 147.635 41.2453 154.316 44.0024 160.898C41.6924 158.862 39.0844 157.272 36.4019 155.757C31.2107 152.801 25.7462 149.547 19.5615 150.069C16.9783 150.292 13.8735 151.634 13.65 154.589C13.5258 156.179 14.3703 157.595 15.2148 158.862C16.0593 160.153 17.0528 161.321 18.1705 162.413C22.0205 166.139 26.8639 168.747 32.0303 170.039C34.8619 170.734 37.768 171.082 40.6741 170.983C43.0834 170.908 45.6169 170.635 47.8772 169.741C48.051 170.138 48.2498 170.56 48.4236 170.958C51.3794 177.366 54.5835 183.65 58.0609 189.785C57.117 189.289 56.1483 188.841 55.1796 188.419C52.7206 187.326 50.212 186.382 47.6785 185.439C42.7853 183.625 37.1967 181.589 31.8813 182.557C30.5152 182.806 29.0497 183.352 27.9817 184.296C26.7398 185.414 26.6404 187.028 27.4601 188.444C28.702 190.605 30.5152 192.443 32.4774 193.933C36.4515 196.988 41.4192 198.628 46.4117 199.05C49.3923 199.298 52.4226 199.1 55.3784 198.653C56.8687 198.429 58.359 198.106 59.7996 197.709C60.5447 197.485 61.2899 197.262 62.035 197.013C62.1095 196.988 62.1841 196.964 62.2586 196.939C65.1895 201.708 68.2943 206.377 71.5978 210.898C70.952 210.575 70.3062 210.252 69.6604 209.929C67.3504 208.787 65.0156 207.694 62.6063 206.8C58.0361 205.111 53.0435 204.117 48.2001 204.962C45.8653 205.384 42.3382 206.576 42.0153 209.383C41.8663 210.749 42.7853 211.966 43.605 212.96C44.3998 213.928 45.3437 214.773 46.3372 215.518C50.3858 218.523 55.5522 219.467 60.4951 219.542C63.575 219.591 66.6301 219.368 69.6604 218.846C71.1259 218.598 72.5913 218.275 73.9823 217.753C74.7026 217.48 75.3235 217.083 75.9693 216.66C80.5396 222.448 85.4824 227.962 90.7978 233.103C90.152 232.954 89.5311 232.78 88.8853 232.631C86.3766 231.986 83.8928 231.265 81.3592 230.595C76.2674 229.278 70.9023 228.21 65.6366 228.98C63.1528 229.353 59.5264 230.396 58.7564 233.178C58.0112 235.885 60.1225 238.468 62.2337 239.884C64.494 241.375 67.2262 242.12 69.8591 242.716C72.5665 243.312 75.2987 243.709 78.0806 243.709C84.3647 243.759 91.1704 242.145 95.8648 237.748C99.4664 240.903 103.242 243.883 107.191 246.64C108.806 247.783 110.445 248.925 112.084 250.018C112.407 250.242 112.755 249.745 112.432 249.522C106.943 245.597 101.851 241.151 96.9577 236.506C97.8022 236.134 98.5225 235.389 99.1683 234.768C100.112 233.873 100.982 232.93 101.826 231.961C103.416 230.148 104.831 228.185 106.024 226.099C107.266 223.938 108.334 221.678 109.178 219.318C109.998 216.983 110.743 214.475 110.867 211.991C111.016 209.408 110.221 206.601 107.961 205.086C105.75 203.595 102.77 203.943 100.46 204.986C95.5668 207.197 93.2568 212.488 92.611 217.505C92.2384 220.436 92.2136 223.441 92.3626 226.397C92.4868 228.856 92.8842 231.613 94.151 233.824C88.5375 228.285 83.2966 222.348 78.478 216.089C78.2793 215.841 78.0806 215.568 77.8819 215.294C77.8819 215.294 77.8819 215.294 77.9067 215.294C82.2038 211.916 86.2524 207.892 89.5062 203.496C92.5117 199.423 95.0948 194.579 95.5916 189.462C95.84 186.854 95.1942 184.073 92.9587 182.483C90.4997 180.719 87.3701 181.812 85.2092 183.501C83.0731 185.141 81.5828 187.55 80.3905 189.91C79.1238 192.369 78.0061 194.902 77.0622 197.485C75.9942 200.416 75.1745 203.471 74.7274 206.576C74.5287 207.992 74.5039 209.432 74.5784 210.873C71.101 206.079 67.8472 201.112 64.7921 196.045C73.6842 190.729 79.6206 181.067 80.3905 170.734C80.6141 167.878 80.4651 164.45 77.9316 162.587C75.5471 160.849 71.722 161.196 69.3375 162.736C66.9779 164.252 65.3634 167.009 64.0966 169.418C62.8795 171.728 61.9108 174.137 61.2402 176.646C60.495 179.477 60.0728 182.408 60.0976 185.339C60.0976 186.308 60.1473 187.252 60.2467 188.221C57.887 183.948 55.6267 179.577 53.5155 175.18C52.4723 173.019 51.4539 170.834 50.4604 168.623C54.8816 165.593 58.8806 162.041 62.4076 157.992C65.9595 153.919 69.3623 149.249 70.3807 143.81C70.8278 141.375 70.7036 137.997 68.3688 136.507C67.2262 135.762 65.7111 135.712 64.3698 135.663C62.9044 135.613 61.4389 135.787 60.0976 136.358C57.4648 137.525 55.5771 140.233 54.0619 142.568C52.5716 144.902 51.28 147.411 50.1375 149.945C48.8459 152.801 47.8772 155.807 47.4798 158.911C47.3804 159.706 47.3059 160.526 47.2811 161.345C44.375 154.416 41.7173 147.386 39.3576 140.258C43.9776 137.029 48.5478 133.7 52.2736 129.428C54.0868 127.342 55.6516 125.081 56.9432 122.647C58.1602 120.362 59.1289 117.953 59.4518 115.37C59.7747 112.712 59.2531 109.483 56.5706 108.216C55.3784 107.67 54.0371 107.695 52.7455 107.844C51.3049 108.018 49.8146 108.365 48.5727 109.135C46.1385 110.626 44.6979 113.134 43.2821 115.544C41.8415 118.027 40.4754 120.561 39.3328 123.169C38.1157 125.951 37.1967 128.857 36.6999 131.862C36.4019 130.894 36.1286 129.925 35.8554 128.956C34.4396 124.013 33.148 118.996 32.08 113.954C33.2474 113.681 34.2658 113.06 35.2841 112.414C36.377 111.718 37.4451 110.998 38.4635 110.228C40.4754 108.738 42.3879 107.099 44.0521 105.236C47.0824 101.858 49.3426 97.809 50.1871 93.3133C50.6094 91.0033 50.8329 88.2711 48.7962 86.6318C46.7098 84.9427 43.7789 86.2095 41.8166 87.4763C37.5941 90.2333 35.0854 95.0023 32.8997 99.3987C31.9061 101.386 31.0865 103.398 30.4903 105.509C29.6458 100.417 29.0497 95.3003 28.702 90.1588C35.5325 84.7689 41.8663 78.3606 44.5488 69.8659C45.1698 67.8788 45.9646 65.2211 44.1018 63.6563C42.214 62.0666 39.4073 63.706 37.7431 64.8734C34.1167 67.4566 31.8565 71.8778 30.1426 75.8519C29.472 77.3919 28.9007 78.9815 28.4288 80.596C28.4288 80.1489 28.4288 79.7019 28.4288 79.2548C28.5281 72.6229 29.0994 66.0159 30.2668 59.4835C31.7571 59.3841 33.2226 58.9122 34.6383 58.3409C36.6999 57.5212 38.7864 56.6519 40.7486 55.6087C42.6611 54.5903 44.4992 53.3732 46.1882 52.0071C47.8027 50.6907 49.442 49.1755 50.6094 47.4369C51.7023 45.7975 52.4474 43.3137 50.7087 41.7986C49.0694 40.3828 46.4862 40.9292 44.673 41.6744C41.0963 43.115 37.8177 45.6237 35.1351 48.3559C33.8932 49.6226 32.7258 50.9887 31.7323 52.479C33.148 46.7414 35.0606 41.1279 37.2712 35.6387C38.7367 34.7196 40.3263 33.9993 41.8415 33.13C43.5305 32.1613 45.1201 31.0684 46.6104 29.8265C48.1007 28.5846 49.4668 27.2185 50.7336 25.753C51.9507 24.3372 53.2919 22.7476 53.9626 20.984C54.2855 20.1395 54.4345 19.146 54.0619 18.3015C53.5652 17.1093 52.4226 16.7615 51.2304 16.836C49.3178 16.9602 47.4301 17.606 45.7659 18.5499C45.3933 18.7486 45.0208 18.9721 44.673 19.1957C45.9398 17.5812 47.1569 15.9419 48.3243 14.2529C49.5662 12.4893 50.7833 10.6761 51.8761 8.78842C52.8945 7.00006 53.7639 5.08751 54.0122 3.02593C54.1364 1.9082 53.9626 0.715965 52.8448 0.19436C51.9258 -0.227892 50.8578 0.0950063 50.0381 0.616611C48.3243 1.7095 46.7843 3.10044 45.4182 4.61558C43.1827 7.12425 41.3695 10.0303 40.0034 13.0855C39.9786 11.0984 39.8047 9.11132 38.9354 7.29812C38.1654 5.65879 36.6751 4.09398 34.7377 4.11882C32.4774 4.14365 31.4839 6.32943 31.0368 8.24198V8.31649ZM98.3238 230.321C99.1932 228.632 100.013 226.919 100.758 225.155C102.223 221.628 103.192 218.076 103.614 214.301C103.614 214.226 103.49 214.201 103.49 214.276C102.521 217.803 101.205 221.33 99.7645 224.708C99.0193 226.397 98.2245 228.061 97.3551 229.676C96.9329 230.471 96.4858 231.265 96.0387 232.06C95.9642 232.184 95.8897 232.309 95.8152 232.433C95.7406 231.986 95.691 231.539 95.6413 231.091C95.5171 229.899 95.4177 228.682 95.3432 227.465C95.219 225.13 95.2935 222.771 95.4426 220.436C95.7158 216.263 96.61 211.767 99.988 208.936C101.404 207.743 103.341 206.849 105.229 207.147C107.117 207.445 107.961 209.408 108.036 211.121C108.135 213.258 107.464 215.493 106.819 217.505C106.173 219.517 105.378 221.479 104.384 223.342C103.242 225.503 101.876 227.564 100.336 229.452C99.6154 230.346 98.8206 231.216 98.0009 232.035C97.6035 232.433 97.2061 232.805 96.7838 233.203C96.8584 233.029 96.9577 232.855 97.0322 232.706C97.4793 231.911 97.9264 231.116 98.3238 230.297V230.321ZM89.6552 235.786C89.3572 235.811 89.0591 235.836 88.7611 235.86C86.3269 236.059 83.8928 236.159 81.4586 236.134C79.0244 236.109 76.5903 235.985 74.1561 235.836C71.6475 235.662 69.1388 235.513 66.655 235.215C66.4811 235.215 66.4066 235.488 66.5804 235.513C68.4433 235.91 70.3062 236.357 72.1939 236.63C74.1313 236.928 76.0935 237.177 78.0557 237.326C81.9554 237.649 85.9543 237.649 89.854 237.301C90.9468 237.202 92.0397 237.102 93.1078 236.904C93.2816 236.879 93.4555 236.829 93.6294 236.804C91.8659 237.798 90.0775 238.717 88.1649 239.387C85.6563 240.257 83.0482 240.778 80.3905 240.952C75.5719 241.25 70.3559 240.48 65.885 238.667C64.1463 237.972 61.9108 236.73 61.4389 234.718C61.2154 233.774 61.8612 233.228 62.656 232.805C63.8234 232.184 65.0901 231.886 66.4066 231.712C71.0017 231.116 75.7209 232.06 80.1422 233.203C82.7253 233.873 85.2837 234.619 87.8669 235.289C88.463 235.438 89.084 235.612 89.6801 235.736L89.6552 235.786ZM77.2113 207.917C77.559 205.458 78.1303 203.074 78.9003 200.714C79.6702 198.355 80.6141 196.045 81.6821 193.784C82.7005 191.599 83.7934 189.413 85.3085 187.525C85.9543 186.705 86.7492 185.96 87.6433 185.389C88.4382 184.892 89.4814 184.346 90.4749 184.52C92.462 184.867 93.0084 187.326 92.9091 189.015C92.5862 193.486 90.3507 197.858 87.7924 201.435C84.8615 205.533 81.1854 208.961 77.41 212.264C78.5774 210.575 79.4715 208.638 80.3905 206.849C81.7567 204.216 82.9986 201.509 84.166 198.777C84.2405 198.628 83.9921 198.553 83.9424 198.702C82.6508 201.335 81.2599 203.918 79.7944 206.427C78.9002 207.942 78.0061 209.457 77.0125 210.898C77.0125 209.88 77.1119 208.886 77.2609 207.892L77.2113 207.917ZM71.9704 214.425C72.0946 214.499 72.2187 214.549 72.3429 214.624C71.5233 214.549 70.7036 214.475 69.9088 214.375C67.8472 214.152 65.8105 213.903 63.7489 213.63C61.7121 213.357 59.6754 212.984 57.6386 212.612C55.5771 212.239 53.4906 211.941 51.4042 211.593C51.2055 211.569 51.1558 211.867 51.3297 211.916C53.5652 212.463 55.8006 213.009 58.0609 213.382C60.2963 213.754 62.5566 214.127 64.7921 214.499C67.0524 214.872 69.2878 215.195 71.5481 215.518C71.8462 215.568 72.1691 215.592 72.4671 215.642C71.5729 215.866 70.6291 215.99 69.7101 216.139C67.3504 216.487 64.9908 216.66 62.6063 216.685C58.3341 216.71 53.7142 216.387 49.8891 214.301C48.1007 213.332 46.4614 212.016 45.294 210.327C45.1698 210.153 45.0704 209.979 44.9711 209.78C44.9711 209.78 44.9711 209.78 44.9959 209.755C45.1946 209.532 45.443 209.259 45.7659 209.06C46.7098 208.464 47.8027 208.191 48.8707 207.992C52.9939 207.272 57.2164 208.116 61.116 209.507C63.5998 210.401 66.0092 211.519 68.3688 212.686C69.5362 213.258 70.7036 213.854 71.871 214.425H71.9704ZM38.836 190.406C42.7356 192.17 46.7595 193.561 50.9571 194.455C52.9939 194.877 55.0555 195.225 57.1419 195.473C57.3157 195.473 57.4648 195.498 57.6386 195.523C57.2164 195.598 56.7941 195.672 56.347 195.722C54.0371 196.069 51.7023 196.293 49.3675 196.268C44.9214 196.194 40.4505 195.299 36.5509 193.039C34.7377 191.971 33.0735 190.68 31.7074 189.09C31.3597 188.692 31.0616 188.295 30.7387 187.898C30.5897 187.699 30.4655 187.5 30.3165 187.301C30.1923 187.128 30.1178 186.854 29.9936 186.656C30.0929 186.581 30.2171 186.432 30.3165 186.382C30.7636 186.084 31.2852 185.861 31.8316 185.712C34.1167 185.116 36.6254 185.389 38.9105 185.836C41.2453 186.283 43.5056 187.078 45.7411 187.873C48.2994 188.792 50.8578 189.736 53.3416 190.779C54.5835 191.3 55.8254 191.872 57.0177 192.518C58.1106 193.114 59.1538 193.759 60.2467 194.356C59.7747 194.331 59.3276 194.306 58.8557 194.256C57.9367 194.182 57.0177 194.082 56.0987 193.983C54.1364 193.735 52.199 193.412 50.2617 193.014C46.4614 192.219 42.686 191.127 39.0596 189.761C38.6622 189.611 38.4883 190.183 38.8609 190.357L38.836 190.406ZM62.9789 186.556C62.9789 184.222 63.2024 181.887 63.6495 179.602C64.5437 175.205 66.3817 170.958 69.0394 167.331C69.7846 166.313 70.5794 165.419 71.7965 164.922C72.8149 164.5 74.0568 164.376 75.1248 164.574C77.6832 165.071 77.9316 167.779 77.8322 169.94C77.6583 174.46 76.3667 178.881 74.1561 182.831C72.1442 186.407 69.4368 189.611 66.1582 192.095C67.1517 190.53 67.9962 188.891 68.6669 187.202C69.8343 184.346 70.4552 181.365 70.803 178.31C70.803 178.211 70.6291 178.161 70.6042 178.26C69.4369 183.7 66.7791 188.792 63.5005 193.263C63.426 192.716 63.4757 192.195 63.4011 191.648C63.3266 191.052 63.2273 190.456 63.1776 189.86C63.0534 188.742 63.0037 187.649 63.0037 186.532L62.9789 186.556ZM51.9755 153.372C52.8697 151.112 53.9626 148.901 55.13 146.765C56.3222 144.629 57.6386 142.443 59.3525 140.705C60.1721 139.885 61.0912 139.165 62.2337 138.892C63.3515 138.643 64.494 138.668 65.6117 138.767C66.6301 138.842 67.2014 139.09 67.5243 140.109C67.8472 141.077 67.7975 142.17 67.6982 143.164C67.4249 145.424 66.4314 147.61 65.3137 149.547C64.0718 151.683 62.5815 153.695 60.9918 155.583C58.4086 158.663 55.4777 161.494 52.3232 163.978C52.4723 163.78 52.6213 163.606 52.7703 163.407C53.8881 161.991 54.7822 160.451 55.6516 158.886C57.3654 155.782 58.5825 152.453 59.6009 149.05C59.6505 148.901 59.4518 148.852 59.3773 148.976C58.1354 152.255 56.5209 155.409 54.7574 158.439C53.8881 159.93 52.969 161.345 51.9258 162.712C51.3049 163.506 50.5846 164.252 49.9388 165.046C49.9388 163.457 49.8891 161.867 50.0878 160.277C50.3858 157.893 51.0813 155.583 51.9755 153.372ZM45.6666 166.462C45.3933 166.388 45.0953 166.313 44.8221 166.239C42.9095 165.767 41.0218 165.171 39.1589 164.5C35.458 163.159 31.8813 161.47 28.4039 159.632C26.392 158.588 24.405 157.57 22.4179 156.452C22.1447 156.303 21.8714 156.676 22.1447 156.875C28.8013 161.594 36.1286 165.344 44.0769 167.381C44.524 167.505 44.9463 167.605 45.3933 167.704C44.2508 167.878 43.1082 168.027 41.9657 168.101C39.6309 168.226 37.2712 168.027 34.9612 167.605C30.4655 166.785 26.1933 164.873 22.5669 162.091C20.5302 160.526 18.5679 158.588 17.3012 156.328C17.0528 155.881 16.7796 155.434 16.7547 154.912C16.7547 154.714 16.7547 154.664 16.8293 154.49C16.8293 154.49 16.8789 154.416 16.9038 154.366C16.9535 154.291 17.1025 154.117 17.0776 154.142C17.6986 153.497 18.5928 153.248 19.5615 153.124C24.9017 152.354 29.8942 155.484 34.3403 157.967C37.1222 159.532 39.8792 161.147 42.2886 163.233C43.456 164.227 44.524 165.394 45.6914 166.437L45.6666 166.462ZM41.1212 126.646C42.0153 124.287 43.1331 122.002 44.3501 119.791C45.5424 117.63 46.7098 115.37 48.2249 113.432C49.6904 111.594 51.7768 110.799 54.1116 110.775C55.0306 110.775 55.8006 110.948 56.2477 111.843C56.6948 112.762 56.7445 113.855 56.6948 114.873C56.5706 117.009 55.7509 119.071 54.7822 120.958C53.6148 123.194 52.2239 125.305 50.6342 127.242C47.9269 130.521 44.6234 133.179 41.1708 135.663C41.4192 135.29 41.6676 134.917 41.8911 134.545C42.8847 132.98 43.8285 131.39 44.7227 129.751C46.4862 126.522 48.0262 123.169 49.4172 119.766C49.442 119.692 49.3178 119.642 49.293 119.716C47.8275 123.119 46.1137 126.373 44.1763 129.528C43.2324 131.068 42.214 132.583 41.1708 134.048C40.6741 134.744 40.1525 135.439 39.6309 136.135C39.457 136.358 39.308 136.582 39.1341 136.78C39.1589 135.663 39.2334 134.57 39.3825 133.452C39.7054 131.117 40.3263 128.857 41.146 126.646H41.1212ZM33.4958 136.11C33.0735 135.961 32.6513 135.787 32.229 135.638C30.1923 134.868 28.2052 133.998 26.243 133.079C22.2689 131.217 18.3196 129.13 14.6932 126.646C14.4448 126.472 14.2212 126.845 14.4448 127.019C16.2331 128.435 18.0463 129.875 19.9341 131.142C21.7721 132.384 23.6846 133.477 25.6469 134.495C27.6091 135.514 29.621 136.433 31.6577 137.252C32.7258 137.675 33.7938 138.072 34.8867 138.42C35.1351 138.494 35.3835 138.594 35.6319 138.668C35.6319 138.668 35.6319 138.718 35.6319 138.743C31.8316 138.941 28.0065 138.494 24.3801 137.327C19.9589 135.911 15.7612 133.651 12.0603 130.894C10.1478 129.453 8.28488 127.739 7.14232 125.603C6.94361 125.231 6.7449 124.759 6.67039 124.461C6.5462 123.989 6.52136 123.666 6.59587 123.293C6.59587 123.219 6.64555 123.094 6.76974 122.945C6.86909 122.821 6.96845 122.722 7.09264 122.647C7.51489 122.374 8.01166 122.3 8.48359 122.324C9.70066 122.349 10.9426 122.722 12.11 123.07C13.3767 123.467 14.5938 123.939 15.8109 124.436C18.2202 125.454 20.5799 126.547 22.865 127.839C25.4978 129.329 27.9072 131.092 30.1674 133.079C31.2852 134.073 32.3532 135.066 33.4709 136.085L33.4958 136.11ZM24.9762 111.718C22.7905 111.098 20.6295 110.402 18.4934 109.607C14.3951 108.092 10.3961 106.08 7.09264 103.174C6.27297 102.454 5.50299 101.659 4.78267 100.814C4.13688 100.069 3.4414 99.2745 3.06883 98.43C2.99431 98.2809 2.9198 98.1567 2.99431 98.0822C3.01915 98.0822 3.09367 98.0574 3.14334 98.0325C3.31721 97.9829 3.4414 97.9332 3.66495 97.9084C4.55913 97.7842 5.5775 98.0077 6.47168 98.2313C10.6694 99.2496 14.8174 101.013 18.4686 103.323C20.6047 104.664 22.5669 106.204 24.3056 108.018C24.7775 108.489 25.2246 109.011 25.6469 109.508C23.8088 108.514 21.9956 107.496 20.1824 106.453C18.2699 105.385 16.3325 104.366 14.3703 103.398C12.259 102.354 10.2223 101.187 8.13585 100.119C8.0365 100.069 7.93714 100.218 8.0365 100.268C9.94905 101.485 11.961 102.603 13.8487 103.845C15.7612 105.087 17.6738 106.304 19.6608 107.446C21.5485 108.539 23.4363 109.632 25.3488 110.675C25.9946 111.023 26.6652 111.396 27.3359 111.743C27.4601 111.917 27.5843 112.116 27.6836 112.29C26.7398 112.166 25.8207 111.942 24.9266 111.669L24.9762 111.718ZM34.2161 103.075C35.1351 101.088 36.1783 99.1503 37.296 97.2626C38.3641 95.4742 39.4818 93.6362 40.9224 92.121C42.2389 90.7052 44.1514 89.0659 46.1633 88.8424C48.0262 88.6437 47.8027 91.2268 47.6785 92.4439C47.2811 96.1945 45.3685 99.7464 43.0089 102.628C41.444 104.54 39.5812 106.204 37.6438 107.719C36.6751 108.465 35.6816 109.185 34.6632 109.831C34.0422 110.253 33.3716 110.7 32.6761 111.048C32.999 110.65 33.3219 110.278 33.6448 109.88C34.7377 108.564 35.8306 107.248 36.849 105.881C38.8857 103.199 40.6492 100.367 41.8415 97.188C41.8663 97.1135 41.7669 97.0639 41.7173 97.1384C40.0283 99.9948 38.1157 102.752 36.0293 105.335C34.9861 106.627 33.8932 107.893 32.7755 109.135C32.4774 109.458 32.1794 109.781 31.8813 110.079C31.9558 109.731 32.0303 109.359 32.1048 109.011C32.5768 106.95 33.2971 104.962 34.1913 103.05L34.2161 103.075ZM22.9892 86.2095C21.3995 85.1663 19.9092 83.9741 18.4189 82.8067C15.2148 80.2731 11.961 77.6403 9.47712 74.3616C8.5581 73.1445 7.68876 71.6542 7.61424 70.0894C7.5894 69.5181 7.66392 68.6985 8.0365 68.2265C8.48358 67.6801 9.37776 68.1272 9.82485 68.4253C13.1284 70.4868 16.0841 73.4426 18.4438 76.5226C19.8347 78.3606 20.9276 80.3725 21.9708 82.4092C22.393 83.2537 22.8153 84.1479 23.2872 85.0173C21.0021 82.8067 18.7915 80.5464 16.6306 78.1867C16.4567 78.0128 16.1835 78.2612 16.3325 78.4351C18.9157 81.4902 21.6727 84.446 24.6285 87.1534C24.0572 86.8801 23.5108 86.5324 22.9643 86.1847L22.9892 86.2095ZM32.0055 78.758C33.4213 75.3303 35.1103 71.7039 37.6686 68.9717C38.3144 68.2762 39.0099 67.6056 39.8047 67.084C40.4505 66.6617 41.3447 66.1153 42.1395 66.0159C42.3879 65.9911 42.2637 65.9166 42.3879 66.0656C42.5866 66.2892 42.4873 66.8108 42.4624 67.0591C42.3382 67.9036 42.0898 68.773 41.8415 69.5927C40.7734 73.07 38.8609 76.2493 36.6006 79.0809C35.16 80.8941 33.5455 82.5831 31.8316 84.1479C32.3781 83.3531 32.8748 82.5583 33.3964 81.7634C34.8867 79.4783 36.079 77.1435 36.8241 74.5106C36.8738 74.2871 36.5757 74.1877 36.5012 74.3865C35.4332 76.7958 33.9429 79.0809 32.4277 81.2667C31.6081 82.4589 30.7636 83.6015 29.8942 84.744C29.9439 84.5702 30.0184 84.3963 30.0681 84.1976C30.6642 82.3596 31.2852 80.5464 32.0055 78.7828V78.758ZM43.1827 45.7479C44.524 44.9779 46.0391 44.0837 47.6288 43.9595C48.0014 43.9347 48.7714 43.9098 48.8955 44.183C49.1191 44.6053 48.5975 45.4995 48.3491 45.8721C47.4301 47.3375 46.1385 48.5298 44.8469 49.6226C43.4311 50.8149 41.916 51.8829 40.3015 52.8019C38.3641 53.8948 36.3025 54.7642 34.2409 55.6087C33.5703 55.8819 32.8997 56.1551 32.2042 56.3787C34.5638 55.0374 36.7496 53.3484 38.7864 51.5849C38.9105 51.4607 38.7367 51.2868 38.6125 51.3862C36.8738 52.6032 35.0606 53.6961 33.2474 54.7642C33.9429 53.8452 34.6632 52.951 35.4083 52.1313C37.6935 49.6475 40.227 47.4369 43.1579 45.7479H43.1827ZM26.9136 51.3116C26.8143 50.9887 26.7398 50.641 26.6404 50.3181C26.2678 48.8775 25.8953 47.4617 25.5475 46.0211C25.5475 45.9466 25.4233 45.9714 25.4233 46.0211C25.5724 47.4865 25.7462 48.9768 25.9201 50.4423C25.9201 50.5665 25.9449 50.6658 25.9698 50.79C25.324 49.4488 24.6782 48.1323 24.1069 46.7414C22.8401 43.6366 21.9211 40.3331 21.9956 36.9551C21.9956 35.5641 22.0702 33.9 22.865 32.7077C22.865 32.7077 23.1382 32.3103 23.2872 32.1613C23.3121 32.1861 23.3617 32.2358 23.4114 32.2606C24.0324 32.7326 24.4298 33.5026 24.7527 34.198C25.4482 35.7628 25.7959 37.4767 26.1188 39.1657C26.4665 40.9292 26.7149 42.7176 26.8391 44.5059C26.9881 46.3688 27.013 48.2317 26.9633 50.0946C26.9633 50.5168 26.9136 50.9142 26.8888 51.3365L26.9136 51.3116ZM49.1936 20.2886C49.5413 20.1644 49.9139 20.065 50.2617 19.9905C50.6094 19.916 51.0565 19.9408 51.4291 19.8415C51.3545 20.1147 51.28 20.4873 51.2552 20.537C50.982 21.2573 50.4852 21.8782 50.0381 22.4992C49.5165 23.1947 48.9701 23.8901 48.3988 24.5359C47.2811 25.8275 46.0143 26.9949 44.6979 28.0878C43.2572 29.2552 41.6924 30.2984 40.0531 31.1926C39.6805 31.3913 39.2831 31.59 38.9105 31.7639C38.9354 31.6894 38.9851 31.59 39.0347 31.5155C39.8792 30.7207 40.6244 29.8016 41.3944 28.9571C42.3879 27.8643 43.4311 26.821 44.4992 25.8027C44.5737 25.753 44.4992 25.6536 44.3998 25.7033C43.2076 26.6472 42.0402 27.6159 40.8728 28.5846C40.5499 28.8578 40.227 29.131 39.9041 29.4042C40.376 28.2865 40.8976 27.1936 41.5434 26.1504C42.4376 24.7595 43.605 23.6169 44.9214 22.6482C46.213 21.6795 47.6288 20.8102 49.1688 20.2637L49.1936 20.2886ZM45.6169 8.8381C46.6353 7.44715 47.753 6.13072 49.0446 4.96332C49.7152 4.34236 50.4355 3.74624 51.2055 3.22464C51.3297 3.12528 51.4291 3.07561 51.5284 3.00109C51.3297 4.64042 50.6094 6.1804 49.8146 7.62102C48.8459 9.33487 47.7281 10.9494 46.5856 12.5638C45.2195 14.5012 43.8037 16.4138 42.3382 18.2518C41.5682 19.2205 40.6989 20.1644 39.8792 21.1331C39.9289 21.0089 39.9538 20.8598 40.0034 20.7357C41.0715 19.0467 41.9905 17.2335 42.9592 15.4948C43.0089 15.3954 42.8847 15.2961 42.8102 15.3954C42.1892 16.2648 41.5434 17.1589 40.8976 18.0283C42.065 14.7745 43.5801 11.6448 45.6169 8.8381ZM34.9861 7.29812C35.5325 7.47199 35.9299 7.84457 36.2777 8.39101C37.147 9.75712 37.2464 11.5952 37.2712 13.1848C37.2712 15.0477 37.2215 16.9106 37.1222 18.7734C36.998 20.8599 36.8241 22.9463 36.6751 25.0327C36.6751 25.1072 36.6751 25.2066 36.6751 25.2811C36.6006 26.1256 36.5012 26.9701 36.3522 27.7897C36.3522 27.3427 36.3025 26.8707 36.2777 26.4236C36.228 25.3307 36.2032 24.2379 36.1535 23.1698C36.079 20.9592 35.9299 18.7238 35.8306 16.5131C35.8306 16.4635 35.7561 16.4386 35.7561 16.5131C35.7561 18.7734 35.7312 21.0089 35.7561 23.2692C35.7561 24.0888 35.7561 24.8837 35.7561 25.7033C35.5077 24.7843 35.2345 23.8653 34.9612 22.9463C33.9925 19.4689 33.5951 15.9419 33.7442 12.3403C33.7938 10.8252 33.8435 8.98713 34.5887 7.62102C34.6135 7.57134 34.7377 7.39748 34.8122 7.32296C34.7625 7.39748 34.9861 7.29812 34.8371 7.27328C34.9364 7.27328 34.9612 7.27328 35.0109 7.27328L34.9861 7.29812Z" fill="#E3ACAC"/>
<path d="M18.2863 64.7673C18.7334 65.7112 20.0002 66.2079 20.944 65.6863C21.8879 65.1647 22.3598 64.0222 21.863 63.0286C21.416 62.0848 20.1492 61.588 19.2053 62.1096C18.2615 62.6312 17.7896 63.7738 18.2863 64.7673Z" fill="#E3ACAC"/>
<path d="M32.9895 62.8845C33.4365 63.8284 34.7033 64.3251 35.6472 63.8035C36.591 63.2819 37.0629 62.1394 36.5662 61.1458C36.1191 60.202 34.8523 59.7052 33.9085 60.2268C32.9646 60.7484 32.4927 61.891 32.9895 62.8845Z" fill="#E3ACAC"/>
<path d="M40.466 38.9392C40.9131 39.8831 42.1799 40.3798 43.1237 39.8582C44.0676 39.3366 44.5395 38.194 44.0427 37.2005C43.5956 36.2567 42.3289 35.7599 41.385 36.2815C40.4412 36.8031 39.9693 37.9457 40.466 38.9392Z" fill="#E3ACAC"/>
<path d="M28.0441 29.8376C28.4912 30.7815 29.758 31.2783 30.7018 30.7566C31.6457 30.235 32.1176 29.0925 31.6209 28.0989C31.1738 27.1551 29.907 26.6583 28.9632 27.1799C28.0193 27.7015 27.5474 28.8441 28.0441 29.8376Z" fill="#E3ACAC"/>
<path d="M16.1301 94.7126C16.5772 95.6565 17.8439 96.1533 18.7878 95.6317C19.7316 95.1101 20.2036 93.9675 19.7068 92.974C19.2597 92.0301 17.993 91.5333 17.0491 92.0549C16.1052 92.5765 15.6333 93.7191 16.1301 94.7126Z" fill="#E3ACAC"/>
<path d="M32.8723 91.1579C33.3194 92.1018 34.5861 92.5986 35.53 92.077C36.4738 91.5554 36.9458 90.4128 36.449 89.4193C36.0019 88.4754 34.7351 87.9786 33.7913 88.5002C32.8474 89.0218 32.3755 90.1644 32.8723 91.1579Z" fill="#E3ACAC"/>
<path d="M37.8254 115.205C38.2725 116.149 39.5392 116.645 40.4831 116.124C41.427 115.602 41.8989 114.46 41.4021 113.466C40.955 112.522 39.6883 112.026 38.7444 112.547C37.8006 113.069 37.3286 114.211 37.8254 115.205Z" fill="#E3ACAC"/>
<path d="M21.7004 120.791C22.1475 121.735 23.4142 122.231 24.3581 121.71C25.302 121.188 25.7739 120.046 25.2771 119.052C24.83 118.108 23.5633 117.611 22.6194 118.133C21.6756 118.655 21.2036 119.797 21.7004 120.791Z" fill="#E3ACAC"/>
<path d="M28.2941 148.033C28.7412 148.977 30.008 149.474 30.9518 148.952C31.8957 148.43 32.3676 147.288 31.8709 146.294C31.4238 145.35 30.157 144.854 29.2132 145.375C28.2693 145.897 27.7974 147.039 28.2941 148.033Z" fill="#E3ACAC"/>
<path d="M48.2082 140.213C48.6553 141.156 49.922 141.653 50.8659 141.132C51.8098 140.61 52.2817 139.467 51.7849 138.474C51.3378 137.53 50.0711 137.033 49.1272 137.555C48.1834 138.077 47.7114 139.219 48.2082 140.213Z" fill="#E3ACAC"/>
<path d="M58.0051 169.424C58.4522 170.367 59.7189 170.864 60.6628 170.343C61.6066 169.821 62.0786 168.678 61.5818 167.685C61.1347 166.741 59.868 166.244 58.9241 166.766C57.9802 167.287 57.5083 168.43 58.0051 169.424Z" fill="#E3ACAC"/>
<path d="M41.9973 178.853C42.4444 179.797 43.7111 180.294 44.655 179.772C45.5988 179.251 46.0708 178.108 45.574 177.115C45.1269 176.171 43.8601 175.674 42.9163 176.196C41.9724 176.717 41.5005 177.86 41.9973 178.853Z" fill="#E3ACAC"/>
<path d="M71.945 185.451C71.4979 184.507 71.8704 183.216 72.864 182.794C73.8575 182.371 75.0498 182.719 75.5217 183.713C75.9688 184.656 75.5962 185.948 74.6027 186.37C73.6091 186.792 72.4169 186.445 71.945 185.451Z" fill="#E3ACAC"/>
<path d="M57.5856 194.67C57.1385 193.726 57.5111 192.435 58.5046 192.012C59.4981 191.59 60.6904 191.938 61.1623 192.931C61.6094 193.875 61.2368 195.167 60.2433 195.589C59.2498 196.011 58.0575 195.663 57.5856 194.67Z" fill="#E3ACAC"/>
<path d="M40.2575 172.662C39.8104 171.718 40.1829 170.427 41.1765 170.004C42.17 169.582 43.3623 169.93 43.8342 170.923C44.2813 171.867 43.9087 173.159 42.9152 173.581C41.9216 174.003 40.7294 173.656 40.2575 172.662Z" fill="#E3ACAC"/>
<path d="M58.7106 161.834C58.2635 160.89 58.6361 159.599 59.6296 159.176C60.6231 158.754 61.8154 159.102 62.2873 160.095C62.7344 161.039 62.3618 162.331 61.3683 162.753C60.3748 163.175 59.1825 162.828 58.7106 161.834Z" fill="#E3ACAC"/>
<path d="M41.8043 136.084C41.3572 135.14 41.7298 133.849 42.7233 133.426C43.7169 133.004 44.9091 133.352 45.3811 134.345C45.8281 135.289 45.4556 136.581 44.462 137.003C43.4685 137.425 42.2763 137.078 41.8043 136.084Z" fill="#E3ACAC"/>
<path d="M24.4996 142.842C24.0526 141.898 24.4251 140.606 25.4187 140.184C26.4122 139.762 27.6044 140.11 28.0764 141.103C28.5235 142.047 28.1509 143.339 27.1573 143.761C26.1638 144.183 24.9716 143.835 24.4996 142.842Z" fill="#E3ACAC"/>
<path d="M57.8098 203.166C58.2569 204.11 59.5236 204.606 60.4675 204.085C61.4113 203.563 61.8833 202.421 61.3865 201.427C60.9394 200.483 59.6726 199.986 58.7288 200.508C57.7849 201.03 57.313 202.172 57.8098 203.166Z" fill="#E3ACAC"/>
<path d="M72.1926 195.619C72.6397 196.563 73.9064 197.059 74.8503 196.538C75.7941 196.016 76.2661 194.874 75.7693 193.88C75.3222 192.936 74.0555 192.44 73.1116 192.961C72.1677 193.483 71.6958 194.625 72.1926 195.619Z" fill="#E3ACAC"/>
<path d="M86.1066 215.588C86.5537 216.531 87.8205 217.028 88.7643 216.507C89.7082 215.985 90.1801 214.842 89.6834 213.849C89.2363 212.905 87.9695 212.408 87.0257 212.93C86.0818 213.452 85.6099 214.594 86.1066 215.588Z" fill="#E3ACAC"/>
<path d="M71.8176 224.978C72.2647 225.922 73.5314 226.419 74.4753 225.897C75.4191 225.376 75.8911 224.233 75.3943 223.24C74.9472 222.296 73.6805 221.799 72.7366 222.321C71.7927 222.842 71.3208 223.985 71.8176 224.978Z" fill="#E3ACAC"/>
</svg>
