<svg width="399" height="77" viewBox="0 0 399 77" fill="none" xmlns="http://www.w3.org/2000/svg">
<g clip-path="url(#clip0_31_74)">
<path d="M377.842 40.0163C378.559 39.1948 379.231 38.3286 379.873 37.4474C379.918 37.4474 379.978 37.4324 380.023 37.4026C382.218 36.6707 384.22 35.6551 386.191 34.4602C388.133 33.2952 390.104 32.1303 391.822 30.6666C393.524 29.2178 394.958 27.4255 396.303 25.6482C397.542 24.0053 399.17 21.6156 398.483 19.4499C398.349 19.0317 398.005 18.8226 397.647 18.7778C396.661 18.3447 395.616 18.733 394.66 19.1512C393.853 19.5096 393.062 19.898 392.27 20.3162C390.687 21.1376 389.133 22.0487 387.67 23.0793C384.698 25.1404 381.949 27.6794 379.963 30.7114C379.41 31.5627 378.947 32.4887 378.574 33.4446C378.38 33.9375 378.215 34.4304 378.111 34.9531C378.036 35.3564 378.051 35.7148 378.081 36.1032C376.065 38.224 373.929 40.1955 371.674 42.0326C371.689 41.9729 371.718 41.9131 371.733 41.8683C372.122 40.8826 372.495 39.8819 372.868 38.8812C373.615 36.8499 374.317 34.8187 374.721 32.6829C375.109 30.577 375.393 28.3964 375.542 26.2606C375.617 25.1852 375.587 24.1098 375.408 23.0344C375.258 22.1383 375.094 20.6597 374.078 20.346C373.735 20.2415 373.406 20.4207 373.212 20.7045C373.167 20.7642 373.137 20.824 373.107 20.8837C372.271 21.5558 371.808 22.6163 371.33 23.5572C370.837 24.543 370.404 25.5586 369.986 26.5742C369.194 28.486 368.537 30.4575 368.134 32.5037C367.731 34.5349 367.536 36.6259 367.701 38.687C367.79 39.7624 367.97 40.8079 368.253 41.8384C368.418 42.406 368.612 43.1976 369 43.7801C369 43.8846 369 43.9892 369.03 44.0937C365.072 47.0211 360.815 49.5004 356.305 51.4869C356.574 51.1882 356.857 50.9044 357.126 50.6057C357.903 49.7693 358.605 48.8582 359.247 47.9322C360.502 46.125 361.517 44.1684 362.339 42.1222C363.922 38.1045 364.684 33.7433 364.848 29.4269C364.893 28.1873 364.923 26.9327 364.818 25.693C364.714 24.4683 364.46 22.9299 363.489 22.0786C363.325 21.9441 363.16 21.8695 362.981 21.8545C362.652 21.75 362.264 21.8097 361.891 22.1084C360.263 23.4078 358.934 25.2897 357.769 26.9924C356.604 28.6951 355.603 30.5172 354.796 32.429C353.004 36.611 352.048 41.1514 352.078 45.7068C352.078 47.0361 352.183 48.3504 352.347 49.6647C352.422 50.307 352.541 50.9343 352.69 51.5616C352.765 51.8752 352.84 52.2038 352.944 52.5174C352.974 52.622 353.019 52.7265 353.064 52.8311C352.466 53.0551 351.854 53.2792 351.242 53.4883C342.221 56.5949 332.721 57.8047 323.207 57.7151C323.76 57.506 324.313 57.267 324.85 57.0131C327.001 56.0124 329.062 54.7877 331.079 53.5629C334.962 51.2031 338.681 48.2757 341.085 44.3626C341.713 43.3469 342.221 42.2417 342.624 41.1215C342.833 40.554 342.982 39.9715 343.102 39.389C343.221 38.7617 343.356 38.0597 343.132 37.4474C343.027 37.1636 342.803 36.9844 342.549 36.9396C342.4 36.835 342.22 36.7753 342.011 36.7603C340.846 36.7305 339.711 37.1337 338.621 37.5071C337.516 37.8954 336.425 38.3286 335.35 38.8065C333.274 39.7325 331.288 40.8676 329.436 42.182C325.746 44.7808 322.595 48.0218 320.19 51.8304C319.518 52.8759 318.921 53.9662 318.413 55.0864C318.159 55.639 317.905 56.2215 317.726 56.804C317.651 57.0429 317.607 57.2819 317.577 57.5358C316.471 57.4761 315.366 57.3865 314.261 57.2969C304.209 56.4156 294.382 54.2201 284.658 51.5914C286.197 51.6661 287.735 51.6661 289.259 51.5616C292.096 51.3823 294.919 50.8895 297.682 50.2622C302.985 49.0673 308.257 47.5588 313.35 45.662C318.204 43.8548 322.924 41.5995 327.18 38.6273C329.406 37.074 331.512 35.3564 333.438 33.4446C334.364 32.5186 335.231 31.5478 336.037 30.5172C336.754 29.6061 337.456 28.6801 338.024 27.6794C338.098 27.6794 338.188 27.6944 338.263 27.7093C339.323 27.784 340.488 27.3807 341.354 26.7833C343.296 25.4242 342.967 22.0935 340.981 20.9285C339.114 19.8233 336.231 20.7941 335.32 22.7357C334.887 23.6617 334.768 24.767 335.156 25.7229C335.335 26.1859 335.604 26.6638 336.007 26.9775C334.842 28.471 333.707 29.9646 332.393 31.3536C330.84 32.9965 329.137 34.52 327.315 35.8791C324.343 38.1045 321.116 39.9715 317.741 41.5397C318.667 40.4793 319.503 39.3442 320.295 38.1941C321.236 36.8051 322.102 35.3713 322.879 33.8777C323.028 33.579 323.192 33.2803 323.342 32.9517C323.566 32.9517 323.805 32.9517 324.029 32.9069C325.194 32.7725 326.195 32.2049 326.747 31.1445C327.315 30.0691 327.27 28.6503 326.672 27.5898C325.433 25.454 321.953 25.7378 320.653 27.6346C320.22 28.2769 319.996 29.2327 320.146 30.0841C320.086 30.7711 320.37 31.5179 320.863 32.0257C320.967 32.1303 321.072 32.2199 321.176 32.3095C321.072 32.5186 320.967 32.7277 320.863 32.9368C320.161 34.3407 319.384 35.7148 318.533 37.0292C317.696 38.3435 316.8 39.5981 315.844 40.8228C315.247 41.5845 314.619 42.406 313.917 43.1378C309.915 44.7061 305.807 45.9756 301.64 47.0809C301.73 47.0062 301.805 46.9315 301.894 46.8419C303.164 45.647 304.179 44.1236 305.061 42.63C307.077 39.1948 308.615 35.5207 309.407 31.5926C309.661 30.3081 309.9 29.0087 310.064 27.6944C310.094 27.6794 310.124 27.6496 310.139 27.6346C310.288 27.5749 310.437 27.5002 310.572 27.4255C311.573 26.843 312.11 25.7826 312.23 24.6624C312.454 22.3773 310.841 19.8382 308.302 20.5402C307.286 20.824 306.345 21.6156 305.777 22.4968C305.165 23.4526 305.12 24.6176 305.329 25.693C305.553 26.8132 306.3 27.6794 307.376 28.0528C307.555 28.1126 307.719 28.1574 307.898 28.1873C307.809 28.8145 307.719 29.4568 307.615 30.0841C307.286 31.966 306.838 33.8479 306.181 35.6551C305.539 37.4175 304.747 39.1052 303.881 40.7631C303.119 42.2118 302.283 43.6457 301.267 44.9152C300.714 45.6172 300.132 46.2893 299.49 46.9016C299.191 47.2003 298.892 47.4991 298.578 47.7828C298.519 47.8276 298.474 47.8725 298.414 47.9173C293.291 49.1569 288.138 49.9186 282.836 49.6797C280.327 49.5751 277.803 49.3063 275.324 48.9478C275.204 48.9179 275.1 48.8881 274.98 48.8433C270.066 47.4094 265.152 45.9308 260.224 44.5567C261.553 44.5119 262.882 44.4074 264.182 44.2879C267.139 44.0191 270.096 43.571 272.994 42.869C278.117 41.6293 283.284 39.7325 287.362 36.2674C288.437 35.3564 289.393 34.3109 290.244 33.1758C291.2 31.9062 292.007 30.4276 292.081 28.8145C292.096 28.3067 291.678 27.8736 291.2 27.8139C290.976 27.784 290.782 27.8139 290.603 27.9184C289.289 27.6496 287.959 27.6048 286.615 27.6048C285.166 27.6048 283.732 27.6645 282.299 27.8288C279.371 28.1424 276.474 28.7249 273.651 29.5912C268.453 31.1893 263.524 33.7433 259.253 37.1188C258.118 38.0149 257.027 38.9559 255.982 39.9566C255.459 40.4494 254.936 40.9871 254.503 41.5397C254.264 41.8384 254.04 42.1521 253.831 42.4807C253.742 42.6151 253.682 42.7047 253.637 42.8093C248.051 41.3904 242.42 40.1806 236.7 39.3741C236.386 39.3293 236.073 39.2844 235.759 39.2396C238.806 38.7916 241.808 38.1045 244.75 37.1935C251.83 35.0128 258.82 31.6673 264.57 26.9775C266.078 25.7378 267.497 24.3936 268.767 22.9C269.394 22.1532 269.992 21.3766 270.544 20.5701C270.738 20.2863 270.933 19.9876 271.112 19.7038C271.799 19.6739 272.501 19.3901 273.053 18.9719C274.263 18.0609 274.323 16.3283 273.367 15.2082C272.471 14.1477 270.843 13.9386 269.678 14.7004C268.483 15.4919 267.945 17.1797 268.603 18.4791C268.812 18.8823 269.095 19.181 269.439 19.3752C268.976 20.0772 268.468 20.7493 267.945 21.3915C266.87 22.7059 265.675 23.9157 264.406 25.0358C261.837 27.2911 258.939 29.1581 255.937 30.7861C254.488 31.5776 252.995 32.3095 251.486 32.9816C251.621 32.8472 251.755 32.6978 251.875 32.5634C253.174 31.1445 254.444 29.6061 255.519 28.008C256.624 26.3502 257.49 24.5728 258.237 22.7357C258.775 21.4513 259.283 20.122 259.701 18.7778C260 18.733 260.298 18.6434 260.582 18.494C261.239 18.3895 261.837 18.031 262.195 17.329C262.867 16.0147 262.18 14.4016 260.896 13.7594C259.492 13.0574 257.774 14.1477 257.132 15.4471C256.639 16.4478 257.072 17.5979 257.894 18.255C257.535 19.5395 257.207 20.8389 256.759 22.1084C256.131 23.8559 255.28 25.4839 254.205 26.9924C253.144 28.4561 252.024 29.875 250.844 31.2491C250.277 31.9062 249.694 32.5634 249.067 33.1758C248.589 33.6388 247.932 34.0868 247.513 34.6395C243.421 36.148 239.164 37.2532 234.848 37.9253C233.086 38.1941 231.308 38.4032 229.531 38.5675C227.769 38.4331 225.991 38.3286 224.229 38.2838C226.185 37.3428 228.007 36.148 229.665 34.744C233.175 31.7867 235.834 27.7093 237.163 23.3033C237.551 22.0338 237.82 20.7344 237.985 19.42C238.149 18.1206 238.388 16.6719 237.701 15.477C237.566 15.238 237.342 15.1335 237.103 15.1185C236.939 15.0737 236.745 15.0737 236.521 15.1484C232.488 16.5374 229.023 19.4648 225.976 22.3623C222.899 25.2897 220.166 28.6652 218.389 32.5485C217.896 33.6388 217.418 34.7589 217.104 35.909C216.91 36.6408 216.612 37.5668 216.582 38.4182C210.802 38.8065 205.066 39.8371 199.555 41.7936C198.196 42.2716 196.867 42.8989 195.537 43.4963C195.388 43.556 195.493 43.795 195.642 43.7502C202.512 41.5248 209.726 40.4644 216.97 40.2403C217.119 40.7183 217.358 41.1813 217.553 41.5397C218.195 42.7196 218.882 43.8846 219.584 45.0197C220.928 47.1854 222.481 49.2615 224.274 51.0836C227.53 54.3993 231.622 56.8936 235.998 58.432C238.164 59.1937 240.538 59.821 242.854 59.8957C243.75 60.1048 244.735 60.045 245.557 59.806C246.229 59.6119 246.558 58.9398 246.423 58.2826C246.199 57.1475 245.527 56.1617 244.87 55.2357C244.183 54.2649 243.436 53.3389 242.644 52.4428C241.136 50.7252 239.493 49.142 237.82 47.5887C236.088 45.9906 234.37 44.3028 232.369 43.0482C230.606 41.943 228.62 41.1813 226.663 40.4345C228.874 40.5838 231.084 40.7929 233.265 41.0767C240.195 41.943 247.021 43.4515 253.757 45.2288C253.771 45.3931 253.786 45.5724 253.816 45.7367C253.921 46.4984 254.115 47.2452 254.384 47.977C254.892 49.4258 255.579 50.8297 256.326 52.159C257.789 54.7429 259.447 57.2371 261.314 59.5671C265.033 64.2419 269.842 67.6771 275.398 69.8129C276.877 70.3805 278.4 70.8584 279.939 71.2468C281.552 71.65 283.269 72.0682 284.942 72.0981C285.659 72.0981 286.062 71.5007 286.062 70.9032C286.062 70.8286 286.062 70.7389 286.033 70.6643C286.003 70.5149 285.943 70.3805 285.853 70.261C285.629 69.798 285.405 69.3649 285.107 68.9317C284.718 68.3642 284.315 67.8265 283.912 67.2739C283.12 66.2134 282.314 65.1829 281.447 64.1822C279.76 62.2107 277.997 60.3139 276.145 58.4917C272.411 54.8325 268.319 51.4421 264.032 48.44C263.763 48.2608 263.495 48.0666 263.226 47.8874C266.078 48.7238 268.931 49.5901 271.784 50.4414C284.688 54.3247 297.638 58.0436 311.05 59.6268C313.006 59.8658 314.978 60.045 316.949 60.1794C316.919 60.986 317.308 61.897 317.577 62.5841C317.995 63.6146 318.503 64.5855 319.115 65.5115C320.414 67.4531 322.072 69.096 323.939 70.5C325.866 71.9487 328.002 73.0689 330.212 74.0099C332.557 74.9956 334.977 75.8171 337.516 76.0859C340.368 76.3697 343.445 75.8021 346.119 74.7566C346.343 74.7268 346.537 74.6372 346.701 74.4878C347.299 74.0696 347.358 73.3079 347 72.8299C346.761 72.128 346.223 71.4708 345.82 70.9331C345.178 70.0967 344.506 69.2902 343.729 68.5434C342.25 67.1245 340.578 65.9147 338.815 64.8692C335.425 62.8679 331.661 61.3892 327.852 60.4035C335.051 60.1645 342.221 59.119 349.136 57.0579C350.719 56.5799 352.287 56.0572 353.826 55.4896C353.855 55.6987 353.93 55.9078 354.035 56.1468C354.303 56.7741 354.692 57.3267 355.14 57.8345C355.991 58.7755 357.007 59.582 358.112 60.2093C360.233 61.434 362.638 62.2256 365.012 62.7036C369.911 63.7192 375.034 63.54 379.843 62.1808C382.502 61.434 385.31 60.3885 387.505 58.6709C387.909 58.3573 387.879 57.6553 387.595 57.2819C387.595 57.267 387.565 57.2521 387.55 57.2371C387.311 56.6098 386.594 56.0572 386.087 55.7286C385.161 55.1461 384.145 54.713 383.114 54.3396C381.053 53.5629 378.888 53.1149 376.722 52.8162C374.482 52.5025 372.226 52.3233 369.956 52.159C367.596 51.9798 365.221 51.8155 362.847 51.8304C362.563 51.8304 362.279 51.8304 362.01 51.8453C362.891 51.3823 363.758 50.9044 364.609 50.4115C366.745 49.1719 368.866 47.7978 370.882 46.2743C371.405 46.7822 372.301 47.0361 372.928 47.2452C373.974 47.5737 375.049 47.7978 376.124 47.9919C378.275 48.3504 380.471 48.4549 382.651 48.3056C385.713 48.0816 389.059 47.3796 391.463 45.423C392.076 45.0197 392.643 44.5418 393.151 44.0041C393.689 43.4366 393.599 42.4956 392.897 42.0924C389.552 40.1507 385.25 40.6585 381.591 41.1514C379.679 41.4202 377.782 41.7936 375.945 42.3761C375.706 42.4508 375.482 42.5255 375.258 42.6002C376.124 41.7787 376.946 40.9274 377.723 40.0312L377.842 40.0163ZM380.351 34.4901C380.68 33.7284 381.098 33.0115 381.561 32.3244C382.457 30.9802 383.488 29.7555 384.653 28.6353C386.968 26.3651 389.686 24.543 392.524 23.0046C393.33 22.5714 394.137 22.1682 394.973 21.7799C395.362 21.6006 395.765 21.3915 396.168 21.2272C396.228 21.1974 396.288 21.1824 396.347 21.1675C396.183 21.6006 395.974 22.0338 395.78 22.3922C395.332 23.2286 394.764 24.0053 394.182 24.7521C392.912 26.3502 391.598 27.9483 390.03 29.2626C388.461 30.562 386.669 31.5776 384.936 32.6381C384.055 33.1608 383.174 33.6985 382.248 34.1914C384.22 32.3244 386.221 30.4724 388.297 28.7399C388.402 28.6503 388.267 28.486 388.163 28.5606C385.37 30.5023 382.681 32.5485 380.217 34.8934C380.262 34.7589 380.321 34.6395 380.381 34.505L380.351 34.4901ZM234.206 21.1077C228.829 26.3502 223.96 32.1004 218.643 37.4026C218.688 37.2532 218.732 37.1188 218.777 36.9694C219.091 36.0583 219.419 35.1473 219.808 34.2511C220.629 32.429 221.645 30.6964 222.81 29.0685C225.17 25.7677 228.202 22.9299 231.398 20.4506C232.966 19.2408 234.639 18.1206 236.491 17.3738C236.461 18.0161 236.312 18.6732 236.207 19.2557C236.013 20.2863 235.774 21.3019 235.475 22.2877C234.848 24.289 233.967 26.2157 232.847 27.9931C230.636 31.488 227.485 34.3258 223.826 36.2226C222.825 36.7454 221.794 37.1785 220.734 37.5519C220.39 37.6714 220.047 37.7759 219.718 37.8805C224.766 32.4738 229.845 27.1119 234.43 21.3019C234.549 21.1526 234.355 20.9584 234.221 21.0928L234.206 21.1077ZM230.412 44.6762C232.354 45.7516 233.937 47.2601 235.565 48.7686C237.133 50.2174 238.701 51.696 240.15 53.2792C240.927 54.1305 241.689 54.9968 242.391 55.9228C242.809 56.4605 243.257 57.028 243.615 57.6404C243.6 57.6404 243.585 57.6404 243.57 57.6404C241.674 57.2819 239.792 56.9981 237.94 56.4306C235.953 55.8182 234.041 54.9968 232.219 53.9662C228.47 51.8453 225.289 48.8881 222.78 45.3782C222.033 44.3178 221.301 43.2424 220.599 42.1521C222.84 44.0489 224.931 46.1399 227.141 48.0816C230.039 50.6206 233.295 52.8012 236.999 53.9214C237.044 53.9214 237.073 53.8766 237.029 53.8467C233.474 52.1739 230.517 49.5004 227.664 46.8419C225.588 44.9003 223.572 42.8839 221.406 41.0319C222.436 41.3456 223.467 41.6891 224.468 42.0924C226.469 42.8989 228.53 43.6606 230.427 44.721L230.412 44.6762ZM256.146 42.3164C256.146 42.3164 256.072 42.3164 256.042 42.3164C256.325 42.0774 256.609 41.8235 256.908 41.5845C257.849 40.778 258.79 39.9864 259.776 39.2396C261.822 37.7013 263.987 36.2973 266.243 35.0875C270.933 32.5783 276.056 30.8757 281.343 30.1737C282.911 29.9646 284.494 29.8451 286.077 29.8003C287.257 29.7555 288.437 29.8152 289.632 29.8003C287.705 33.6238 284.181 36.2077 280.297 38C275.563 40.1955 270.26 41.5696 265.078 42.0924C263.539 42.2417 261.986 42.3313 260.433 42.3612C260.373 42.3612 260.313 42.3612 260.254 42.3612C261.971 41.8235 263.674 41.2261 265.347 40.5839C268.886 39.2247 272.381 37.6863 275.802 36.0434C277.758 35.1025 279.7 34.1018 281.656 33.1459C281.746 33.1011 281.686 32.9368 281.582 32.9816C274.457 35.6103 267.512 38.7318 260.313 41.1514C259.313 41.48 258.297 41.7787 257.281 42.0625C256.923 42.167 256.535 42.2417 256.161 42.3313L256.146 42.3164ZM268.334 54.5636C272.262 57.73 275.981 61.1951 279.356 64.9439C280.312 66.0043 281.238 67.0947 282.164 68.185C282.508 68.5882 282.836 68.9915 283.165 69.3947C282.538 69.2753 281.91 69.1707 281.283 69.0214C279.924 68.7077 278.595 68.3343 277.28 67.8713C274.756 67.005 272.351 65.8401 270.111 64.3764C265.406 61.2996 261.956 56.789 259.044 52.0544C258.222 50.7102 257.416 49.3361 256.789 47.8874C256.789 47.8575 256.774 47.8426 256.759 47.8127C257.446 48.6342 258.103 49.4556 258.775 50.2771C260.179 52.0246 261.568 53.8019 263.047 55.5046C265.765 58.5963 268.842 61.2399 272.59 63.0172C272.68 63.062 272.755 62.9425 272.665 62.8828C269.185 60.7321 266.362 57.6254 263.749 54.5188C262.345 52.846 261.015 51.0986 259.671 49.381C259.253 48.8433 258.82 48.2906 258.402 47.753C261.986 49.5303 265.242 52.0694 268.334 54.5487V54.5636ZM319.638 56.2066C320.19 55.3253 320.758 54.4441 321.34 53.5779C322.52 51.8453 323.894 50.2323 325.343 48.7088C328.3 45.6022 331.825 43.0632 335.709 41.241C336.769 40.7481 337.844 40.3001 338.95 39.9117C339.681 39.6578 340.458 39.4637 341.205 39.2098C341.1 39.5384 340.996 39.8819 340.876 40.2105C340.533 41.1813 340.07 42.0924 339.547 42.9586C338.472 44.7509 337.113 46.3341 335.574 47.738C333.916 49.2465 332.079 50.5011 330.182 51.696C328.211 52.9356 326.195 54.1604 324.104 55.1909C323.088 55.6838 322.042 56.0572 320.982 56.4007C321.34 55.9975 321.699 55.6091 322.072 55.2059C323.342 53.8766 324.656 52.5921 325.985 51.3226C328.734 48.7088 331.721 46.349 334.902 44.2879C334.992 44.2282 334.902 44.1087 334.827 44.1535C331.556 46.0951 328.435 48.2757 325.493 50.6804C324.014 51.8901 322.625 53.2045 321.311 54.5786C320.653 55.2656 319.996 55.9526 319.369 56.6696C319.459 56.5202 319.563 56.3559 319.653 56.2066H319.638ZM331.332 64.2121C334.902 65.5563 338.457 67.3486 341.309 69.9175C342.101 70.6344 342.848 71.3961 343.505 72.2176C343.654 72.4117 343.804 72.6358 343.953 72.8598C342.235 73.2631 340.533 73.6514 338.74 73.6215C336.425 73.5767 334.17 72.8299 332.034 72.0085C328.091 70.485 324.328 68.185 321.714 64.7946C321.057 63.9283 320.489 63.0023 319.996 62.0315C319.877 61.8074 319.787 61.5535 319.683 61.2847C320.086 61.673 320.549 62.0315 320.863 62.3302C321.624 63.0322 322.371 63.7192 323.192 64.3465C324.806 65.6011 326.583 66.6615 328.375 67.6622C330.093 68.633 331.87 69.4993 333.767 70.0668C335.753 70.6493 337.814 71.0078 339.861 71.3065C339.965 71.3214 340.025 71.1571 339.905 71.1422C337.934 70.8136 335.948 70.4701 334.051 69.8129C332.154 69.1558 330.466 68.1999 328.838 67.0648C327.195 65.9297 325.493 64.8543 323.984 63.5549C323.222 62.9127 322.505 62.2256 321.789 61.5386C322.789 61.7327 323.775 61.9269 324.761 62.1659C326.986 62.6886 329.197 63.3607 331.347 64.1822L331.332 64.2121ZM355.349 47.4543C355.14 48.3355 354.901 49.3063 354.766 50.2622C354.692 50.3816 354.632 50.4862 354.572 50.6057C354.557 50.4414 354.542 50.2771 354.527 50.0979C354.423 48.9628 354.318 47.8276 354.303 46.6925C354.274 44.4821 354.453 42.2566 354.871 40.076C355.648 36.1032 357.201 32.3244 359.382 28.9191C359.964 28.008 360.591 27.1268 361.263 26.2904C361.697 25.7677 362.16 25.2599 362.608 24.7521C362.667 25.1254 362.712 25.5138 362.727 25.9021C362.787 26.9476 362.757 28.008 362.697 29.0535C362.608 31.0698 362.384 33.0861 361.995 35.0726C361.219 39.0604 359.8 42.9586 357.544 46.3639C357.156 46.9614 356.708 47.5289 356.275 48.0965C356.32 47.8725 356.365 47.6335 356.424 47.4094C356.783 45.7665 357.261 44.1535 357.754 42.5554C358.769 39.2247 359.8 35.909 360.92 32.6082C360.995 32.3842 360.651 32.2946 360.561 32.5186C359.232 35.8343 357.948 39.15 356.798 42.5404C356.245 44.1684 355.722 45.7964 355.334 47.4692L355.349 47.4543ZM362.339 54.3844C364.609 54.3247 366.894 54.474 369.164 54.6234C373.391 54.9072 377.633 55.1611 381.695 56.4007C382.756 56.7144 383.786 57.1176 384.787 57.5806C384.832 57.5956 384.892 57.6254 384.936 57.6553C383.368 58.3872 381.83 59.119 380.157 59.6418C378.021 60.2989 375.811 60.7171 373.585 60.8665C369.224 61.1652 364.549 60.5528 360.561 58.7157C359.441 58.2079 358.336 57.5806 357.41 56.7741C356.932 56.3559 356.469 55.878 356.051 55.3851C356.036 55.3552 356.021 55.3403 355.991 55.3104C356.021 55.3104 356.066 55.3104 356.096 55.3253C356.678 55.6241 357.276 55.9078 357.888 56.1319C358.844 56.4903 359.845 56.7592 360.815 57.0429C362.832 57.6404 364.863 58.1482 366.954 58.3872C371.181 58.88 375.437 58.5216 379.619 57.8793C379.649 57.8793 379.634 57.8345 379.619 57.8345C375.378 57.8047 371.076 58.0884 366.864 57.3865C364.833 57.0429 362.862 56.4903 360.905 55.8481C359.979 55.5494 359.023 55.2656 358.127 54.8922C358.515 54.7877 358.904 54.713 359.292 54.6383C360.293 54.4591 361.308 54.3993 362.309 54.3695L362.339 54.3844ZM371.674 32.6231C371.674 32.6231 371.614 32.5634 371.599 32.6231C371.181 34.5648 370.777 36.4915 370.494 38.463C370.419 38.9857 370.329 39.5234 370.27 40.076C370.18 40.3299 370.076 40.5839 369.986 40.8378C369.881 40.0611 369.837 39.2844 369.822 38.4929C369.792 36.5363 369.986 34.5947 370.434 32.6978C370.897 30.7562 371.539 28.8444 372.316 26.9924C372.689 26.0963 373.107 25.2001 373.526 24.3189C373.526 24.3189 373.526 24.289 373.541 24.2741C373.585 25.0508 373.556 25.8274 373.496 26.6041C373.331 28.6055 373.093 30.6218 372.689 32.5783C372.435 33.8031 372.077 35.0128 371.674 36.1928C371.689 34.9979 371.674 33.818 371.674 32.6082V32.6231ZM376.587 44.2132C378.29 43.7203 380.038 43.3619 381.785 43.1677C384.548 42.8391 387.52 42.6599 390.194 43.5262C390 43.6755 389.806 43.8249 389.596 43.9742C387.326 45.3483 384.712 45.9009 381.994 46.0204C380.053 46.11 378.111 45.9756 376.199 45.662C377.05 45.5724 377.902 45.4678 378.768 45.3931C381.277 45.184 383.697 44.96 386.101 44.1385C386.281 44.0788 386.206 43.8249 386.027 43.8548C383.652 44.3626 381.188 44.4671 378.783 44.6613C377.618 44.7509 376.438 44.8853 375.273 44.9152C375.019 44.9152 374.75 44.9152 374.496 44.9152C375.184 44.6613 375.885 44.4373 376.602 44.2282L376.587 44.2132Z" fill="white"/>
<path d="M20.8433 40.0163C20.1264 39.1948 19.4543 38.3286 18.812 37.4474C18.7672 37.4474 18.7075 37.4324 18.6627 37.4026C16.4672 36.6707 14.4658 35.6551 12.4943 34.4602C10.5526 33.2952 8.58112 32.1303 6.86352 30.6666C5.16086 29.2178 3.72703 27.4255 2.38282 25.6482C1.14316 24.0053 -0.484825 21.6156 0.202216 19.4499C0.336637 19.0317 0.680157 18.8226 1.03861 18.7778C2.02437 18.3447 3.06986 18.733 4.02575 19.1512C4.83227 19.5096 5.62386 19.898 6.41545 20.3162C7.99863 21.1376 9.55194 22.0487 11.0156 23.0793C13.9878 25.1404 16.736 27.6794 18.7224 30.7114C19.2751 31.5627 19.7381 32.4887 20.1115 33.4446C20.3056 33.9375 20.4699 34.4304 20.5745 34.9531C20.6491 35.3564 20.6342 35.7148 20.6043 36.1032C22.6206 38.224 24.7564 40.1955 27.0117 42.0326C26.9968 41.9729 26.9669 41.9131 26.952 41.8683C26.5637 40.8826 26.1903 39.8819 25.8169 38.8812C25.0701 36.8499 24.3681 34.8187 23.9649 32.6829C23.5765 30.577 23.2927 28.3964 23.1434 26.2606C23.0687 25.1852 23.0986 24.1098 23.2778 23.0344C23.4272 22.1383 23.5915 20.6597 24.6071 20.346C24.9506 20.2415 25.2792 20.4207 25.4734 20.7045C25.5182 20.7642 25.548 20.824 25.5779 20.8837C26.4143 21.5558 26.8773 22.6163 27.3552 23.5572C27.8481 24.543 28.2813 25.5586 28.6995 26.5742C29.491 28.486 30.1482 30.4575 30.5515 32.5037C30.9547 34.5349 31.1489 36.6259 30.9846 38.687C30.895 39.7624 30.7158 40.8079 30.432 41.8384C30.2677 42.406 30.0735 43.1976 29.6852 43.7801C29.6852 43.8846 29.6852 43.9892 29.6553 44.0937C33.6133 47.0211 37.87 49.5004 42.3805 51.4869C42.1117 51.1882 41.8279 50.9044 41.5591 50.6057C40.7824 49.7693 40.0804 48.8582 39.4382 47.9322C38.1836 46.125 37.168 44.1684 36.3465 42.1222C34.7633 38.1045 34.0016 33.7433 33.8373 29.4269C33.7925 28.1873 33.7626 26.9327 33.8672 25.693C33.9717 24.4683 34.2257 22.9299 35.1965 22.0786C35.3608 21.9441 35.5251 21.8695 35.7043 21.8545C36.0329 21.75 36.4212 21.8097 36.7946 22.1084C38.4226 23.4078 39.7518 25.2897 40.9168 26.9924C42.0818 28.6951 43.0825 30.5172 43.889 32.429C45.6813 36.611 46.6372 41.1514 46.6073 45.7068C46.6073 47.0361 46.5028 48.3504 46.3385 49.6647C46.2638 50.307 46.1443 50.9343 45.995 51.5616C45.9203 51.8752 45.8456 52.2038 45.741 52.5174C45.7112 52.622 45.6664 52.7265 45.6216 52.8311C46.219 53.0551 46.8313 53.2792 47.4437 53.4883C56.4649 56.5949 65.9639 57.8047 75.4779 57.7151C74.9253 57.506 74.3727 57.267 73.835 57.0131C71.6843 56.0124 69.6232 54.7877 67.6068 53.5629C63.7236 51.2031 60.0046 48.2757 57.6 44.3626C56.9727 43.3469 56.4649 42.2417 56.0616 41.1215C55.8525 40.554 55.7031 39.9715 55.5836 39.389C55.4642 38.7617 55.3297 38.0597 55.5538 37.4474C55.6583 37.1636 55.8824 36.9844 56.1363 36.9396C56.2856 36.835 56.4649 36.7753 56.674 36.7603C57.8389 36.7305 58.974 37.1337 60.0643 37.5071C61.1696 37.8954 62.2599 38.3286 63.3353 38.8065C65.4113 39.7325 67.3978 40.8676 69.2498 42.182C72.9389 44.7808 76.0903 48.0218 78.4949 51.8304C79.1671 52.8759 79.7645 53.9662 80.2723 55.0864C80.5262 55.639 80.7801 56.2215 80.9593 56.804C81.034 57.0429 81.0788 57.2819 81.1087 57.5358C82.2139 57.4761 83.3192 57.3865 84.4244 57.2969C94.4761 56.4156 104.304 54.2201 114.027 51.5914C112.489 51.6661 110.95 51.6661 109.427 51.5616C106.589 51.3823 103.766 50.8895 101.003 50.2622C95.7008 49.0673 90.4286 47.5588 85.3355 45.662C80.4814 43.8548 75.7617 41.5995 71.5051 38.6273C69.2796 37.074 67.1737 35.3564 65.247 33.4446C64.321 32.5186 63.4547 31.5478 62.6482 30.5172C61.9313 29.6061 61.2293 28.6801 60.6618 27.6794C60.5871 27.6794 60.4975 27.6944 60.4228 27.7093C59.3624 27.784 58.1974 27.3807 57.3311 26.7833C55.3895 25.4242 55.7181 22.0935 57.7045 20.9285C59.5715 19.8233 62.454 20.7941 63.3651 22.7357C63.7983 23.6617 63.9177 24.767 63.5294 25.7229C63.3502 26.1859 63.0813 26.6638 62.6781 26.9775C63.8431 28.471 64.9782 29.9646 66.2925 31.3536C67.8458 32.9965 69.5485 34.52 71.3706 35.8791C74.3428 38.1045 77.5689 39.9715 80.9444 41.5397C80.0184 40.4793 79.182 39.3442 78.3904 38.1941C77.4495 36.8051 76.5832 35.3713 75.8065 33.8777C75.6572 33.579 75.4929 33.2803 75.3435 32.9517C75.1195 32.9517 74.8805 32.9517 74.6565 32.9069C73.4915 32.7725 72.4908 32.2049 71.9382 31.1445C71.3706 30.0691 71.4155 28.6503 72.0129 27.5898C73.2525 25.454 76.7325 25.7378 78.032 27.6346C78.4651 28.2769 78.6891 29.2327 78.5398 30.0841C78.5995 30.7711 78.3157 31.5179 77.8228 32.0257C77.7183 32.1303 77.6137 32.2199 77.5092 32.3095C77.6137 32.5186 77.7183 32.7277 77.8228 32.9368C78.5248 34.3407 79.3015 35.7148 80.1528 37.0292C80.9892 38.3435 81.8853 39.5981 82.8412 40.8228C83.4387 41.5845 84.066 42.406 84.7679 43.1378C88.7707 44.7061 92.878 45.9756 97.0451 47.0809C96.9554 47.0062 96.8808 46.9315 96.7911 46.8419C95.5216 45.647 94.506 44.1236 93.6248 42.63C91.6085 39.1948 90.0701 35.5207 89.2785 31.5926C89.0246 30.3081 88.7856 29.0087 88.6213 27.6944C88.5915 27.6794 88.5616 27.6496 88.5467 27.6346C88.3973 27.5749 88.2479 27.5002 88.1135 27.4255C87.1128 26.843 86.5751 25.7826 86.4557 24.6624C86.2316 22.3773 87.8447 19.8382 90.3837 20.5402C91.3994 20.824 92.3403 21.6156 92.9079 22.4968C93.5202 23.4526 93.565 24.6176 93.3559 25.693C93.1319 26.8132 92.3851 27.6794 91.3098 28.0528C91.1305 28.1126 90.9662 28.1574 90.787 28.1873C90.8766 28.8145 90.9662 29.4568 91.0708 30.0841C91.3994 31.966 91.8474 33.8479 92.5046 35.6551C93.1468 37.4175 93.9384 39.1052 94.8047 40.7631C95.5664 42.2118 96.4028 43.6457 97.4184 44.9152C97.9711 45.6172 98.5536 46.2893 99.1958 46.9016C99.4945 47.2003 99.7932 47.4991 100.107 47.7828C100.167 47.8276 100.211 47.8725 100.271 47.9173C105.394 49.1569 110.547 49.9186 115.849 49.6797C118.358 49.5751 120.882 49.3063 123.362 48.9478C123.481 48.9179 123.586 48.8881 123.705 48.8433C128.619 47.4094 133.533 45.9308 138.462 44.5567C137.132 44.5119 135.803 44.4074 134.504 44.2879C131.546 44.0191 128.589 43.571 125.692 42.869C120.569 41.6293 115.401 39.7325 111.324 36.2674C110.248 35.3564 109.292 34.3109 108.441 33.1758C107.485 31.9062 106.679 30.4276 106.604 28.8145C106.589 28.3067 107.007 27.8736 107.485 27.8139C107.709 27.784 107.903 27.8139 108.083 27.9184C109.397 27.6496 110.726 27.6048 112.07 27.6048C113.519 27.6048 114.953 27.6645 116.387 27.8288C119.314 28.1424 122.212 28.7249 125.034 29.5912C130.232 31.1893 135.161 33.7433 139.432 37.1188C140.568 38.0149 141.658 38.9559 142.703 39.9566C143.226 40.4494 143.749 40.9871 144.182 41.5397C144.421 41.8384 144.645 42.1521 144.854 42.4807C144.944 42.6151 145.003 42.7047 145.048 42.8093C150.634 41.3904 156.265 40.1806 161.985 39.3741C162.299 39.3293 162.613 39.2844 162.926 39.2396C159.879 38.7916 156.877 38.1045 153.935 37.1935C146.855 35.0128 139.866 31.6673 134.115 26.9775C132.607 25.7378 131.188 24.3936 129.918 22.9C129.291 22.1532 128.694 21.3766 128.141 20.5701C127.947 20.2863 127.753 19.9876 127.574 19.7038C126.887 19.6739 126.185 19.3901 125.632 18.9719C124.422 18.0609 124.362 16.3283 125.318 15.2082C126.214 14.1477 127.842 13.9386 129.007 14.7004C130.202 15.4919 130.74 17.1797 130.083 18.4791C129.874 18.8823 129.59 19.181 129.246 19.3752C129.709 20.0772 130.217 20.7493 130.74 21.3915C131.815 22.7059 133.01 23.9157 134.28 25.0358C136.849 27.2911 139.746 29.1581 142.748 30.7861C144.197 31.5776 145.691 32.3095 147.199 32.9816C147.065 32.8472 146.93 32.6978 146.811 32.5634C145.511 31.1445 144.242 29.6061 143.166 28.008C142.061 26.3502 141.195 24.5728 140.448 22.7357C139.91 21.4513 139.403 20.122 138.984 18.7778C138.686 18.733 138.387 18.6434 138.103 18.494C137.446 18.3895 136.849 18.031 136.49 17.329C135.818 16.0147 136.505 14.4016 137.79 13.7594C139.193 13.0574 140.911 14.1477 141.553 15.4471C142.046 16.4478 141.613 17.5979 140.792 18.255C141.15 19.5395 141.479 20.8389 141.927 22.1084C142.554 23.8559 143.405 25.4839 144.481 26.9924C145.541 28.4561 146.661 29.875 147.841 31.2491C148.409 31.9062 148.991 32.5634 149.619 33.1758C150.097 33.6388 150.754 34.0868 151.172 34.6395C155.264 36.148 159.521 37.2532 163.837 37.9253C165.6 38.1941 167.377 38.4032 169.154 38.5675C170.917 38.4331 172.694 38.3286 174.457 38.2838C172.5 37.3428 170.678 36.148 169.02 34.744C165.51 31.7867 162.852 27.7093 161.522 23.3033C161.134 22.0338 160.865 20.7344 160.701 19.42C160.537 18.1206 160.298 16.6719 160.985 15.477C161.119 15.238 161.343 15.1335 161.582 15.1185C161.746 15.0737 161.941 15.0737 162.165 15.1484C166.197 16.5374 169.662 19.4648 172.709 22.3623C175.786 25.2897 178.519 28.6652 180.296 32.5485C180.789 33.6388 181.267 34.7589 181.581 35.909C181.775 36.6408 182.074 37.5668 182.104 38.4182C187.884 38.8065 193.619 39.8371 199.13 41.7936C200.489 42.2716 201.819 42.8989 203.148 43.4963C203.297 43.556 203.193 43.795 203.043 43.7502C196.173 41.5248 188.959 40.4644 181.715 40.2403C181.566 40.7183 181.327 41.1813 181.133 41.5397C180.491 42.7196 179.804 43.8846 179.102 45.0197C177.757 47.1854 176.204 49.2615 174.412 51.0836C171.156 54.3993 167.063 56.8936 162.687 58.432C160.522 59.1937 158.147 59.821 155.832 59.8957C154.936 60.1048 153.95 60.045 153.128 59.806C152.456 59.6119 152.128 58.9398 152.262 58.2826C152.486 57.1475 153.158 56.1617 153.816 55.2357C154.503 54.2649 155.249 53.3389 156.041 52.4428C157.549 50.7252 159.192 49.142 160.865 47.5887C162.598 45.9906 164.315 44.3028 166.317 43.0482C168.079 41.943 170.065 41.1813 172.022 40.4345C169.812 40.5838 167.601 40.7929 165.421 41.0767C158.49 41.943 151.665 43.4515 144.929 45.2288C144.914 45.3931 144.899 45.5724 144.869 45.7367C144.764 46.4984 144.57 47.2452 144.301 47.977C143.794 49.4258 143.107 50.8297 142.36 52.159C140.896 54.7429 139.238 57.2371 137.371 59.5671C133.652 64.2419 128.843 67.6771 123.287 69.8129C121.808 70.3805 120.285 70.8584 118.747 71.2468C117.134 71.65 115.416 72.0682 113.743 72.0981C113.026 72.0981 112.623 71.5007 112.623 70.9032C112.623 70.8286 112.623 70.7389 112.653 70.6643C112.683 70.5149 112.742 70.3805 112.832 70.261C113.056 69.798 113.28 69.3649 113.579 68.9317C113.967 68.3642 114.37 67.8265 114.774 67.2739C115.565 66.2134 116.372 65.1829 117.238 64.1822C118.926 62.2107 120.688 60.3139 122.54 58.4917C126.274 54.8325 130.367 51.4421 134.653 48.44C134.922 48.2608 135.191 48.0666 135.46 47.8874C132.607 48.7238 129.754 49.5901 126.901 50.4414C113.997 54.3247 101.048 58.0436 87.6356 59.6268C85.679 59.8658 83.7075 60.045 81.736 60.1794C81.7659 60.986 81.3775 61.897 81.1087 62.5841C80.6905 63.6146 80.1827 64.5855 79.5703 65.5115C78.2709 67.4531 76.6131 69.096 74.7461 70.5C72.8194 71.9487 70.6836 73.0689 68.4731 74.0099C66.1282 74.9956 63.7086 75.8171 61.1696 76.0859C58.3169 76.3697 55.2401 75.8021 52.5666 74.7566C52.3575 74.7268 52.1484 74.6372 51.9842 74.4878C51.3867 74.0696 51.327 73.3079 51.6854 72.8299C51.9244 72.128 52.4621 71.4708 52.8654 70.9331C53.5076 70.0967 54.1797 69.2902 54.9564 68.5434C56.435 67.1245 58.1078 65.9147 59.8702 64.8692C63.2606 62.8679 67.0244 61.3892 70.833 60.4035C63.634 60.1645 56.4648 59.119 49.5496 57.0579C47.9665 56.5799 46.3982 56.0572 44.8598 55.4896C44.83 55.6987 44.7553 55.9078 44.6507 56.1468C44.3819 56.7741 43.9936 57.3267 43.5455 57.8345C42.6942 58.7755 41.6785 59.582 40.5733 60.2093C38.4524 61.434 36.0478 62.2256 33.673 62.7036C28.7741 63.7192 23.6512 63.54 18.8419 62.1808C16.1834 61.434 13.3755 60.3885 11.1799 58.6709C10.7767 58.3573 10.8065 57.6553 11.0903 57.2819C11.0903 57.267 11.1202 57.2521 11.1351 57.2371C11.3741 56.6098 12.091 56.0572 12.5988 55.7286C13.5248 55.1461 14.5405 54.713 15.571 54.3396C17.6321 53.5629 19.7978 53.1149 21.9635 52.8162C24.2038 52.5025 26.4591 52.3233 28.7293 52.159C31.0892 51.9798 33.4639 51.8155 35.8387 51.8304C36.1225 51.8304 36.4063 51.8304 36.6751 51.8453C35.7939 51.3823 34.9276 50.9044 34.0763 50.4115C31.9405 49.1719 29.8196 47.7978 27.8033 46.2743C27.2806 46.7822 26.3844 47.0361 25.7571 47.2452C24.7116 47.5737 23.6363 47.7978 22.5609 47.9919C20.4102 48.3504 18.2146 48.4549 16.034 48.3056C12.9722 48.0816 9.62662 47.3796 7.22198 45.423C6.60961 45.0197 6.04206 44.5418 5.53425 44.0041C4.99656 43.4366 5.08618 42.4956 5.78815 42.0924C9.13374 40.1507 13.4352 40.6585 17.0944 41.1514C19.0062 41.4202 20.903 41.7936 22.7401 42.3761C22.9791 42.4508 23.2031 42.5255 23.4272 42.6002C22.5609 41.7787 21.7394 40.9274 20.9628 40.0312L20.8433 40.0163ZM18.3341 34.4901C18.0055 33.7284 17.5873 33.0115 17.1243 32.3244C16.2282 30.9802 15.1976 29.7555 14.0326 28.6353C11.7176 26.3651 8.99932 24.543 6.16154 23.0046C5.35502 22.5714 4.54849 22.1682 3.7121 21.7799C3.32377 21.6006 2.92051 21.3915 2.51724 21.2272C2.4575 21.1974 2.39776 21.1824 2.33802 21.1675C2.50231 21.6006 2.71141 22.0338 2.90557 22.3922C3.35364 23.2286 3.9212 24.0053 4.50369 24.7521C5.77322 26.3502 7.08756 27.9483 8.6558 29.2626C10.224 30.562 12.0163 31.5776 13.7489 32.6381C14.6301 33.1608 15.5113 33.6985 16.4373 34.1914C14.4658 32.3244 12.4644 30.4724 10.3883 28.7399C10.2838 28.6503 10.4182 28.486 10.5228 28.5606C13.3157 30.5023 16.0041 32.5485 18.4685 34.8934C18.4237 34.7589 18.364 34.6395 18.3042 34.505L18.3341 34.4901ZM164.465 21.1077C169.841 26.3502 174.71 32.1004 180.028 37.4026C179.983 37.2532 179.938 37.1188 179.893 36.9694C179.58 36.0583 179.251 35.1473 178.863 34.2511C178.041 32.429 177.026 30.6964 175.861 29.0685C173.501 25.7677 170.469 22.9299 167.273 20.4506C165.704 19.2408 164.031 18.1206 162.179 17.3738C162.209 18.0161 162.359 18.6732 162.463 19.2557C162.657 20.2863 162.896 21.3019 163.195 22.2877C163.822 24.289 164.704 26.2157 165.824 27.9931C168.034 31.488 171.186 34.3258 174.845 36.2226C175.846 36.7454 176.876 37.1785 177.937 37.5519C178.28 37.6714 178.624 37.7759 178.952 37.8805C173.904 32.4738 168.826 27.1119 164.241 21.3019C164.121 21.1526 164.315 20.9584 164.45 21.0928L164.465 21.1077ZM168.273 44.6762C166.332 45.7516 164.748 47.2601 163.12 48.7686C161.552 50.2174 159.984 51.696 158.535 53.2792C157.759 54.1305 156.997 54.9968 156.295 55.9228C155.877 56.4605 155.429 57.028 155.07 57.6404C155.085 57.6404 155.1 57.6404 155.115 57.6404C157.012 57.2819 158.894 56.9981 160.746 56.4306C162.732 55.8182 164.644 54.9968 166.466 53.9662C170.215 51.8453 173.396 48.8881 175.905 45.3782C176.652 44.3178 177.384 43.2424 178.086 42.1521C175.846 44.0489 173.755 46.1399 171.544 48.0816C168.647 50.6206 165.391 52.8012 161.687 53.9214C161.642 53.9214 161.612 53.8766 161.657 53.8467C165.211 52.1739 168.169 49.5004 171.021 46.8419C173.097 44.9003 175.114 42.8839 177.279 41.0319C176.249 41.3456 175.218 41.6891 174.218 42.0924C172.216 42.8989 170.155 43.6606 168.258 44.721L168.273 44.6762ZM142.539 42.3164C142.539 42.3164 142.614 42.3164 142.644 42.3164C142.36 42.0774 142.076 41.8235 141.777 41.5845C140.836 40.778 139.895 39.9864 138.91 39.2396C136.864 37.7013 134.698 36.2973 132.443 35.0875C127.753 32.5783 122.63 30.8757 117.343 30.1737C115.774 29.9646 114.191 29.8451 112.608 29.8003C111.428 29.7555 110.248 29.8152 109.053 29.8003C110.98 33.6238 114.505 36.2077 118.388 38C123.123 40.1955 128.425 41.5696 133.608 42.0924C135.146 42.2417 136.699 42.3313 138.253 42.3612C138.312 42.3612 138.372 42.3612 138.432 42.3612C136.714 41.8235 135.011 41.2261 133.339 40.5839C129.799 39.2247 126.304 37.6863 122.884 36.0434C120.927 35.1025 118.986 34.1018 117.029 33.1459C116.939 33.1011 116.999 32.9368 117.104 32.9816C124.228 35.6103 131.173 38.7318 138.372 41.1514C139.373 41.48 140.388 41.7787 141.404 42.0625C141.762 42.167 142.151 42.2417 142.524 42.3313L142.539 42.3164ZM130.352 54.5636C126.423 57.73 122.705 61.1951 119.329 64.9439C118.373 66.0043 117.447 67.0947 116.521 68.185C116.178 68.5882 115.849 68.9915 115.52 69.3947C116.148 69.2753 116.775 69.1707 117.402 69.0214C118.761 68.7077 120.091 68.3343 121.405 67.8713C123.929 67.005 126.334 65.8401 128.574 64.3764C133.279 61.2996 136.729 56.789 139.642 52.0544C140.463 50.7102 141.27 49.3361 141.897 47.8874C141.897 47.8575 141.912 47.8426 141.927 47.8127C141.24 48.6342 140.583 49.4556 139.91 50.2771C138.506 52.0246 137.117 53.8019 135.639 55.5046C132.921 58.5963 129.844 61.2399 126.095 63.0172C126.005 63.062 125.931 62.9425 126.02 62.8828C129.5 60.7321 132.323 57.6254 134.937 54.5188C136.341 52.846 137.67 51.0986 139.014 49.381C139.432 48.8433 139.866 48.2906 140.284 47.753C136.699 49.5303 133.443 52.0694 130.352 54.5487V54.5636ZM79.0476 56.2066C78.4949 55.3253 77.9274 54.4441 77.3449 53.5779C76.165 51.8453 74.7909 50.2323 73.3421 48.7088C70.3849 45.6022 66.8601 43.0632 62.9768 41.241C61.9164 40.7481 60.841 40.3001 59.7358 39.9117C59.0039 39.6578 58.2273 39.4637 57.4805 39.2098C57.585 39.5384 57.6896 39.8819 57.8091 40.2105C58.1526 41.1813 58.6156 42.0924 59.1383 42.9586C60.2137 44.7509 61.5728 46.3341 63.1112 47.738C64.7691 49.2465 66.6062 50.5011 68.503 51.696C70.4745 52.9356 72.4908 54.1604 74.5818 55.1909C75.5974 55.6838 76.6429 56.0572 77.7034 56.4007C77.3449 55.9975 76.9865 55.6091 76.6131 55.2059C75.3435 53.8766 74.0292 52.5921 72.6999 51.3226C69.9518 48.7088 66.9646 46.349 63.7833 44.2879C63.6937 44.2282 63.7833 44.1087 63.858 44.1535C67.1289 46.0951 70.2505 48.2757 73.1928 50.6804C74.6714 51.8901 76.0604 53.2045 77.3748 54.5786C78.0319 55.2656 78.6891 55.9526 79.3164 56.6696C79.2268 56.5202 79.1223 56.3559 79.0326 56.2066H79.0476ZM67.353 64.2121C63.7833 65.5563 60.2286 67.3486 57.3759 69.9175C56.5843 70.6344 55.8376 71.3961 55.1804 72.2176C55.031 72.4117 54.8817 72.6358 54.7323 72.8598C56.4499 73.2631 58.1526 73.6514 59.9449 73.6215C62.2599 73.5767 64.5152 72.8299 66.651 72.0085C70.594 70.485 74.3578 68.185 76.9715 64.7946C77.6287 63.9283 78.1962 63.0023 78.6891 62.0315C78.8086 61.8074 78.8982 61.5535 79.0028 61.2847C78.5995 61.673 78.1365 62.0315 77.8228 62.3302C77.0611 63.0322 76.3143 63.7192 75.4929 64.3465C73.8798 65.6011 72.1025 66.6615 70.3102 67.6622C68.5926 68.633 66.8153 69.4993 64.9184 70.0668C62.932 70.6493 60.8709 71.0078 58.8247 71.3065C58.7201 71.3214 58.6604 71.1571 58.7799 71.1422C60.7514 70.8136 62.7378 70.4701 64.6347 69.8129C66.5315 69.1558 68.2192 68.1999 69.8472 67.0648C71.4901 65.9297 73.1928 64.8543 74.7013 63.5549C75.463 62.9127 76.1799 62.2256 76.8968 61.5386C75.8961 61.7327 74.9104 61.9269 73.9246 62.1659C71.6992 62.6886 69.4888 63.3607 67.338 64.1822L67.353 64.2121ZM43.3364 47.4543C43.5455 48.3355 43.7845 49.3063 43.9189 50.2622C43.9936 50.3816 44.0533 50.4862 44.1131 50.6057C44.128 50.4414 44.1429 50.2771 44.1579 50.0979C44.2624 48.9628 44.367 47.8276 44.3819 46.6925C44.4118 44.4821 44.2325 42.2566 43.8143 40.076C43.0377 36.1032 41.4844 32.3244 39.3038 28.9191C38.7213 28.008 38.094 27.1268 37.4219 26.2904C36.9887 25.7677 36.5257 25.2599 36.0777 24.7521C36.0179 25.1254 35.9731 25.5138 35.9582 25.9021C35.8984 26.9476 35.9283 28.008 35.9881 29.0535C36.0777 31.0698 36.3017 33.0861 36.69 35.0726C37.4667 39.0604 38.8856 42.9586 41.1409 46.3639C41.5292 46.9614 41.9773 47.5289 42.4104 48.0965C42.3656 47.8725 42.3208 47.6335 42.261 47.4094C41.9026 45.7665 41.4246 44.1535 40.9318 42.5554C39.9161 39.2247 38.8856 35.909 37.7654 32.6082C37.6907 32.3842 38.0342 32.2946 38.1239 32.5186C39.4531 35.8343 40.7376 39.15 41.8876 42.5404C42.4403 44.1684 42.963 45.7964 43.3513 47.4692L43.3364 47.4543ZM36.3465 54.3844C34.0763 54.3247 31.7911 54.474 29.5209 54.6234C25.2941 54.9072 21.0524 55.1611 16.9899 56.4007C15.9295 56.7144 14.8989 57.1176 13.8982 57.5806C13.8534 57.5956 13.7937 57.6254 13.7489 57.6553C15.3171 58.3872 16.8555 59.119 18.5283 59.6418C20.6641 60.2989 22.8745 60.7171 25.1 60.8665C29.4612 61.1652 34.136 60.5528 38.1239 58.7157C39.244 58.2079 40.3493 57.5806 41.2753 56.7741C41.7532 56.3559 42.2162 55.878 42.6344 55.3851C42.6494 55.3552 42.6643 55.3403 42.6942 55.3104C42.6643 55.3104 42.6195 55.3104 42.5896 55.3253C42.0071 55.6241 41.4097 55.9078 40.7973 56.1319C39.8415 56.4903 38.8408 56.7592 37.87 57.0429C35.8536 57.6404 33.8224 58.1482 31.7314 58.3872C27.5046 58.88 23.2479 58.5216 19.066 57.8793C19.0361 57.8793 19.051 57.8345 19.066 57.8345C23.3077 57.8047 27.6092 58.0884 31.821 57.3865C33.8523 57.0429 35.8238 56.4903 37.7803 55.8481C38.7064 55.5494 39.6622 55.2656 40.5584 54.8922C40.17 54.7877 39.7817 54.713 39.3934 54.6383C38.3927 54.4591 37.3771 54.3993 36.3764 54.3695L36.3465 54.3844ZM27.0117 32.6231C27.0117 32.6231 27.0715 32.5634 27.0864 32.6231C27.5046 34.5648 27.9079 36.4915 28.1916 38.463C28.2663 38.9857 28.3559 39.5234 28.4157 40.076C28.5053 40.3299 28.6098 40.5839 28.6995 40.8378C28.804 40.0611 28.8488 39.2844 28.8637 38.4929C28.8936 36.5363 28.6995 34.5947 28.2514 32.6978C27.7884 30.7562 27.1461 28.8444 26.3695 26.9924C25.9961 26.0963 25.5779 25.2001 25.1597 24.3189C25.1597 24.3189 25.1597 24.289 25.1448 24.2741C25.1 25.0508 25.1298 25.8274 25.1896 26.6041C25.3539 28.6055 25.5928 30.6218 25.9961 32.5783C26.25 33.8031 26.6085 35.0128 27.0117 36.1928C26.9968 34.9979 27.0117 33.818 27.0117 32.6082V32.6231ZM22.083 44.2132C20.3803 43.7203 18.6328 43.3619 16.8854 43.1677C14.1223 42.8391 11.1501 42.6599 8.47657 43.5262C8.67074 43.6755 8.8649 43.8249 9.074 43.9742C11.3442 45.3483 13.958 45.9009 16.6763 46.0204C18.6179 46.11 20.5595 45.9756 22.4713 45.662C21.62 45.5724 20.7686 45.4678 19.9024 45.3931C17.3932 45.184 14.9736 44.96 12.5689 44.1385C12.3897 44.0788 12.4644 43.8249 12.6436 43.8548C15.0184 44.3626 17.4828 44.4671 19.8874 44.6613C21.0524 44.7509 22.2323 44.8853 23.3973 44.9152C23.6512 44.9152 23.92 44.9152 24.174 44.9152C23.4869 44.6613 22.7849 44.4373 22.068 44.2282L22.083 44.2132Z" fill="white"/>
<path d="M223.85 3.28777C222.715 0.763646 219.952 -0.1773 217.353 0.00192784C214.769 0.181156 212.305 1.09223 210.094 2.40657C207.6 3.8852 205.434 5.85671 203.448 7.9477C202.373 9.06787 201.357 10.2329 200.431 11.4725C200.058 11.9803 199.669 12.4881 199.341 13.0408C199.027 12.4881 198.639 11.9803 198.25 11.4725C197.324 10.2329 196.309 9.06787 195.233 7.9477C193.247 5.85671 191.081 3.8852 188.587 2.40657C186.376 1.09223 183.897 0.181156 181.328 0.00192784C178.729 -0.1773 175.966 0.763646 174.831 3.28777C173.741 5.70735 174.084 8.575 174.921 11.0095C175.817 13.6233 177.296 15.9532 178.983 18.1189C182.224 22.3009 186.227 25.8108 190.529 28.8875C192.545 30.3363 194.636 31.6805 196.772 32.9351C196.936 33.0247 197.085 33.1292 197.25 33.2188C197.937 33.6221 198.639 34.0254 199.341 34.4137C200.043 34.0254 200.73 33.6221 201.432 33.2188L201.91 32.9351C204.045 31.6655 206.136 30.3213 208.153 28.8875C212.439 25.8108 216.442 22.3009 219.698 18.1189C221.386 15.9532 222.864 13.6233 223.76 11.0095C224.597 8.56006 224.94 5.70735 223.85 3.28777ZM221.251 10.3225C220.49 12.5479 219.175 14.5941 217.741 16.4461C214.754 20.2846 211.095 23.5704 207.167 26.4082C204.897 28.0511 202.537 29.5596 200.132 30.9934C199.878 31.1428 199.609 31.3071 199.341 31.4564C199.072 31.3071 198.818 31.1428 198.549 30.9934C196.144 29.5596 193.785 28.0362 191.514 26.4082C187.586 23.5704 183.927 20.2846 180.94 16.4461C179.506 14.5941 178.192 12.5479 177.43 10.3225C176.788 8.45551 176.25 5.96126 177.311 4.13911C178.356 2.33189 180.865 2.39163 182.657 2.75009C184.958 3.19816 187.034 4.25859 188.93 5.6028C190.857 6.96195 192.605 8.575 194.262 10.2478C195.159 11.1589 196.04 12.0849 196.876 13.0557C197.399 13.6681 197.952 14.2655 198.489 14.8778C198.773 15.2214 199.057 15.55 199.326 15.9084L200.147 14.8928H200.162C200.7 14.2655 201.252 13.6531 201.775 13.0408C202.612 12.0699 203.493 11.1439 204.389 10.2329C206.047 8.56006 207.779 6.94701 209.721 5.58787C211.618 4.25859 213.709 3.19816 215.994 2.73515C217.786 2.3767 220.295 2.31696 221.341 4.12417C222.401 5.94632 221.864 8.44058 221.221 10.3075L221.251 10.3225Z" fill="white"/>
</g>
<defs>
<clipPath id="clip0_31_74">
<rect width="398.663" height="76.1719" fill="white"/>
</clipPath>
</defs>
</svg>
