<svg width="117" height="297" viewBox="0 0 117 297" fill="none" xmlns="http://www.w3.org/2000/svg">
<path opacity="0.2" d="M78.6106 0.404492C79.5169 1.27228 80.1524 2.55712 80.7695 3.71564C81.3866 4.87416 81.9645 6.07559 82.5343 7.29455C84.4529 11.4543 86.0839 15.86 87.1356 20.435C87.6341 22.636 88.0182 24.8764 88.25 27.1543C88.3692 28.3068 88.4426 29.475 88.4865 30.6239C88.4977 31.18 88.5008 31.7535 88.4744 32.3077C88.4667 32.5313 88.3599 33.01 88.3802 33.2977C88.5335 33.6724 88.6786 34.0646 88.8238 34.4568C88.9322 34.5964 89.0259 34.7264 89.1033 34.8914C89.2316 35.1125 89.2617 35.338 89.2245 35.5422C89.6253 36.6277 90.0031 37.7209 90.3646 38.8493C92.4947 45.6621 94.0424 52.7338 95.0418 59.9493C95.4327 57.7819 96.0103 55.6684 96.5947 53.582C97.3169 50.9916 98.0834 48.4302 98.9171 45.8899C100.619 40.6946 102.586 35.6732 105.52 31.3076C105.75 30.9781 106.061 30.9304 106.328 31.0597C106.533 31.0337 106.749 31.1068 106.915 31.3298C107.67 32.4411 107.772 33.8795 107.875 35.2732C107.973 36.595 107.965 37.9385 107.875 39.2512C107.492 44.5099 105.951 49.4441 104.217 54.2527C103.292 56.8244 102.417 59.4523 100.887 61.6276C100.204 62.5983 99.4056 63.4469 98.5641 64.2218C97.7685 64.981 96.9372 65.8997 95.9322 66.1561C95.9083 66.4148 95.8762 66.691 95.8523 66.9496C96.3985 73.0682 96.5502 79.2485 96.3266 85.366C97.7824 81.4042 99.5874 77.6025 101.722 74.0855C104.187 69.9839 107.093 65.9664 110.476 62.8317C110.416 62.587 110.365 62.3247 110.374 62.0563C110.368 61.5722 110.499 61.041 110.732 60.6221C110.866 59.3384 111.735 58.2154 112.761 57.7898C114.896 56.9248 116.778 59.7119 116.82 62.0255C116.878 64.9669 114.097 66.1862 112.114 65.0248C111.981 64.9378 111.848 64.8508 111.73 64.7735C110.275 66.2894 108.841 67.8422 107.515 69.5345C104.036 73.9547 101.17 79.0045 98.9169 84.4332C97.766 87.2002 96.7857 90.0559 95.9988 92.9926C95.9306 93.2223 95.869 93.4792 95.8156 93.7185C95.1492 100.872 93.9288 107.891 92.2396 114.718C92.7563 113.73 93.3173 112.772 93.893 111.823C95.4425 109.317 97.2451 107.137 99.2743 105.173C101.241 103.261 103.345 101.552 105.462 99.8979C107.609 98.2181 109.721 96.4918 111.931 94.9673C112.773 94.3985 113.744 95.583 113.329 96.4769C113.299 98.0344 112.662 99.6523 112.17 101.044C111.651 102.533 111.042 104.009 110.346 105.383C107.861 110.316 104.451 114.507 100.712 118.117C98.8401 119.909 96.9035 121.59 94.9242 123.197C93.9305 124.009 92.9073 124.802 91.8922 125.578C91.3495 126 90.815 126.404 90.2575 126.816C89.754 127.195 89.2551 127.44 88.7023 127.718C88.5567 127.783 88.4273 127.813 88.2996 127.797C86.5109 132.89 84.4321 137.861 82.1089 142.695C80.4194 146.207 78.62 149.624 76.7319 152.982C78.1853 151.305 79.6749 149.674 81.1924 148.108C83.6476 145.6 86.2327 143.27 88.9166 141.141C90.7864 139.645 92.7123 138.277 94.7221 137.101C94.7292 136.671 94.7969 136.236 94.9842 135.833C95.0259 135.494 95.0824 135.165 95.1914 134.848C95.7991 132.96 97.4765 131.795 99.1775 132.154C100.826 132.502 102.003 134.279 101.997 136.241C101.977 138.148 100.949 140.195 99.3532 140.728C98.0555 141.159 96.5394 140.692 95.6046 139.554C93.3631 141.103 91.1135 142.671 88.9789 144.405C83.6458 148.754 78.8143 153.889 74.2734 159.351C71.9124 162.194 69.6384 165.14 67.4006 168.132C65.1017 171.588 62.7519 174.987 60.3578 178.357C64.1759 175.279 68.4187 173.028 72.8167 171.313C75.631 170.23 78.5211 169.356 81.4067 168.617C84.1859 167.899 87.0027 167.183 89.845 166.827C90.7033 166.223 92.247 167.211 91.8164 168.552C90.5653 172.488 87.6198 175.429 84.9141 177.978C80.2576 182.404 74.9708 185.617 69.1839 187.337C66.2331 188.217 63.2213 188.897 60.1855 189.172C58.7168 189.308 57.2378 189.299 55.7894 189.059C55.0914 188.945 54.341 188.82 53.6949 188.511C53.5243 188.422 53.37 188.298 53.2387 188.166C52.0276 189.82 50.81 191.445 49.6071 193.081C46.5695 197.173 43.5467 201.274 40.5601 205.423C44.6567 202.367 49.3144 200.342 53.9059 198.708C56.8316 197.675 59.8185 196.842 62.8502 196.243C64.3398 195.939 65.8427 195.688 67.3359 195.5C67.647 195.452 67.9728 195.414 68.2838 195.367C68.4162 195.248 68.5404 195.146 68.6942 195.064C68.7105 195.029 68.7349 194.976 68.7512 194.941C69.8282 192.126 73.7707 191.598 75.0834 194.493C75.7703 196.04 75.272 197.817 74.2957 199.006C73.4058 200.092 72.237 200.95 70.9194 200.636C69.7968 200.358 68.358 199.393 67.8976 198.063C67.6553 198.087 67.413 198.111 67.1773 198.163C65.5695 198.39 63.9602 198.662 62.3561 199.006C56.6155 200.254 50.8668 202.181 45.53 205.088C42.9001 206.52 40.3689 208.155 38.0501 210.203C36.867 211.257 35.7628 212.431 34.7309 213.699C31.3875 218.573 28.1392 223.533 25.0748 228.636C25.4571 228.269 25.846 227.93 26.2497 227.6C30.0627 224.45 34.5463 223.545 39.0978 223.531C41.3546 223.523 43.6186 223.748 45.8486 224.088C46.9823 224.259 48.1065 224.492 49.2454 224.735C50.399 224.988 51.5084 225.211 52.5338 225.905C53.1982 226.34 53.0109 227.407 52.3827 227.681C50.8433 229.668 48.7148 231.223 46.7101 232.471C39.0687 237.228 29.8341 237.582 21.5283 235.481C21.4087 235.449 21.2972 235.398 21.2167 235.323C19.8978 237.705 18.6298 240.144 17.4061 242.612C15.6952 246.087 14.0633 249.682 12.5495 253.354C13.758 251.997 15.0602 250.769 16.4627 249.698C19.4378 247.44 22.757 245.933 26.1873 244.933C26.2993 243.863 26.821 242.948 27.6615 242.424C28.7179 241.767 29.9199 241.708 30.8119 242.772C32.4957 244.743 31.8442 248.135 29.6175 249.031C28.6456 249.423 27.5215 249.19 26.797 248.304C26.5144 247.959 26.297 247.474 26.2236 246.969C23.2816 248.037 20.422 249.342 17.7834 251.249C14.8277 253.383 12.1668 256.167 10.1739 259.503C5.91303 271.366 3.14288 284 3.02978 296.843C3.02521 296.977 2.86636 296.987 2.85617 296.843C2.81425 294.53 2.83291 292.21 2.93507 289.877C3.37325 280.562 4.79604 271.366 7.39083 262.55C7.86011 260.959 8.35893 259.389 8.8725 257.827C7.91684 256.859 7.30125 255.655 6.69684 254.345C6.1352 253.109 5.58171 251.855 5.07403 250.585C3.20019 245.997 1.66488 241.22 0.79394 236.215C0.35185 233.685 0.0848996 231.11 0.0225989 228.508C-0.0202682 227.109 0.00406992 225.73 0.036551 224.334C0.0771766 222.92 0.0241224 221.377 0.320322 219.993C0.5015 219.106 1.1791 218.933 1.70401 219.253C2.83628 219.469 3.90398 220.694 4.64479 221.545C5.56635 222.628 6.39986 223.86 7.14172 225.123C9.78839 229.622 11.3858 235.012 11.9106 240.431C12.1913 243.267 12.215 246.117 12.0207 248.939C12.008 249.09 12.0034 249.224 11.9907 249.376C13.6801 245.202 15.5401 241.116 17.5543 237.154C17.6602 236.926 17.789 236.69 17.9096 236.472C18.0608 236.022 18.212 235.573 18.3565 235.096C18.9007 233.303 19.2742 231.422 19.5576 229.527C20.4548 223.576 20.742 217.363 20.3434 211.341C20.1492 208.402 19.7799 205.509 19.1601 202.657C18.8932 201.408 18.5643 200.209 18.1976 199.009C18.0535 199.029 17.9095 199.049 17.7588 199.042C16.1749 199.01 14.7631 197.697 14.4865 195.847C14.4432 195.567 14.431 195.262 14.4483 194.976C14.3885 192.742 15.8714 191.085 17.7322 191.183C19.5701 191.289 21.1805 192.755 21.2158 195.041C21.2403 196.315 20.6962 197.444 19.8939 198.176C20.4092 199.886 20.779 201.659 21.0978 203.377C22.227 209.443 22.4214 215.697 22.0145 221.877C21.8157 224.833 21.5171 227.838 20.9954 230.743C25.4317 222.812 30.3522 215.289 35.455 207.955C34.3761 206.837 33.6403 205.395 32.983 203.867C32.2482 202.174 31.5985 200.423 30.9406 198.689C29.778 195.596 28.7087 192.427 28.1204 189.092C27.552 185.84 27.3634 182.516 27.4762 179.206C27.5905 175.852 27.9095 172.472 28.4972 169.176C28.8056 167.435 29.2189 165.716 29.7584 164.058C30.3046 162.427 30.9469 160.63 32.0231 159.391C32.5963 158.738 33.3457 159.114 33.5637 159.806C35.6141 162.314 36.7959 165.946 37.7721 169.191C39.5927 175.344 40.3629 181.975 40.5563 188.48C40.6487 191.97 40.5365 195.485 39.99 198.9C39.7803 200.18 39.533 201.458 39.1889 202.696C41.3677 199.665 43.553 196.661 45.7613 193.649C46.2714 192.634 46.7371 191.59 47.152 190.49C48.2565 187.533 48.9528 184.377 49.5803 181.244C50.1706 178.316 50.6871 175.339 51.0677 172.365C51.6732 167.664 51.8724 162.925 51.8375 158.193C50.333 157.825 49.1874 156.229 49.2138 154.349C49.2132 154.142 49.2356 153.929 49.2728 153.724C49.3878 152.565 49.9319 151.435 50.611 150.554C51.7635 149.068 53.5907 148.825 54.9109 150.169C56.9159 152.237 56.1373 156.482 53.9558 157.82C54.1271 160.103 54.1395 162.398 54.0454 164.714C53.7552 171.016 52.8327 177.27 51.4855 183.361C51.2086 184.62 50.8859 185.894 50.5419 187.132C57.3251 177.88 64.067 168.51 70.1409 158.588C68.3039 156.242 66.6776 153.691 65.2998 150.937C62.7218 145.751 61.0546 139.973 60.4055 133.993C60.0902 131.066 60.0187 128.07 60.2175 125.114C60.4179 122.113 60.7786 119.057 61.6969 116.252C61.9147 115.618 62.4355 115.616 62.8097 115.93C62.9671 115.964 63.131 116.026 63.2771 116.167C64.4919 117.283 65.3835 118.804 66.2847 120.263C67.1712 121.712 67.9955 123.212 68.7578 124.763C71.4463 130.249 73.2306 136.356 73.8084 142.655C74.0948 145.769 74.0242 148.946 73.6243 152.045C73.5922 152.321 73.552 152.615 73.5052 152.881C76.4256 147.798 79.1408 142.535 81.5984 137.08C81.9409 135.887 82.2458 134.692 82.5063 133.468C83.202 130.106 83.6223 126.632 83.3482 123.161C83.0959 119.932 82.2068 116.789 81.1461 113.809C80.0722 110.774 78.8084 107.774 77.3109 104.988C76.5654 103.608 75.7726 102.289 74.8949 101.028C74.8949 101.028 74.8653 101.009 74.8587 100.982C73.9515 101.691 72.8025 101.967 71.7008 101.52C70.5023 101.032 69.5802 99.7426 69.5567 98.2184C69.5531 98.1017 69.5643 97.9947 69.5607 97.8781C69.5042 97.5439 69.4787 97.1843 69.5056 96.8362C69.5982 95.2279 70.4463 93.8172 71.719 93.2333C73.9961 92.1869 76.4858 94.2058 76.5996 97.0693C76.6241 97.6797 76.5289 98.2575 76.3518 98.8045C77.6893 100.526 78.8064 102.515 79.7744 104.452C81.307 107.536 82.5912 110.823 83.6626 114.154C84.7274 117.457 85.4781 120.898 85.5084 124.438C85.5243 125.523 85.4795 126.614 85.3824 127.693C89.598 116.051 92.2968 103.736 93.2637 91.0873C92.5846 90.6426 91.941 90.0383 91.3453 89.5796C90.2211 88.6835 89.097 87.7873 87.9809 86.8736C84.0468 83.6116 80.2822 80.0262 77.1937 75.6491C75.7324 73.572 74.3887 71.3662 73.215 69.0431C72.6422 67.9136 72.1233 66.7508 71.6355 65.5627C71.1757 64.4386 70.4959 63.1247 70.532 61.8453C70.5411 61.5769 70.6323 61.3394 70.7661 61.1756C70.8975 60.6444 71.4025 60.2206 72.0042 60.5004C74.7428 61.8593 77.3628 63.5979 79.8326 65.5352C82.0153 67.2617 84.0463 69.2317 85.7703 71.5723C87.4368 73.8295 88.9073 76.3012 90.278 78.8219C91.4496 80.9836 92.6441 83.1375 93.5836 85.4672C93.6008 85.1814 93.6034 84.8858 93.6125 84.6175C93.8345 77.2187 93.4913 69.7928 92.5637 62.4643C89.7723 55.7899 84.6472 51.1537 79.8022 46.4951C78.7485 47.5196 77.2369 47.5814 76.0934 46.8097C75.5181 46.6387 74.9718 46.281 74.5431 45.7945C73.1877 44.1526 73.6549 41.7381 75.0386 40.3352C76.4843 38.8815 78.4576 38.7792 79.7967 40.4562C80.6872 41.5651 81.1155 43.1715 80.8096 44.6172C82.0835 45.7714 83.364 46.9528 84.5824 48.185C87.2243 50.8295 89.7456 53.6921 91.7523 57.0407C90.482 49.5793 88.5392 42.3633 86.3837 35.1908C85.8272 34.6892 85.3114 34.1 84.8893 33.6407C83.9433 32.6098 83.1002 31.4404 82.3339 30.2299C80.9148 28.0205 79.8063 25.5572 78.8434 23.0292C77.9151 20.5924 77.0719 18.0971 76.4806 15.5152C75.896 12.9606 75.5109 10.3081 75.4878 7.66394C75.4729 6.32828 75.5563 4.98837 75.738 3.64423C75.8377 2.93227 75.9914 2.18706 76.3075 1.5482C76.5437 1.0399 76.8328 0.749168 77.1958 0.506777C77.486 -0.0347705 78.1931 -0.188957 78.6905 0.273942L78.6106 0.404492ZM9.85796 248.62C10.0918 243.309 9.5884 237.927 8.02304 232.924C7.26684 230.532 6.2505 228.243 5.00049 226.167C4.37218 225.116 3.65884 224.123 2.91293 223.2C2.71741 222.958 2.50713 222.706 2.29685 222.454C2.24499 223.311 2.17835 224.159 2.14278 224.982C2.10725 226.467 2.08649 227.962 2.14922 229.444C2.33183 234.273 3.28878 238.969 4.66624 243.505C5.35829 245.787 6.15011 248.021 7.04172 250.205C7.48014 251.292 7.93484 252.344 8.40432 253.406C8.64975 253.955 8.90842 254.559 9.16861 255.118C9.22557 254.332 9.39557 253.552 9.45306 252.972C9.6459 251.521 9.77815 250.076 9.84321 248.61L9.85796 248.62ZM26.3629 230.257C25.4542 231.011 24.5964 231.821 23.7239 232.621C23.3808 232.945 23.0361 233.314 22.6767 233.673C24.7351 234.175 26.8291 234.517 28.9307 234.636C33.0585 234.87 37.1186 234.214 41.0554 232.746C42.9437 232.039 44.7937 231.124 46.5516 230.035C47.7469 229.286 48.8633 228.417 49.9649 227.538C49.4258 227.414 48.8948 227.272 48.3475 227.165C47.1414 226.901 45.9419 226.664 44.7328 226.489C40.5876 225.878 36.1553 225.719 32.0754 226.957C29.9708 227.59 28.133 228.81 26.3548 230.275L26.3629 230.257ZM37.1723 202.518C37.5805 200.728 37.8838 198.915 38.0822 197.079C38.7344 190.785 38.3475 184.199 37.367 177.979C36.8959 174.973 36.2496 172.012 35.3432 169.155C34.6283 166.881 33.6058 164.771 32.6979 162.622C32.2321 163.666 31.7745 164.692 31.4564 165.833C30.9418 167.645 30.5912 169.518 30.3388 171.388C29.5008 177.377 29.2844 183.728 30.5917 189.659C31.2726 192.711 32.3348 195.647 33.4525 198.505C33.9932 199.911 34.5193 201.307 35.1222 202.662C35.5209 203.586 36.0046 204.451 36.4883 205.317C36.529 205.229 36.5402 205.122 36.5661 205.025C36.7982 204.194 36.9779 203.351 37.1805 202.501L37.1723 202.518ZM58.0687 183.077C56.8907 184.203 55.7769 185.439 54.6137 186.575C54.5745 186.618 54.5124 186.669 54.4732 186.712C55.1513 186.744 55.8228 186.75 56.4943 186.755C58.0191 186.747 59.5566 186.588 61.0742 186.348C66.6209 185.476 72.2637 183.776 77.1804 180.572C79.5039 179.053 81.7235 177.26 83.7328 175.215C85.3974 173.539 87.1568 171.742 88.3861 169.552C85.8885 170.203 83.3674 170.655 80.8764 171.333C75.4 172.799 70.0001 174.681 64.9978 177.738C62.5466 179.242 60.1926 180.992 58.054 183.067L58.0687 183.077ZM71.1849 155.637C71.4673 153.993 71.6744 152.345 71.7766 150.675C72.1545 144.681 71.3563 138.649 69.5699 133.044C68.6767 130.242 67.5234 127.543 66.2067 124.989C65.5483 123.712 64.8359 122.469 64.0992 121.278C63.6766 120.612 63.2458 119.964 62.838 119.309C62.4772 121.701 62.1393 124.086 62.0703 126.556C61.7457 137.408 65.0353 148.066 71.1386 156.109C71.1742 155.95 71.187 155.798 71.2226 155.638L71.1849 155.637ZM90.495 122.948C90.4543 123.036 90.4054 123.141 90.3647 123.229C90.5429 123.094 90.721 122.959 90.8992 122.824C91.9846 121.981 93.0618 121.154 94.1258 120.274C97.9372 117.169 101.571 113.741 104.631 109.642C106.135 107.608 107.469 105.442 108.598 103.095C109.144 101.92 109.652 100.744 110.086 99.5196L110.102 99.4846C108.798 100.551 107.428 101.551 106.102 102.581C101.846 105.897 97.8359 109.512 94.8875 114.531C93.3008 117.242 91.9045 120.122 90.5016 122.976L90.495 122.948ZM91.5466 85.6651C90.4697 83.3825 89.1917 81.2425 87.9676 79.0693C86.6005 76.6653 85.1713 74.312 83.461 72.2319C81.7442 70.1246 79.7809 68.3818 77.6823 66.8475C76.1874 65.7544 74.6422 64.8111 73.1067 63.8056C73.2732 64.2347 73.4331 64.6366 73.6011 65.0209C74.1841 66.2943 74.813 67.5519 75.4663 68.757C77.8095 73.0804 80.7198 76.9294 84.0104 80.2501C85.7838 82.0286 87.66 83.6686 89.5687 85.2386C90.4862 85.9994 91.3889 86.7505 92.3226 87.4763C92.0869 86.8647 91.8201 86.2785 91.5385 85.6826L91.5466 85.6651ZM96.4935 62.0886C96.4482 62.3104 96.4176 62.5419 96.3805 62.7462C96.7613 62.424 97.1568 62.1115 97.4622 61.7857C98.3149 60.9038 99.1249 59.9482 99.7444 58.8222C100.903 56.7008 101.68 54.2832 102.506 51.9665C103.324 49.6674 104.075 47.3471 104.647 44.9556C105.159 42.7762 105.537 40.5545 105.652 38.2754C105.712 37.1941 105.725 36.1286 105.664 35.0595C105.66 34.9428 105.656 34.8262 105.63 34.7174C104.691 36.5717 103.818 38.4919 103.013 40.4332C101.071 45.1512 99.565 50.132 98.1577 55.1085C97.5134 57.407 96.9362 59.7267 96.4935 62.0886ZM77.9893 4.02113C77.9089 4.60859 77.8662 5.19786 77.8168 5.75993C77.7349 7.05511 77.7432 8.36357 77.8349 9.65813C78.1713 14.4048 79.5834 19.033 81.3335 23.2652C82.2745 25.5503 83.3677 27.7978 84.6961 29.7879C85.1121 30.4261 85.5673 31.0213 86.0454 31.6087C86.0112 30.3976 85.954 29.1942 85.8364 27.997C85.4119 23.3984 84.2671 18.8995 82.7512 14.6606C81.9446 12.4179 81.0153 10.232 80.001 8.10467C79.4873 7.01383 78.9572 5.95804 78.4205 4.87506C78.2724 4.57229 78.1308 4.2967 77.9826 3.99393L77.9893 4.02113Z" fill="#E3ACAC"/>
</svg>
